<svg width="80" height="80" viewBox="0 0 80 80" fill="none" xmlns="http://www.w3.org/2000/svg">
<circle opacity="0.5" cx="40" cy="40" r="40" fill="#F5F5F5"/>
<path d="M44.2074 30.6995C41.8361 29.3474 39.9942 28.2972 38.4983 27.6159C36.9968 26.932 35.6934 26.5458 34.4261 26.6774C32.4147 26.8862 30.5835 27.9284 29.3902 29.5504C28.6365 30.575 28.3227 31.8899 28.1714 33.5179C28.0208 35.1394 28.0208 37.241 28.0208 39.9437V40.0564C28.0208 42.7591 28.0208 44.8607 28.1714 46.4822C28.3227 48.1101 28.6365 49.4251 29.3902 50.4497C30.5835 52.0717 32.4146 53.1139 34.4261 53.3227C35.6934 53.4542 36.9968 53.068 38.4983 52.3842C39.9942 51.7029 41.8361 50.6526 44.2074 49.3006L44.3036 49.2457C46.6747 47.8938 48.5167 46.8435 49.8623 45.9047C51.2117 44.9631 52.2064 44.0391 52.728 42.8822C53.5549 41.0479 53.5549 38.9522 52.728 37.1179C52.2064 35.961 51.2117 35.037 49.8623 34.0954C48.5167 33.1566 46.6747 32.1063 44.3036 30.7544L44.2074 30.6995Z" fill="#252947"/>
</svg>
