<svg width="183" height="183" viewBox="0 0 183 183" fill="none" xmlns="http://www.w3.org/2000/svg">
<circle opacity="0.1" cx="91.5" cy="91.5" r="91.5" fill="#6882A0"/>
<path fill-rule="evenodd" clip-rule="evenodd" d="M130.017 120.05C130.017 130.332 121.282 138.667 110.508 138.667H71.4917C60.7176 138.667 51.9834 130.332 51.9834 120.05V97.2877C51.9834 93.9826 50.6076 90.8129 48.1585 88.4759C42.4844 83.0612 43.2221 74.0897 49.7117 69.5858L79.5258 48.8941C86.3664 44.1466 95.6336 44.1466 102.474 48.8941L132.288 69.5858C138.778 74.0897 139.516 83.0612 133.841 88.4759C131.392 90.8129 130.017 93.9826 130.017 97.2877V120.05ZM91 120C96.1547 120 100.333 115.821 100.333 110.667C100.333 105.512 96.1547 101.333 91 101.333C85.8453 101.333 81.6667 105.512 81.6667 110.667C81.6667 115.821 85.8453 120 91 120Z" fill="#252947"/>
</svg>
