<svg width="54" height="54" viewBox="0 0 54 54" fill="none" xmlns="http://www.w3.org/2000/svg">
<path fill-rule="evenodd" clip-rule="evenodd" d="M50.1597 0.170454C51.7716 0.62696 53.0593 1.84563 53.7272 3.58544L53.9608 4.19085L53.9917 17.0749C54.013 28.3151 54.0013 30.1392 53.8604 31.3912C52.928 39.6318 48.4571 46.2913 41.0363 50.4586C37.5286 52.4316 32.8143 53.7462 28.4765 53.9578C21.9785 54.287 15.8956 52.6843 10.7354 49.2909C7.64275 47.2553 4.69298 44.1577 2.97099 41.1365C1.7239 38.9421 0.66984 36.1737 0.202663 33.852L0 32.8763H2.9092H5.81845L6.10223 33.852C7.76437 39.7278 12.2354 44.3301 18.4187 46.5676C21.2971 47.6177 23.5287 47.9782 26.8935 47.9782C30.2082 47.9684 32.3375 47.6177 35.1869 46.5989C42.0188 44.1596 46.7428 38.8265 47.9706 32.1866C48.2852 30.4997 48.3161 29.2497 48.3257 17.6803L48.3354 5.94047H31.4051H14.4748V2.97024V0L32.0325 0.00980583C47.1366 0.00980583 49.681 0.0313452 50.1578 0.168493L50.1597 0.170454Z" fill="#252947"/>
<path fill-rule="evenodd" clip-rule="evenodd" d="M10.9981 3.00733V6.01664H8.27313H5.54815V17.7819V29.5472H2.7741H0V17.3194C0 9.05769 0.0302086 4.87723 0.109467 4.44846C0.456697 2.35425 2.15131 0.49428 4.05352 0.107199C4.34036 0.0436784 6.02556 0 7.79002 0H11V3.00931L10.9981 3.00733Z" fill="#6882A0"/>
</svg>
