<svg width="510" height="74" viewBox="0 0 510 74" fill="none" xmlns="http://www.w3.org/2000/svg">
<path d="M230.722 74H9.27798C4.16074 74 0 69.7973 0 64.5924V9.4076C0 4.21887 4.16074 0 9.27798 0H230.722C235.839 0 240 4.21887 240 9.4076V64.6086C240 69.7973 235.855 74 230.722 74Z" fill="black"/>
<path d="M78.6556 44.7103H82.0033V52.4045C81.0309 53.1965 79.8831 53.7946 78.5759 54.231C77.2687 54.6513 75.9296 54.8614 74.5427 54.8614C72.5978 54.8614 70.8442 54.4412 69.2979 53.5845C67.7356 52.7278 66.5081 51.5478 65.6313 50.0445C64.7386 48.5412 64.2922 46.8278 64.2922 44.9366C64.2922 43.0454 64.7386 41.3481 65.6313 39.8287C66.5241 38.3254 67.7516 37.1454 69.3138 36.2887C70.8761 35.432 72.6456 35.0117 74.6064 35.0117C76.2006 35.0117 77.6513 35.2865 78.9585 35.8199C80.2657 36.3534 81.3656 37.1292 82.2584 38.1638L80.0265 40.3783C78.5759 38.9073 76.8223 38.1638 74.7818 38.1638C73.4427 38.1638 72.2471 38.4547 71.2109 39.0205C70.1747 39.5862 69.3457 40.3944 68.7559 41.4289C68.166 42.4634 67.8791 43.6434 67.8791 44.9527C67.8791 46.2459 68.166 47.3935 68.7559 48.4281C69.3457 49.4626 70.1587 50.2708 71.2109 50.8527C72.2471 51.4346 73.4427 51.7417 74.7658 51.7417C76.2484 51.7417 77.5556 51.4184 78.6875 50.7557V44.7103H78.6556Z" fill="white"/>
<path d="M88.8901 53.8107C87.7104 53.1642 86.7858 52.2751 86.1322 51.1275C85.4626 49.9798 85.1438 48.6705 85.1438 47.2157C85.1438 45.7609 85.4786 44.4678 86.1322 43.3201C86.8017 42.1725 87.7104 41.2834 88.8901 40.6368C90.0697 39.9903 91.3929 39.667 92.8595 39.667C94.3421 39.667 95.6812 39.9903 96.8608 40.6368C98.0405 41.2834 98.9651 42.1725 99.6187 43.3201C100.288 44.4678 100.607 45.7609 100.607 47.2157C100.607 48.6705 100.272 49.9636 99.6187 51.1275C98.9492 52.2751 98.0405 53.1803 96.8608 53.8107C95.6812 54.4573 94.3421 54.7806 92.8595 54.7806C91.3929 54.7806 90.0697 54.4573 88.8901 53.8107ZM95.9681 50.5617C96.7811 49.7212 97.1956 48.6058 97.1956 47.2157C97.1956 45.8417 96.7811 44.7264 95.9681 43.8697C95.1551 43.0292 94.1189 42.5927 92.8595 42.5927C91.6001 42.5927 90.5799 43.013 89.7668 43.8697C88.9538 44.7102 88.5553 45.8256 88.5553 47.2157C88.5553 48.5897 88.9538 49.705 89.7668 50.5617C90.5799 51.4022 91.6001 51.8387 92.8595 51.8387C94.1189 51.8225 95.1392 51.4022 95.9681 50.5617Z" fill="white"/>
<path d="M106.442 53.8107C105.262 53.1642 104.337 52.2751 103.684 51.1275C103.014 49.9798 102.695 48.6705 102.695 47.2157C102.695 45.7609 103.03 44.4678 103.684 43.3201C104.353 42.1725 105.262 41.2834 106.442 40.6368C107.621 39.9903 108.945 39.667 110.411 39.667C111.894 39.667 113.233 39.9903 114.412 40.6368C115.592 41.2834 116.517 42.1725 117.17 43.3201C117.84 44.4678 118.159 45.7609 118.159 47.2157C118.159 48.6705 117.824 49.9636 117.17 51.1275C116.501 52.2751 115.592 53.1803 114.412 53.8107C113.233 54.4573 111.894 54.7806 110.411 54.7806C108.945 54.7806 107.621 54.4573 106.442 53.8107ZM113.52 50.5617C114.333 49.7212 114.747 48.6058 114.747 47.2157C114.747 45.8417 114.333 44.7264 113.52 43.8697C112.707 43.0292 111.671 42.5927 110.411 42.5927C109.152 42.5927 108.132 43.013 107.318 43.8697C106.505 44.7102 106.107 45.8256 106.107 47.2157C106.107 48.5897 106.505 49.705 107.318 50.5617C108.132 51.4022 109.152 51.8387 110.411 51.8387C111.671 51.8225 112.691 51.4022 113.52 50.5617Z" fill="white"/>
<path d="M135.854 39.8447V52.3397C135.854 57.5284 133.239 60.1147 128.011 60.1147C126.608 60.1147 125.285 59.9369 124.041 59.5813C122.782 59.2256 121.762 58.7084 120.933 58.0295L122.463 55.4432C123.101 55.9766 123.898 56.3969 124.87 56.7202C125.843 57.0435 126.831 57.2051 127.819 57.2051C129.413 57.2051 130.593 56.8333 131.326 56.1059C132.076 55.3624 132.442 54.2471 132.442 52.7438V51.9679C131.868 52.6145 131.151 53.0994 130.322 53.4227C129.493 53.746 128.569 53.9238 127.58 53.9238C126.209 53.9238 124.95 53.6328 123.834 53.0347C122.718 52.4367 121.841 51.5961 121.188 50.5131C120.55 49.4301 120.215 48.1855 120.215 46.7953C120.215 45.4052 120.534 44.1606 121.188 43.0775C121.825 41.9945 122.718 41.1702 123.834 40.5883C124.95 40.0063 126.193 39.6992 127.58 39.6992C128.632 39.6992 129.589 39.877 130.45 40.2165C131.311 40.5721 132.028 41.1055 132.618 41.8167V39.8609H135.854V39.8447ZM131.263 49.818C132.092 49.0422 132.506 48.0238 132.506 46.763C132.506 45.5345 132.092 44.5323 131.263 43.7565C130.434 42.9806 129.382 42.5926 128.09 42.5926C126.783 42.5926 125.715 42.9806 124.886 43.7565C124.057 44.5323 123.643 45.5345 123.643 46.763C123.643 48.0076 124.057 49.026 124.886 49.818C125.715 50.5939 126.783 50.998 128.09 50.998C129.382 50.998 130.45 50.6101 131.263 49.818Z" fill="white"/>
<path d="M140.318 34.1064H143.713V54.5866H140.318V34.1064Z" fill="white"/>
<path d="M161.791 48.3153H150.393C150.6 49.3983 151.11 50.255 151.955 50.9016C152.8 51.532 153.852 51.8553 155.095 51.8553C156.689 51.8553 158.013 51.3219 159.049 50.255L160.866 52.3725C160.213 53.1646 159.384 53.7627 158.395 54.1668C157.391 54.5709 156.275 54.781 155.016 54.781C153.421 54.781 152.019 54.4577 150.791 53.8112C149.58 53.1646 148.639 52.2756 147.969 51.1279C147.3 49.9802 146.981 48.6709 146.981 47.2161C146.981 45.7775 147.3 44.4844 147.954 43.3367C148.591 42.1891 149.484 41.2839 150.632 40.6534C151.779 40.0069 153.055 39.6836 154.49 39.6836C155.908 39.6836 157.168 40.0069 158.284 40.6373C159.4 41.2677 160.276 42.1567 160.898 43.3206C161.52 44.4682 161.839 45.7937 161.839 47.3131C161.839 47.5394 161.823 47.8789 161.791 48.3153ZM151.732 43.4175C150.982 44.0641 150.52 44.937 150.361 46.02H158.602C158.459 44.9531 158.013 44.0964 157.263 43.4337C156.514 42.771 155.59 42.4477 154.49 42.4477C153.406 42.4477 152.481 42.771 151.732 43.4175Z" fill="white"/>
<path d="M185.097 36.0949C186.325 36.6445 187.265 37.4365 187.919 38.471C188.573 39.5055 188.891 40.7179 188.891 42.1403C188.891 43.5304 188.573 44.7589 187.919 45.7934C187.265 46.828 186.325 47.6362 185.097 48.1858C183.87 48.7353 182.435 49.0101 180.777 49.0101H176.473V54.5868H172.934V35.2705H180.777C182.435 35.2705 183.87 35.5453 185.097 36.0949ZM184.125 44.9852C184.922 44.3225 185.32 43.3688 185.32 42.1403C185.32 40.9118 184.922 39.9581 184.125 39.2954C183.328 38.6327 182.164 38.3094 180.618 38.3094H176.489V45.9874H180.618C182.164 45.9713 183.328 45.648 184.125 44.9852Z" fill="white"/>
<path d="M192.367 34.1064H195.762V54.5866H192.367V34.1064Z" fill="white"/>
<path d="M210.699 41.2354C211.831 42.2699 212.405 43.8378 212.405 45.9392V54.5709H209.201V52.7766C208.786 53.4232 208.197 53.9081 207.415 54.2476C206.65 54.587 205.71 54.7649 204.626 54.7649C203.542 54.7649 202.585 54.5709 201.772 54.1991C200.959 53.8273 200.321 53.2939 199.875 52.6312C199.429 51.9523 199.206 51.2087 199.206 50.352C199.206 49.0265 199.684 47.9597 200.656 47.1676C201.629 46.3594 203.159 45.9715 205.247 45.9715H209.01V45.7452C209.01 44.7107 208.707 43.9186 208.101 43.369C207.495 42.8195 206.587 42.5447 205.391 42.5447C204.578 42.5447 203.765 42.674 202.984 42.9326C202.187 43.1912 201.533 43.5469 200.991 44.0156L199.652 41.5102C200.417 40.9282 201.326 40.4756 202.394 40.1524C203.462 39.8452 204.594 39.6836 205.789 39.6836C207.926 39.6836 209.568 40.2009 210.699 41.2354ZM207.591 51.6775C208.26 51.2895 208.723 50.7238 208.994 49.9802V48.2668H205.487C203.526 48.2668 202.553 48.9134 202.553 50.2227C202.553 50.8531 202.792 51.338 203.287 51.7098C203.781 52.0816 204.45 52.2594 205.327 52.2594C206.172 52.2594 206.937 52.0654 207.591 51.6775Z" fill="white"/>
<path d="M230.084 39.8447L223.277 55.7665C222.64 57.3668 221.874 58.4983 220.966 59.1449C220.057 59.7914 218.957 60.1309 217.666 60.1309C216.933 60.1309 216.231 60.0177 215.514 59.7753C214.812 59.5328 214.222 59.2095 213.776 58.7892L215.131 56.2515C215.45 56.5586 215.849 56.8172 216.295 56.995C216.741 57.1728 217.188 57.2698 217.634 57.2698C218.24 57.2698 218.734 57.1082 219.117 56.801C219.499 56.4939 219.866 55.9605 220.185 55.2331L220.424 54.6512L214.079 39.8609H217.618L222.193 50.7556L226.784 39.8609H230.084V39.8447Z" fill="white"/>
<path d="M57.7562 36.0623L48.6058 30.7119L41.0814 38.0828L47.9522 44.8233L57.7403 39.085C58.2823 38.7779 58.6011 38.196 58.6011 37.5656C58.6171 36.9352 58.2823 36.3694 57.7562 36.0623Z" fill="#FFD109"/>
<path d="M47.0594 29.8067L36.9844 23.9068L14.9372 12.4463L39.8539 36.8705L47.0594 29.8067Z" fill="#06EF79"/>
<path d="M15.3039 63.3473L37.0322 51.208L46.4059 45.7283L39.8539 39.2949L15.3039 63.3473Z" fill="#F93646"/>
<path d="M13.4706 13.4326L13.4387 62.7498L38.6104 38.0831L13.4706 13.4326Z" fill="#05D5FB"/>
<path d="M70.3819 24.5374C69.6167 24.5374 68.8994 24.3757 68.2298 24.0363C67.5603 23.6968 66.9864 23.2443 66.4922 22.6623C65.998 22.0966 65.6154 21.45 65.3444 20.7226C65.0734 20.0114 64.9299 19.2678 64.9299 18.492C64.9299 17.6837 65.0734 16.924 65.3444 16.2128C65.6154 15.5016 65.998 14.855 66.4922 14.3054C66.9864 13.7558 67.5603 13.3194 68.2139 12.9961C68.8834 12.6728 69.6008 12.5273 70.3819 12.5273C71.5138 12.5273 72.4384 12.7698 73.1877 13.2386C73.921 13.7235 74.4789 14.3377 74.8456 15.1136L73.7137 15.9218C73.379 15.2268 72.9007 14.7257 72.3109 14.3862C71.721 14.0468 71.0674 13.8851 70.3501 13.8851C69.7602 13.8851 69.2182 14.0145 68.74 14.2731C68.2617 14.5317 67.8472 14.8712 67.4965 15.3238C67.1458 15.7602 66.8907 16.2613 66.6994 16.8109C66.5241 17.3605 66.4284 17.9424 66.4284 18.5404C66.4284 19.1709 66.5241 19.7689 66.7313 20.3347C66.9386 20.9004 67.2255 21.3854 67.5922 21.8218C67.9588 22.2582 68.4052 22.5815 68.8994 22.824C69.3936 23.0664 69.9196 23.1958 70.4935 23.1958C71.1631 23.1958 71.8007 23.018 72.4065 22.6785C73.0123 22.3391 73.5862 21.8056 74.1123 21.0944V22.6462C73.0601 23.907 71.8167 24.5374 70.3819 24.5374ZM73.9369 19.6881H71.4181V18.5566H75.1804V24.4727H73.9369V19.6881Z" fill="white"/>
<path d="M85.367 23.1304V24.472H77.4281V12.6074H85.2076V13.9491H78.9107V17.78H84.3946V19.0246H78.9107V23.1142H85.367V23.1304Z" fill="white"/>
<path d="M95.8246 13.9491H91.7914V24.472H90.3088V13.9491H86.2756V12.6074H95.8246V13.9491Z" fill="white"/>
<path d="M101.181 24.4558V12.6074H102.664V24.4558H101.181Z" fill="white"/>
<path d="M106.936 15.3877V24.472H105.453V12.6074H106.697L113.839 21.8695V12.6236H115.321V24.4558H113.982L106.936 15.3877Z" fill="white"/>
<path d="M127.038 24.537C126.209 24.537 125.476 24.3753 124.806 24.0359C124.137 23.6964 123.563 23.2438 123.069 22.6781C122.575 22.1123 122.208 21.4657 121.937 20.7384C121.666 20.0271 121.538 19.2836 121.538 18.5238C121.538 17.7318 121.682 16.9721 121.953 16.2609C122.24 15.5496 122.622 14.9031 123.117 14.3373C123.611 13.7716 124.201 13.3351 124.87 12.9957C125.54 12.6724 126.273 12.5107 127.054 12.5107C127.883 12.5107 128.616 12.6885 129.286 13.028C129.956 13.3674 130.529 13.8362 131.008 14.4181C131.486 15 131.869 15.6466 132.124 16.3578C132.395 17.0691 132.522 17.7965 132.522 18.54C132.522 19.3321 132.379 20.0918 132.108 20.803C131.837 21.5142 131.454 22.1608 130.944 22.7266C130.45 23.2923 129.86 23.7287 129.19 24.052C128.553 24.3915 127.819 24.537 127.038 24.537ZM123.037 18.54C123.037 19.1381 123.133 19.72 123.324 20.2858C123.515 20.8515 123.786 21.3526 124.137 21.7729C124.488 22.2093 124.918 22.5488 125.412 22.8074C125.906 23.066 126.448 23.1953 127.054 23.1953C127.676 23.1953 128.234 23.066 128.728 22.7912C129.222 22.5164 129.637 22.1608 129.987 21.7244C130.338 21.2718 130.593 20.7707 130.784 20.2211C130.96 19.6715 131.055 19.1058 131.055 18.54C131.055 17.9419 130.96 17.36 130.769 16.8104C130.577 16.2609 130.306 15.7598 129.94 15.3233C129.589 14.8869 129.158 14.5313 128.664 14.2888C128.17 14.0463 127.628 13.917 127.038 13.917C126.417 13.917 125.859 14.0463 125.364 14.305C124.87 14.5636 124.456 14.9192 124.105 15.3718C123.754 15.8244 123.499 16.3093 123.308 16.8589C123.133 17.3924 123.037 17.9581 123.037 18.54Z" fill="white"/>
<path d="M136.093 15.3877V24.472H134.61V12.6074H135.854L142.996 21.8695V12.6236H144.478V24.4558H143.123L136.093 15.3877Z" fill="white"/>
<path d="M500.722 74H279.278C274.161 74 270 69.7973 270 64.5924V9.4076C270 4.21887 274.161 0 279.278 0H500.722C505.839 0 510 4.21887 510 9.4076V64.6086C510 69.7973 505.855 74 500.722 74Z" fill="black"/>
<path d="M291.808 30.2272C287.918 37.0808 290.389 47.4745 294.693 53.7785C296.846 56.9305 299.014 59.7593 301.995 59.7593C302.058 59.7593 302.106 59.7593 302.17 59.7593C303.573 59.7108 304.577 59.2582 305.566 58.8379C306.666 58.3692 307.797 57.8681 309.583 57.8681C311.273 57.8681 312.357 58.3368 313.409 58.8056C314.445 59.2582 315.497 59.727 317.075 59.6946C320.439 59.63 322.496 56.5749 324.313 53.8917C326.21 51.0791 327.166 48.3473 327.485 47.3128L327.501 47.2643C327.565 47.0865 327.469 46.8764 327.294 46.7956C327.294 46.7956 327.278 46.7794 327.262 46.7794C326.672 46.5369 321.491 44.2093 321.427 37.8405C321.38 32.668 325.317 29.9362 326.114 29.4513L326.146 29.4351C326.226 29.3866 326.29 29.2897 326.306 29.1927C326.321 29.0957 326.306 28.9825 326.242 28.9017C323.516 24.8606 319.355 24.2626 317.681 24.1817C317.442 24.1494 317.187 24.1494 316.932 24.1494C314.955 24.1494 313.074 24.9091 311.56 25.5072C310.507 25.9275 309.615 26.2831 308.977 26.2831C308.276 26.2831 307.367 25.9113 306.315 25.4911C304.912 24.9253 303.302 24.2787 301.612 24.2787C301.564 24.2787 301.532 24.2787 301.501 24.2787C297.579 24.3434 293.865 26.6226 291.808 30.2272Z" fill="white"/>
<path d="M317.681 13.0605C315.306 13.1575 312.452 14.6446 310.747 16.6652C309.296 18.3624 307.877 21.2073 308.26 24.0684C308.276 24.2462 308.435 24.3917 308.61 24.4079C308.77 24.424 308.929 24.424 309.105 24.424C311.432 24.424 313.935 23.1147 315.657 21.0134C317.458 18.7989 318.367 15.9378 318.096 13.4C318.064 13.206 317.888 13.0605 317.681 13.0605Z" fill="white"/>
<path d="M345.069 16.875H349.58C350.76 16.875 351.812 17.1175 352.737 17.6186C353.661 18.1197 354.363 18.7986 354.873 19.6714C355.383 20.5443 355.638 21.5465 355.638 22.6456C355.638 23.761 355.383 24.747 354.873 25.6199C354.363 26.4927 353.645 27.1878 352.737 27.6727C351.812 28.1738 350.76 28.4163 349.58 28.4163H345.069V16.875ZM349.516 27.6889C350.569 27.6889 351.493 27.4788 352.306 27.0585C353.103 26.6382 353.725 26.0401 354.171 25.2804C354.602 24.5207 354.825 23.6478 354.825 22.678C354.825 21.692 354.602 20.8353 354.171 20.0755C353.741 19.3158 353.119 18.7177 352.306 18.2975C351.509 17.8772 350.569 17.6671 349.516 17.6671H345.898V27.7051H349.516V27.6889Z" fill="white"/>
<path d="M359.416 27.9473C358.763 27.5756 358.268 27.0583 357.886 26.3794C357.519 25.7167 357.328 24.957 357.328 24.1164C357.328 23.2759 357.519 22.5323 357.886 21.8534C358.252 21.1907 358.763 20.6734 359.416 20.2855C360.07 19.9137 360.787 19.7197 361.584 19.7197C362.381 19.7197 363.115 19.9137 363.752 20.2855C364.406 20.6573 364.9 21.1745 365.283 21.8534C365.649 22.5161 365.841 23.2759 365.841 24.1164C365.841 24.957 365.649 25.7005 365.283 26.3794C364.916 27.0421 364.406 27.5594 363.752 27.9473C363.099 28.3191 362.381 28.5131 361.584 28.5131C360.787 28.5131 360.07 28.3191 359.416 27.9473ZM363.354 27.3008C363.864 26.9936 364.278 26.5572 364.581 26.0076C364.884 25.458 365.028 24.8276 365.028 24.1164C365.028 23.4052 364.884 22.7909 364.581 22.2252C364.278 21.6756 363.88 21.2392 363.354 20.932C362.844 20.6249 362.254 20.4633 361.6 20.4633C360.946 20.4633 360.357 20.6249 359.847 20.932C359.336 21.2392 358.922 21.6756 358.619 22.2252C358.316 22.7748 358.173 23.4052 358.173 24.1164C358.173 24.8276 358.316 25.4419 358.619 26.0076C358.922 26.5572 359.32 26.9936 359.847 27.3008C360.357 27.6079 360.946 27.7695 361.6 27.7695C362.254 27.7695 362.828 27.6079 363.354 27.3008Z" fill="white"/>
<path d="M380.284 19.8174L377.063 28.4491H376.298L373.429 20.9651L370.543 28.4491H369.794L366.574 19.8174H367.355L370.193 27.5116L373.094 19.8174H373.795L376.681 27.4954L379.55 19.8174H380.284Z" fill="white"/>
<path d="M388.86 20.6896C389.482 21.32 389.785 22.2252 389.785 23.4052V28.4484H388.972V23.4698C388.972 22.5 388.733 21.7564 388.254 21.2553C387.776 20.7542 387.091 20.4956 386.23 20.4956C385.225 20.4956 384.444 20.8027 383.87 21.4008C383.297 21.9989 383.01 22.8233 383.01 23.8416V28.4323H382.197V19.8005H382.978V21.6594C383.265 21.0614 383.711 20.5764 384.285 20.237C384.859 19.8975 385.56 19.7197 386.341 19.7197C387.394 19.7521 388.238 20.0592 388.86 20.6896Z" fill="white"/>
<path d="M393.133 16.1807H393.946V28.4332H393.133V16.1807Z" fill="white"/>
<path d="M398.537 27.9473C397.883 27.5756 397.389 27.0583 397.006 26.3794C396.64 25.7167 396.448 24.957 396.448 24.1164C396.448 23.2759 396.64 22.5323 397.006 21.8534C397.373 21.1907 397.883 20.6734 398.537 20.2855C399.19 19.9137 399.908 19.7197 400.705 19.7197C401.502 19.7197 402.235 19.9137 402.873 20.2855C403.526 20.6573 404.021 21.1745 404.403 21.8534C404.77 22.5161 404.961 23.2759 404.961 24.1164C404.961 24.957 404.77 25.7005 404.403 26.3794C404.037 27.0421 403.526 27.5594 402.873 27.9473C402.219 28.3191 401.502 28.5131 400.705 28.5131C399.908 28.5131 399.19 28.3191 398.537 27.9473ZM402.474 27.3008C402.984 26.9936 403.399 26.5572 403.702 26.0076C404.005 25.458 404.148 24.8276 404.148 24.1164C404.148 23.4052 404.005 22.7909 403.702 22.2252C403.399 21.6756 403 21.2392 402.474 20.932C401.964 20.6249 401.374 20.4633 400.721 20.4633C400.067 20.4633 399.477 20.6249 398.967 20.932C398.457 21.2392 398.043 21.6756 397.74 22.2252C397.437 22.7748 397.293 23.4052 397.293 24.1164C397.293 24.8276 397.437 25.4419 397.74 26.0076C398.043 26.5572 398.441 26.9936 398.967 27.3008C399.477 27.6079 400.067 27.7695 400.721 27.7695C401.374 27.7695 401.948 27.6079 402.474 27.3008Z" fill="white"/>
<path d="M412.757 20.5773C413.314 21.1269 413.601 21.9189 413.601 22.9858V28.4493H412.82V26.9137C412.549 27.4148 412.151 27.8189 411.625 28.0937C411.099 28.3685 410.477 28.514 409.744 28.514C408.803 28.514 408.054 28.2877 407.496 27.8351C406.954 27.3825 406.667 26.7844 406.667 26.057C406.667 25.3458 406.922 24.7638 407.432 24.3112C407.942 23.8586 408.739 23.6485 409.855 23.6485H412.772V22.9535C412.772 22.1452 412.565 21.531 412.135 21.1269C411.704 20.7066 411.083 20.4965 410.254 20.4965C409.696 20.4965 409.154 20.5935 408.628 20.7874C408.118 20.9814 407.671 21.2562 407.32 21.5795L406.906 20.9814C407.336 20.5935 407.847 20.3025 408.436 20.0762C409.026 19.8661 409.664 19.7529 410.317 19.7529C411.386 19.7529 412.199 20.0277 412.757 20.5773ZM411.673 27.334C412.167 27.0107 412.533 26.5258 412.788 25.8953V24.2789H409.887C409.058 24.2789 408.452 24.4406 408.07 24.7477C407.687 25.0548 407.512 25.4751 407.512 26.0247C407.512 26.5904 407.719 27.0268 408.133 27.3501C408.548 27.6734 409.122 27.8351 409.871 27.8351C410.573 27.8351 411.178 27.6734 411.673 27.334Z" fill="white"/>
<path d="M424.537 16.1802V28.4327H423.74V26.396C423.405 27.0749 422.927 27.5922 422.321 27.9478C421.716 28.3034 421.03 28.4974 420.249 28.4974C419.452 28.4974 418.735 28.3034 418.097 27.9316C417.459 27.5599 416.949 27.0426 416.582 26.3799C416.216 25.7171 416.04 24.9574 416.04 24.1169C416.04 23.2763 416.216 22.5166 416.582 21.8377C416.949 21.175 417.443 20.6577 418.097 20.2859C418.735 19.9142 419.452 19.7364 420.249 19.7364C421.014 19.7364 421.684 19.9142 422.29 20.2859C422.895 20.6416 423.374 21.1588 423.708 21.8054V16.1641H424.537V16.1802ZM422.05 27.3012C422.561 26.9941 422.975 26.5577 423.278 26.0081C423.581 25.4585 423.724 24.8281 423.724 24.1169C423.724 23.4057 423.581 22.7914 423.278 22.2257C422.975 21.6761 422.577 21.2396 422.05 20.9325C421.54 20.6254 420.95 20.4638 420.297 20.4638C419.643 20.4638 419.053 20.6254 418.543 20.9325C418.033 21.2396 417.619 21.6761 417.316 22.2257C417.013 22.7752 416.869 23.4057 416.869 24.1169C416.869 24.8281 417.013 25.4423 417.316 26.0081C417.619 26.5577 418.017 26.9941 418.543 27.3012C419.053 27.6084 419.643 27.77 420.297 27.77C420.95 27.77 421.54 27.6084 422.05 27.3012Z" fill="white"/>
<path d="M433.305 27.9473C432.652 27.5756 432.157 27.0583 431.775 26.3794C431.408 25.7167 431.217 24.957 431.217 24.1164C431.217 23.2759 431.408 22.5323 431.775 21.8534C432.141 21.1907 432.652 20.6734 433.305 20.2855C433.959 19.9137 434.676 19.7197 435.473 19.7197C436.27 19.7197 437.004 19.9137 437.641 20.2855C438.295 20.6573 438.789 21.1745 439.172 21.8534C439.538 22.5161 439.73 23.2759 439.73 24.1164C439.73 24.957 439.538 25.7005 439.172 26.3794C438.805 27.0421 438.295 27.5594 437.641 27.9473C436.988 28.3191 436.27 28.5131 435.473 28.5131C434.676 28.5131 433.959 28.3191 433.305 27.9473ZM437.243 27.3008C437.753 26.9936 438.167 26.5572 438.47 26.0076C438.773 25.458 438.917 24.8276 438.917 24.1164C438.917 23.4052 438.773 22.7909 438.47 22.2252C438.167 21.6756 437.769 21.2392 437.243 20.932C436.733 20.6249 436.143 20.4633 435.489 20.4633C434.836 20.4633 434.246 20.6249 433.736 20.932C433.225 21.2392 432.811 21.6756 432.508 22.2252C432.205 22.7748 432.062 23.4052 432.062 24.1164C432.062 24.8276 432.205 25.4419 432.508 26.0076C432.811 26.5572 433.21 26.9936 433.736 27.3008C434.246 27.6079 434.836 27.7695 435.489 27.7695C436.143 27.7695 436.717 27.6079 437.243 27.3008Z" fill="white"/>
<path d="M448.944 20.6896C449.566 21.32 449.868 22.2252 449.868 23.4052V28.4484H449.055V23.4698C449.055 22.5 448.816 21.7564 448.338 21.2553C447.86 20.7542 447.174 20.4956 446.313 20.4956C445.309 20.4956 444.528 20.8027 443.954 21.4008C443.38 21.9989 443.093 22.8233 443.093 23.8416V28.4323H442.28V19.8005H443.061V21.6594C443.348 21.0614 443.795 20.5764 444.369 20.237C444.943 19.8975 445.644 19.7197 446.425 19.7197C447.477 19.7521 448.322 20.0592 448.944 20.6896Z" fill="white"/>
<path d="M461.633 27.8991C461.426 28.0931 461.171 28.2547 460.852 28.3517C460.549 28.4487 460.215 28.5134 459.88 28.5134C459.146 28.5134 458.573 28.3032 458.174 27.8991C457.775 27.4789 457.568 26.9131 457.568 26.1696V20.5282H456.006V19.817H457.568V17.9258H458.381V19.817H461.091V20.5282H458.381V26.0726C458.381 26.6383 458.509 27.0586 458.78 27.3496C459.051 27.6405 459.433 27.786 459.959 27.786C460.486 27.786 460.932 27.6243 461.283 27.3011L461.633 27.8991Z" fill="white"/>
<path d="M470.577 20.6905C471.198 21.3209 471.501 22.2261 471.501 23.4061V28.4493H470.688V23.4708C470.688 22.5009 470.449 21.7573 469.971 21.2562C469.493 20.7552 468.807 20.4965 467.946 20.4965C466.942 20.4965 466.161 20.8036 465.587 21.4017C465.013 21.9998 464.726 22.8242 464.726 23.8425V28.4332H463.913V16.1807H464.726V21.6119C465.013 21.0138 465.459 20.5612 466.033 20.2379C466.607 19.9146 467.293 19.753 468.074 19.753C469.126 19.753 469.971 20.0601 470.577 20.6905Z" fill="white"/>
<path d="M482.07 24.3265H474.753C474.769 25.0054 474.944 25.6035 475.263 26.1208C475.582 26.638 476.013 27.0421 476.539 27.3331C477.081 27.624 477.686 27.7695 478.356 27.7695C478.914 27.7695 479.424 27.6725 479.902 27.4624C480.381 27.2523 480.763 26.9613 481.082 26.5572L481.56 27.1068C481.194 27.5594 480.731 27.8988 480.173 28.1413C479.615 28.3838 479.01 28.4969 478.356 28.4969C477.511 28.4969 476.746 28.3029 476.092 27.9312C475.423 27.5594 474.913 27.0421 474.53 26.3794C474.147 25.7167 473.972 24.957 473.972 24.1164C473.972 23.2759 474.147 22.5323 474.498 21.8534C474.849 21.1907 475.343 20.6734 475.949 20.2855C476.571 19.9137 477.256 19.7197 478.037 19.7197C478.802 19.7197 479.504 19.8975 480.11 20.2693C480.715 20.6411 481.21 21.1583 481.56 21.8211C481.911 22.4838 482.086 23.2274 482.086 24.0679L482.07 24.3265ZM476.411 20.8836C475.933 21.1583 475.55 21.5301 475.263 22.0312C474.976 22.5161 474.817 23.0819 474.769 23.6961H481.289C481.257 23.0819 481.098 22.5323 480.795 22.0474C480.508 21.5624 480.11 21.1907 479.631 20.8997C479.153 20.6249 478.611 20.4794 478.021 20.4794C477.431 20.4794 476.889 20.6088 476.411 20.8836Z" fill="white"/>
<path d="M357.136 54.005H347.396L345.467 58.5794H341.737L350.505 38.8105H354.076L362.875 58.5794H359.081L357.136 54.005ZM355.941 51.1277L352.258 42.496L348.608 51.1277H355.941Z" fill="white"/>
<path d="M377.143 44.2902C378.291 44.9367 379.184 45.8258 379.837 47.0058C380.491 48.1696 380.81 49.5112 380.81 51.0468C380.81 52.5663 380.491 53.9241 379.837 55.1041C379.184 56.284 378.291 57.1892 377.143 57.8358C375.995 58.4824 374.704 58.7895 373.253 58.7895C371.245 58.7895 369.667 58.1106 368.487 56.7528V64.0591H365.012V43.4981H368.327V45.4702C368.901 44.7589 369.619 44.2255 370.464 43.8537C371.309 43.4981 372.233 43.3203 373.269 43.3203C374.704 43.3365 375.995 43.6598 377.143 44.2902ZM376.027 54.4575C376.856 53.5846 377.271 52.4531 377.271 51.0468C377.271 49.6405 376.856 48.4929 376.027 47.6362C375.198 46.7633 374.146 46.343 372.871 46.343C372.042 46.343 371.277 46.537 370.623 46.9249C369.953 47.3129 369.427 47.8625 369.029 48.5737C368.646 49.2849 368.439 50.1093 368.439 51.063C368.439 52.0005 368.63 52.8249 369.029 53.5523C369.411 54.2635 369.953 54.8131 370.623 55.201C371.293 55.589 372.042 55.783 372.871 55.783C374.146 55.7668 375.198 55.3304 376.027 54.4575Z" fill="white"/>
<path d="M396.241 44.2902C397.389 44.9367 398.282 45.8258 398.935 47.0058C399.589 48.1696 399.908 49.5112 399.908 51.0468C399.908 52.5663 399.589 53.9241 398.935 55.1041C398.282 56.284 397.389 57.1892 396.241 57.8358C395.093 58.4824 393.802 58.7895 392.351 58.7895C390.343 58.7895 388.764 58.1106 387.585 56.7528V64.0591H384.11V43.4981H387.425V45.4702C387.999 44.7589 388.717 44.2255 389.562 43.8537C390.406 43.4981 391.331 43.3203 392.367 43.3203C393.802 43.3365 395.109 43.6598 396.241 44.2902ZM395.125 54.4575C395.954 53.5846 396.369 52.4531 396.369 51.0468C396.369 49.6405 395.954 48.4929 395.125 47.6362C394.296 46.7633 393.244 46.343 391.969 46.343C391.14 46.343 390.375 46.537 389.721 46.9249C389.051 47.3129 388.525 47.8625 388.127 48.5737C387.744 49.2849 387.537 50.1093 387.537 51.063C387.537 52.0005 387.728 52.8249 388.127 53.5523C388.509 54.2635 389.051 54.8131 389.721 55.201C390.391 55.589 391.14 55.783 391.969 55.783C393.244 55.7668 394.312 55.3304 395.125 54.4575Z" fill="white"/>
<path d="M412.916 58.2075C411.513 57.7711 410.413 57.2053 409.584 56.4779L410.844 53.633C411.641 54.2796 412.613 54.7968 413.777 55.201C414.941 55.6051 416.104 55.8152 417.268 55.8152C418.719 55.8152 419.803 55.5727 420.504 55.104C421.221 54.6352 421.572 54.0048 421.572 53.2451C421.572 52.6793 421.365 52.2106 420.966 51.8549C420.568 51.4832 420.058 51.2084 419.452 50.9982C418.846 50.7881 418.001 50.5618 416.949 50.287C415.467 49.9314 414.255 49.5758 413.346 49.2202C412.422 48.8646 411.641 48.2988 410.987 47.5391C410.333 46.7794 409.999 45.7449 409.999 44.4517C409.999 43.3525 410.286 42.3665 410.875 41.4775C411.465 40.5885 412.342 39.8772 413.522 39.3438C414.701 38.8104 416.136 38.5518 417.858 38.5518C419.053 38.5518 420.217 38.6972 421.365 39.0044C422.513 39.3115 423.501 39.7317 424.346 40.2975L423.198 43.1424C422.337 42.6413 421.461 42.2534 420.52 41.9786C419.595 41.72 418.687 41.5906 417.826 41.5906C416.391 41.5906 415.339 41.8331 414.638 42.318C413.936 42.803 413.601 43.4495 413.601 44.2739C413.601 44.8397 413.793 45.2923 414.207 45.664C414.606 46.0196 415.116 46.3106 415.722 46.5046C416.327 46.7147 417.172 46.941 418.224 47.2158C419.675 47.5552 420.855 47.9109 421.795 48.2665C422.72 48.6383 423.517 49.1878 424.171 49.9476C424.824 50.7073 425.159 51.7095 425.159 53.0026C425.159 54.1018 424.872 55.0878 424.282 55.9607C423.692 56.8497 422.816 57.5448 421.62 58.0782C420.424 58.6116 418.99 58.8702 417.284 58.8702C415.769 58.8702 414.319 58.6439 412.916 58.2075Z" fill="white"/>
<path d="M437.354 57.7708C436.94 58.1103 436.446 58.3689 435.872 58.5306C435.282 58.6922 434.676 58.7892 434.023 58.7892C432.397 58.7892 431.121 58.3528 430.228 57.4961C429.336 56.6232 428.889 55.3624 428.889 53.7136V46.4559H426.434V43.611H428.889V40.168H432.365V43.611H436.35V46.4397H432.365V53.6166C432.365 54.344 432.54 54.9098 432.891 55.2977C433.241 55.6857 433.752 55.8796 434.421 55.8796C435.202 55.8796 435.856 55.6695 436.366 55.2654L437.354 57.7708Z" fill="white"/>
<path d="M442.344 57.7872C441.132 57.1245 440.192 56.2031 439.522 55.0393C438.837 53.8593 438.502 52.5338 438.502 51.0467C438.502 49.5596 438.837 48.2341 439.522 47.0703C440.192 45.9065 441.148 44.9851 442.344 44.3386C443.556 43.6758 444.911 43.3525 446.409 43.3525C447.924 43.3525 449.295 43.6758 450.506 44.3386C451.718 45.0013 452.658 45.9065 453.328 47.0703C453.997 48.2341 454.348 49.5596 454.348 51.0467C454.348 52.5338 454.013 53.8593 453.328 55.0393C452.642 56.2193 451.702 57.1407 450.506 57.7872C449.295 58.45 447.94 58.7732 446.409 58.7732C444.895 58.7732 443.54 58.45 442.344 57.7872ZM449.582 54.4574C450.41 53.5845 450.841 52.453 450.841 51.0467C450.841 49.6404 450.426 48.4928 449.582 47.6361C448.753 46.7632 447.684 46.3429 446.409 46.3429C445.134 46.3429 444.082 46.7794 443.253 47.6361C442.424 48.5089 442.009 49.6404 442.009 51.0467C442.009 52.453 442.424 53.6007 443.253 54.4574C444.082 55.3303 445.134 55.7505 446.409 55.7505C447.684 55.7667 448.753 55.3303 449.582 54.4574Z" fill="white"/>
<path d="M466.288 43.3359V46.6981C465.985 46.6496 465.714 46.6173 465.475 46.6173C464.12 46.6173 463.068 47.0214 462.303 47.8134C461.538 48.6217 461.155 49.7693 461.155 51.2726V58.5788H457.68V43.4976H460.996V45.7121C462 44.128 463.769 43.3359 466.288 43.3359Z" fill="white"/>
<path d="M483.027 52.1782H471.358C471.565 53.2936 472.091 54.1664 472.952 54.813C473.813 55.4596 474.881 55.7829 476.172 55.7829C477.798 55.7829 479.153 55.2333 480.205 54.1503L482.07 56.3163C481.401 57.1245 480.556 57.7387 479.536 58.159C478.515 58.5793 477.368 58.7732 476.076 58.7732C474.45 58.7732 473 58.45 471.756 57.7872C470.513 57.1245 469.556 56.2031 468.871 55.0393C468.185 53.8593 467.851 52.5338 467.851 51.0467C467.851 49.5758 468.185 48.2503 468.839 47.0865C469.493 45.9065 470.417 44.9851 471.581 44.3386C472.745 43.6758 474.068 43.3525 475.534 43.3525C476.985 43.3525 478.276 43.6758 479.424 44.3224C480.572 44.969 481.465 45.8903 482.102 47.0541C482.74 48.2341 483.059 49.5919 483.059 51.1275C483.075 51.37 483.059 51.7256 483.027 52.1782ZM472.729 47.1673C471.963 47.83 471.485 48.7191 471.326 49.8344H479.759C479.615 48.7352 479.153 47.8624 478.388 47.1835C477.623 46.5046 476.682 46.1651 475.55 46.1651C474.45 46.1651 473.51 46.4884 472.729 47.1673Z" fill="white"/>
</svg>
