<svg width="66" height="66" viewBox="0 0 66 66" fill="none" xmlns="http://www.w3.org/2000/svg">
<circle cx="33" cy="33" r="33" fill="#252947"/>
<g clip-path="url(#clip0_1_413)">
<path d="M21.0051 37.6535C21.0051 40.8088 23.5629 43.3666 26.7182 43.3666C29.8735 43.3666 32.4313 40.8088 32.4313 37.6535C32.4313 34.4981 29.8735 31.9404 26.7182 31.9404C26.0697 31.9404 25.449 32.0535 24.8679 32.2527C26.1536 24.8789 31.9037 20.1237 26.5733 24.0374C20.6628 28.3772 20.9988 37.4789 21.0054 37.6457C21.0054 37.6483 21.0051 37.6506 21.0051 37.6535Z" fill="white"/>
<path d="M33.5738 37.6535C33.5738 40.8088 36.1316 43.3666 39.2869 43.3666C42.4423 43.3666 45 40.8088 45 37.6535C45 34.4981 42.4422 31.9404 39.2869 31.9404C38.6384 31.9404 38.0177 32.0535 37.4366 32.2527C38.7223 24.8789 44.4724 20.1237 39.1421 24.0374C33.2315 28.3772 33.5674 37.4789 33.5741 37.6457C33.5741 37.6483 33.5738 37.6506 33.5738 37.6535Z" fill="white"/>
</g>
<defs>
<clipPath id="clip0_1_413">
<rect width="24" height="24" fill="white" transform="translate(21 21)"/>
</clipPath>
</defs>
</svg>
