<svg width="100" height="100" viewBox="0 0 100 100" fill="none" xmlns="http://www.w3.org/2000/svg">
<circle opacity="0.1" cx="50" cy="50" r="50" fill="#6882A0"/>
<g clip-path="url(#clip0_130_1110)">
<path d="M65.3672 38.9376C65.3672 38.8321 65.3749 38.7275 65.3749 38.621C65.3749 34.3697 61.7729 30.6841 57.3296 30.6841C54.0829 30.6841 51.284 32.766 50.013 35.4183C48.742 32.766 45.945 30.6841 42.6964 30.6841C38.2531 30.6841 34.6511 34.3697 34.6511 38.621C34.6511 38.7275 34.6511 38.8321 34.6588 38.9376C34.6588 38.9376 34.2052 43.9884 39.8507 49.5021C42.4185 52.0632 45.289 54.4968 50.0149 58.3203C54.7399 54.4968 57.6113 52.0632 60.1782 49.5021C65.8218 43.9884 65.3672 38.9376 65.3672 38.9376Z" fill="#252947" stroke="#272726" stroke-width="2" stroke-linecap="round" stroke-linejoin="round"/>
<path d="M30.3921 58.6139C30.3921 58.6139 28.7486 55.3408 27.6915 54.4643C26.6344 53.5878 27.1043 52.3605 29.0418 52.6581C30.9793 52.9557 33.6197 56.3932 34.9117 57.9703C36.2037 59.5474 37.6705 59.6653 37.6705 59.6653C42.4241 60.3669 43.8202 60.7015 46.4224 64.7921C49.7646 70.0502 47.2446 72.5057 43.7228 72.2718C40.2011 72.038 38.3227 70.285 38.3227 70.285C38.3227 70.285 33.3266 67.1478 31.39 66.2685C29.4534 65.3892 25.1715 56.4512 24.1698 54.0556C23.1681 51.6599 23.9349 43.1288 25.3434 43.1868C26.7519 43.2448 27.5158 44.0633 27.5158 47.1605C27.5158 50.2577 27.809 51.7179 27.809 51.7179" stroke="#272726" stroke-width="2" stroke-linecap="round" stroke-linejoin="round"/>
<path d="M69.6079 58.6139C69.6079 58.6139 71.2523 55.3408 72.3085 54.4643C73.3646 53.5878 72.8957 52.3605 70.9582 52.6581C69.0207 52.9557 66.3803 56.3932 65.0873 57.9703C63.7944 59.5474 62.3285 59.6653 62.3285 59.6653C57.5749 60.3669 56.1788 60.7015 53.5767 64.7921C50.2344 70.0502 52.7545 72.5057 56.2762 72.2718C59.798 72.038 61.6763 70.285 61.6763 70.285C61.6763 70.285 66.6725 67.1478 68.6091 66.2685C70.5457 65.3892 74.8314 56.4512 75.8293 54.0556C76.8272 51.6599 76.069 43.1288 74.6566 43.1868C73.2443 43.2448 72.4842 44.0633 72.4842 47.1605C72.4842 50.2577 72.191 51.7179 72.191 51.7179" stroke="#272726" stroke-width="2" stroke-linecap="round" stroke-linejoin="round"/>
</g>
<defs>
<clipPath id="clip0_130_1110">
<rect width="54" height="45" fill="white" transform="translate(23 28)"/>
</clipPath>
</defs>
</svg>
