<svg width="100" height="100" viewBox="0 0 100 100" fill="none" xmlns="http://www.w3.org/2000/svg">
<circle opacity="0.1" cx="50" cy="50" r="50" fill="#6882A0"/>
<path d="M42.5 35.9375C36.7065 35.9375 31.7708 40.2694 31.7708 45.8954C31.7708 49.7766 33.5882 53.0441 35.9969 55.7509C38.3972 58.4483 41.4941 60.7125 44.2937 62.6076L49.1241 65.8773C49.6531 66.2354 50.3468 66.2354 50.8759 65.8773L55.7063 62.6076C58.5059 60.7125 61.6028 58.4483 64.0031 55.7509C66.4118 53.0441 68.2292 49.7766 68.2292 45.8954C68.2292 40.2694 63.2934 35.9375 57.5 35.9375C54.5136 35.9375 51.8857 37.3378 50 39.1497C48.1143 37.3378 45.4864 35.9375 42.5 35.9375Z" fill="#252947" stroke="black" stroke-linecap="round" stroke-linejoin="round"/>
</svg>
