<svg width="584" height="96" viewBox="0 0 584 96" fill="none" xmlns="http://www.w3.org/2000/svg">
<path d="M1.936 17V1.49H3.762V15.416H11.594V17H1.936ZM18.1509 17.198C17.0949 17.198 16.1709 16.9707 15.3789 16.516C14.6015 16.0467 14.0002 15.3867 13.5749 14.536C13.1495 13.6707 12.9369 12.6513 12.9369 11.478C12.9369 10.29 13.1495 9.27067 13.5749 8.42C14.0002 7.56933 14.6015 6.91667 15.3789 6.462C16.1709 5.99267 17.0949 5.758 18.1509 5.758C19.2215 5.758 20.1455 5.99267 20.9229 6.462C21.7149 6.91667 22.3235 7.56933 22.7489 8.42C23.1889 9.27067 23.4089 10.29 23.4089 11.478C23.4089 12.6513 23.1889 13.6707 22.7489 14.536C22.3235 15.3867 21.7149 16.0467 20.9229 16.516C20.1455 16.9707 19.2215 17.198 18.1509 17.198ZM18.1509 15.746C19.2069 15.746 20.0429 15.3867 20.6589 14.668C21.2749 13.9347 21.5829 12.8713 21.5829 11.478C21.5829 10.07 21.2675 9.00667 20.6369 8.288C20.0209 7.55467 19.1922 7.188 18.1509 7.188C17.1095 7.188 16.2809 7.55467 15.6649 8.288C15.0489 9.00667 14.7409 10.07 14.7409 11.478C14.7409 12.8713 15.0489 13.9347 15.6649 14.668C16.2809 15.3867 17.1095 15.746 18.1509 15.746ZM26.1432 17V8.618C26.1432 8.178 26.1286 7.73067 26.0992 7.276C26.0846 6.82133 26.0552 6.38133 26.0112 5.956H27.7272L27.9472 8.64L27.6392 8.662C27.7859 8.002 28.0426 7.45933 28.4092 7.034C28.7759 6.60867 29.2086 6.29333 29.7072 6.088C30.2059 5.868 30.7266 5.758 31.2692 5.758C31.4892 5.758 31.6799 5.76533 31.8412 5.78C32.0172 5.79467 32.1786 5.83133 32.3252 5.89L32.3032 7.474C32.0832 7.40067 31.8779 7.35667 31.6872 7.342C31.5112 7.31267 31.3059 7.298 31.0712 7.298C30.4259 7.298 29.8612 7.452 29.3772 7.76C28.9079 8.068 28.5486 8.464 28.2992 8.948C28.0646 9.432 27.9472 9.94533 27.9472 10.488V17H26.1432ZM38.9565 17.198C37.2258 17.198 35.8618 16.6993 34.8645 15.702C33.8672 14.69 33.3685 13.2893 33.3685 11.5C33.3685 10.3413 33.5885 9.33667 34.0285 8.486C34.4685 7.62067 35.0845 6.95333 35.8765 6.484C36.6685 6 37.5778 5.758 38.6045 5.758C39.6165 5.758 40.4672 5.97067 41.1565 6.396C41.8458 6.82133 42.3738 7.43 42.7405 8.222C43.1072 8.99933 43.2905 9.92333 43.2905 10.994V11.654H34.7325V10.532H42.1245L41.7505 10.818C41.7505 9.64467 41.4865 8.728 40.9585 8.068C40.4305 7.408 39.6458 7.078 38.6045 7.078C37.5045 7.078 36.6465 7.46667 36.0305 8.244C35.4145 9.00667 35.1065 10.0407 35.1065 11.346V11.544C35.1065 12.9227 35.4438 13.9713 36.1185 14.69C36.8078 15.394 37.7685 15.746 39.0005 15.746C39.6605 15.746 40.2765 15.6507 40.8485 15.46C41.4352 15.2547 41.9925 14.9247 42.5205 14.47L43.1365 15.724C42.6525 16.1933 42.0365 16.56 41.2885 16.824C40.5552 17.0733 39.7778 17.198 38.9565 17.198ZM46.0173 17V8.508C46.0173 8.09733 45.9953 7.67933 45.9513 7.254C45.922 6.814 45.8853 6.38133 45.8413 5.956H47.5573L47.7773 8.376H47.5133C47.8066 7.54 48.2686 6.89467 48.8993 6.44C49.5446 5.98533 50.322 5.758 51.2313 5.758C52.1553 5.758 52.9033 5.978 53.4753 6.418C54.062 6.858 54.458 7.54 54.6633 8.464H54.3333C54.612 7.628 55.1033 6.968 55.8073 6.484C56.5113 6 57.3326 5.758 58.2713 5.758C59.4886 5.758 60.4053 6.11 61.0213 6.814C61.6373 7.50333 61.9453 8.596 61.9453 10.092V17H60.1633V10.202C60.1633 9.16067 59.98 8.40533 59.6133 7.936C59.2466 7.452 58.66 7.21 57.8533 7.21C56.9293 7.21 56.196 7.53267 55.6533 8.178C55.1253 8.80867 54.8613 9.65933 54.8613 10.73V17H53.0793V10.202C53.0793 9.16067 52.896 8.40533 52.5293 7.936C52.1626 7.452 51.576 7.21 50.7693 7.21C49.8453 7.21 49.1193 7.53267 48.5913 8.178C48.0633 8.80867 47.7993 9.65933 47.7993 10.73V17H46.0173ZM71.2661 17V1.49H73.0921V17H71.2661ZM76.7614 21.752V8.508C76.7614 8.09733 76.7394 7.67933 76.6954 7.254C76.6661 6.814 76.6294 6.38133 76.5854 5.956H78.3014L78.5434 8.574H78.2794C78.5141 7.70867 78.9908 7.02667 79.7094 6.528C80.4281 6.01467 81.2861 5.758 82.2834 5.758C83.2808 5.758 84.1388 5.98533 84.8574 6.44C85.5908 6.89467 86.1628 7.54733 86.5734 8.398C86.9841 9.24867 87.1894 10.2753 87.1894 11.478C87.1894 12.666 86.9841 13.6853 86.5734 14.536C86.1774 15.3867 85.6128 16.0467 84.8794 16.516C84.1461 16.9707 83.2808 17.198 82.2834 17.198C81.3008 17.198 80.4501 16.9487 79.7314 16.45C79.0128 15.9513 78.5361 15.2693 78.3014 14.404H78.5434V21.752H76.7614ZM81.9314 15.746C82.9874 15.746 83.8234 15.3867 84.4394 14.668C85.0701 13.9347 85.3854 12.8713 85.3854 11.478C85.3854 10.07 85.0701 9.00667 84.4394 8.288C83.8234 7.55467 82.9874 7.188 81.9314 7.188C80.8901 7.188 80.0541 7.55467 79.4234 8.288C78.8074 9.00667 78.4994 10.07 78.4994 11.478C78.4994 12.8713 78.8074 13.9347 79.4234 14.668C80.0541 15.3867 80.8901 15.746 81.9314 15.746ZM93.6268 17.198C92.7468 17.198 91.9255 17.0807 91.1628 16.846C90.4002 16.5967 89.7695 16.252 89.2708 15.812L89.8868 14.558C90.4295 14.9833 91.0162 15.2987 91.6468 15.504C92.2922 15.7093 92.9595 15.812 93.6488 15.812C94.5288 15.812 95.1888 15.658 95.6288 15.35C96.0835 15.0273 96.3108 14.5873 96.3108 14.03C96.3108 13.6047 96.1642 13.2673 95.8708 13.018C95.5922 12.754 95.1302 12.5487 94.4848 12.402L92.4388 11.984C91.5002 11.7787 90.7962 11.434 90.3268 10.95C89.8575 10.4513 89.6228 9.82067 89.6228 9.058C89.6228 8.41267 89.7915 7.848 90.1288 7.364C90.4662 6.86533 90.9575 6.47667 91.6028 6.198C92.2482 5.90467 93.0035 5.758 93.8688 5.758C94.6755 5.758 95.4162 5.88267 96.0908 6.132C96.7802 6.36667 97.3522 6.71133 97.8068 7.166L97.1688 8.398C96.7288 7.97267 96.2228 7.65733 95.6508 7.452C95.0935 7.232 94.5142 7.122 93.9128 7.122C93.0475 7.122 92.3948 7.298 91.9548 7.65C91.5295 7.98733 91.3168 8.43467 91.3168 8.992C91.3168 9.41733 91.4488 9.76933 91.7128 10.048C91.9915 10.312 92.4168 10.51 92.9888 10.642L95.0348 11.06C96.0322 11.28 96.7728 11.6247 97.2568 12.094C97.7555 12.5487 98.0048 13.1647 98.0048 13.942C98.0048 14.602 97.8215 15.1813 97.4548 15.68C97.0882 16.164 96.5748 16.538 95.9148 16.802C95.2695 17.066 94.5068 17.198 93.6268 17.198ZM104.761 17.198C103.456 17.198 102.466 16.8387 101.791 16.12C101.131 15.4013 100.801 14.3013 100.801 12.82V5.956H102.583V12.776C102.583 13.788 102.788 14.536 103.199 15.02C103.61 15.4893 104.248 15.724 105.113 15.724C106.081 15.724 106.858 15.4087 107.445 14.778C108.032 14.1473 108.325 13.304 108.325 12.248V5.956H110.107V17H108.369V14.514H108.655C108.347 15.3647 107.848 16.0247 107.159 16.494C106.484 16.9633 105.685 17.198 104.761 17.198ZM113.564 17V8.508C113.564 8.09733 113.542 7.67933 113.498 7.254C113.469 6.814 113.432 6.38133 113.388 5.956H115.104L115.324 8.376H115.06C115.354 7.54 115.816 6.89467 116.446 6.44C117.092 5.98533 117.869 5.758 118.778 5.758C119.702 5.758 120.45 5.978 121.022 6.418C121.609 6.858 122.005 7.54 122.21 8.464H121.88C122.159 7.628 122.65 6.968 123.354 6.484C124.058 6 124.88 5.758 125.818 5.758C127.036 5.758 127.952 6.11 128.568 6.814C129.184 7.50333 129.492 8.596 129.492 10.092V17H127.71V10.202C127.71 9.16067 127.527 8.40533 127.16 7.936C126.794 7.452 126.207 7.21 125.4 7.21C124.476 7.21 123.743 7.53267 123.2 8.178C122.672 8.80867 122.408 9.65933 122.408 10.73V17H120.626V10.202C120.626 9.16067 120.443 8.40533 120.076 7.936C119.71 7.452 119.123 7.21 118.316 7.21C117.392 7.21 116.666 7.53267 116.138 8.178C115.61 8.80867 115.346 9.65933 115.346 10.73V17H113.564ZM138.615 17V5.956H140.397V17H138.615ZM138.395 3.448V1.446H140.595V3.448H138.395ZM147.531 17.198C146.651 17.198 145.83 17.0807 145.067 16.846C144.304 16.5967 143.674 16.252 143.175 15.812L143.791 14.558C144.334 14.9833 144.92 15.2987 145.551 15.504C146.196 15.7093 146.864 15.812 147.553 15.812C148.433 15.812 149.093 15.658 149.533 15.35C149.988 15.0273 150.215 14.5873 150.215 14.03C150.215 13.6047 150.068 13.2673 149.775 13.018C149.496 12.754 149.034 12.5487 148.389 12.402L146.343 11.984C145.404 11.7787 144.7 11.434 144.231 10.95C143.762 10.4513 143.527 9.82067 143.527 9.058C143.527 8.41267 143.696 7.848 144.033 7.364C144.37 6.86533 144.862 6.47667 145.507 6.198C146.152 5.90467 146.908 5.758 147.773 5.758C148.58 5.758 149.32 5.88267 149.995 6.132C150.684 6.36667 151.256 6.71133 151.711 7.166L151.073 8.398C150.633 7.97267 150.127 7.65733 149.555 7.452C148.998 7.232 148.418 7.122 147.817 7.122C146.952 7.122 146.299 7.298 145.859 7.65C145.434 7.98733 145.221 8.43467 145.221 8.992C145.221 9.41733 145.353 9.76933 145.617 10.048C145.896 10.312 146.321 10.51 146.893 10.642L148.939 11.06C149.936 11.28 150.677 11.6247 151.161 12.094C151.66 12.5487 151.909 13.1647 151.909 13.942C151.909 14.602 151.726 15.1813 151.359 15.68C150.992 16.164 150.479 16.538 149.819 16.802C149.174 17.066 148.411 17.198 147.531 17.198ZM164.182 17.198C163.302 17.198 162.48 17.0807 161.718 16.846C160.955 16.5967 160.324 16.252 159.826 15.812L160.442 14.558C160.984 14.9833 161.571 15.2987 162.202 15.504C162.847 15.7093 163.514 15.812 164.204 15.812C165.084 15.812 165.744 15.658 166.184 15.35C166.638 15.0273 166.866 14.5873 166.866 14.03C166.866 13.6047 166.719 13.2673 166.426 13.018C166.147 12.754 165.685 12.5487 165.04 12.402L162.994 11.984C162.055 11.7787 161.351 11.434 160.882 10.95C160.412 10.4513 160.178 9.82067 160.178 9.058C160.178 8.41267 160.346 7.848 160.684 7.364C161.021 6.86533 161.512 6.47667 162.158 6.198C162.803 5.90467 163.558 5.758 164.424 5.758C165.23 5.758 165.971 5.88267 166.646 6.132C167.335 6.36667 167.907 6.71133 168.362 7.166L167.724 8.398C167.284 7.97267 166.778 7.65733 166.206 7.452C165.648 7.232 165.069 7.122 164.468 7.122C163.602 7.122 162.95 7.298 162.51 7.65C162.084 7.98733 161.872 8.43467 161.872 8.992C161.872 9.41733 162.004 9.76933 162.268 10.048C162.546 10.312 162.972 10.51 163.544 10.642L165.59 11.06C166.587 11.28 167.328 11.6247 167.812 12.094C168.31 12.5487 168.56 13.1647 168.56 13.942C168.56 14.602 168.376 15.1813 168.01 15.68C167.643 16.164 167.13 16.538 166.47 16.802C165.824 17.066 165.062 17.198 164.182 17.198ZM171.422 17V5.956H173.204V17H171.422ZM171.202 3.448V1.446H173.402V3.448H171.202ZM176.664 17V8.508C176.664 8.09733 176.642 7.67933 176.598 7.254C176.568 6.814 176.532 6.38133 176.488 5.956H178.204L178.424 8.376H178.16C178.453 7.54 178.915 6.89467 179.546 6.44C180.191 5.98533 180.968 5.758 181.878 5.758C182.802 5.758 183.55 5.978 184.122 6.418C184.708 6.858 185.104 7.54 185.31 8.464H184.98C185.258 7.628 185.75 6.968 186.454 6.484C187.158 6 187.979 5.758 188.918 5.758C190.135 5.758 191.052 6.11 191.668 6.814C192.284 7.50333 192.592 8.596 192.592 10.092V17H190.81V10.202C190.81 9.16067 190.626 8.40533 190.26 7.936C189.893 7.452 189.306 7.21 188.5 7.21C187.576 7.21 186.842 7.53267 186.3 8.178C185.772 8.80867 185.508 9.65933 185.508 10.73V17H183.726V10.202C183.726 9.16067 183.542 8.40533 183.176 7.936C182.809 7.452 182.222 7.21 181.416 7.21C180.492 7.21 179.766 7.53267 179.238 8.178C178.71 8.80867 178.446 9.65933 178.446 10.73V17H176.664ZM195.978 21.752V8.508C195.978 8.09733 195.956 7.67933 195.912 7.254C195.883 6.814 195.846 6.38133 195.802 5.956H197.518L197.76 8.574H197.496C197.731 7.70867 198.208 7.02667 198.926 6.528C199.645 6.01467 200.503 5.758 201.5 5.758C202.498 5.758 203.356 5.98533 204.074 6.44C204.808 6.89467 205.38 7.54733 205.79 8.398C206.201 9.24867 206.406 10.2753 206.406 11.478C206.406 12.666 206.201 13.6853 205.79 14.536C205.394 15.3867 204.83 16.0467 204.096 16.516C203.363 16.9707 202.498 17.198 201.5 17.198C200.518 17.198 199.667 16.9487 198.948 16.45C198.23 15.9513 197.753 15.2693 197.518 14.404H197.76V21.752H195.978ZM201.148 15.746C202.204 15.746 203.04 15.3867 203.656 14.668C204.287 13.9347 204.602 12.8713 204.602 11.478C204.602 10.07 204.287 9.00667 203.656 8.288C203.04 7.55467 202.204 7.188 201.148 7.188C200.107 7.188 199.271 7.55467 198.64 8.288C198.024 9.00667 197.716 10.07 197.716 11.478C197.716 12.8713 198.024 13.9347 198.64 14.668C199.271 15.3867 200.107 15.746 201.148 15.746ZM209.17 17V0.807999H210.952V17H209.17ZM213.972 21.994L213.554 20.52C214.243 20.3587 214.815 20.168 215.27 19.948C215.739 19.7427 216.128 19.464 216.436 19.112C216.744 18.76 217.008 18.32 217.228 17.792L217.8 16.494L217.756 17.242L212.938 5.956H214.874L218.856 15.658H218.284L222.222 5.956H224.092L218.988 17.924C218.694 18.628 218.372 19.2147 218.02 19.684C217.668 20.168 217.286 20.5567 216.876 20.85C216.48 21.158 216.04 21.4 215.556 21.576C215.072 21.752 214.544 21.8913 213.972 21.994ZM236.016 17.198C235.048 17.198 234.197 16.9707 233.464 16.516C232.73 16.0467 232.158 15.3867 231.748 14.536C231.352 13.6853 231.154 12.666 231.154 11.478C231.154 10.2753 231.352 9.24867 231.748 8.398C232.158 7.54733 232.73 6.89467 233.464 6.44C234.197 5.98533 235.048 5.758 236.016 5.758C237.013 5.758 237.871 6.00733 238.59 6.506C239.323 7.00467 239.814 7.67933 240.064 8.53H239.8V0.807999H241.582V17H239.822V14.36H240.064C239.829 15.24 239.345 15.9367 238.612 16.45C237.878 16.9487 237.013 17.198 236.016 17.198ZM236.39 15.746C237.431 15.746 238.267 15.3867 238.898 14.668C239.528 13.9347 239.844 12.8713 239.844 11.478C239.844 10.07 239.528 9.00667 238.898 8.288C238.267 7.55467 237.431 7.188 236.39 7.188C235.348 7.188 234.512 7.55467 233.882 8.288C233.266 9.00667 232.958 10.07 232.958 11.478C232.958 12.8713 233.266 13.9347 233.882 14.668C234.512 15.3867 235.348 15.746 236.39 15.746ZM248.921 17.198C247.616 17.198 246.626 16.8387 245.951 16.12C245.291 15.4013 244.961 14.3013 244.961 12.82V5.956H246.743V12.776C246.743 13.788 246.948 14.536 247.359 15.02C247.77 15.4893 248.408 15.724 249.273 15.724C250.241 15.724 251.018 15.4087 251.605 14.778C252.192 14.1473 252.485 13.304 252.485 12.248V5.956H254.267V17H252.529V14.514H252.815C252.507 15.3647 252.008 16.0247 251.319 16.494C250.644 16.9633 249.845 17.198 248.921 17.198ZM257.724 17V8.508C257.724 8.09733 257.702 7.67933 257.658 7.254C257.629 6.814 257.592 6.38133 257.548 5.956H259.264L259.484 8.376H259.22C259.514 7.54 259.976 6.89467 260.606 6.44C261.252 5.98533 262.029 5.758 262.938 5.758C263.862 5.758 264.61 5.978 265.182 6.418C265.769 6.858 266.165 7.54 266.37 8.464H266.04C266.319 7.628 266.81 6.968 267.514 6.484C268.218 6 269.04 5.758 269.978 5.758C271.196 5.758 272.112 6.11 272.728 6.814C273.344 7.50333 273.652 8.596 273.652 10.092V17H271.87V10.202C271.87 9.16067 271.687 8.40533 271.32 7.936C270.954 7.452 270.367 7.21 269.56 7.21C268.636 7.21 267.903 7.53267 267.36 8.178C266.832 8.80867 266.568 9.65933 266.568 10.73V17H264.786V10.202C264.786 9.16067 264.603 8.40533 264.236 7.936C263.87 7.452 263.283 7.21 262.476 7.21C261.552 7.21 260.826 7.53267 260.298 8.178C259.77 8.80867 259.506 9.65933 259.506 10.73V17H257.724ZM277.039 17V8.508C277.039 8.09733 277.017 7.67933 276.973 7.254C276.943 6.814 276.907 6.38133 276.863 5.956H278.579L278.799 8.376H278.535C278.828 7.54 279.29 6.89467 279.921 6.44C280.566 5.98533 281.343 5.758 282.253 5.758C283.177 5.758 283.925 5.978 284.497 6.418C285.083 6.858 285.479 7.54 285.685 8.464H285.355C285.633 7.628 286.125 6.968 286.829 6.484C287.533 6 288.354 5.758 289.293 5.758C290.51 5.758 291.427 6.11 292.043 6.814C292.659 7.50333 292.967 8.596 292.967 10.092V17H291.185V10.202C291.185 9.16067 291.001 8.40533 290.635 7.936C290.268 7.452 289.681 7.21 288.875 7.21C287.951 7.21 287.217 7.53267 286.675 8.178C286.147 8.80867 285.883 9.65933 285.883 10.73V17H284.101V10.202C284.101 9.16067 283.917 8.40533 283.551 7.936C283.184 7.452 282.597 7.21 281.791 7.21C280.867 7.21 280.141 7.53267 279.613 8.178C279.085 8.80867 278.821 9.65933 278.821 10.73V17H277.039ZM295.806 21.994L295.388 20.52C296.077 20.3587 296.649 20.168 297.104 19.948C297.573 19.7427 297.962 19.464 298.27 19.112C298.578 18.76 298.842 18.32 299.062 17.792L299.634 16.494L299.59 17.242L294.772 5.956H296.708L300.69 15.658H300.118L304.056 5.956H305.926L300.822 17.924C300.528 18.628 300.206 19.2147 299.854 19.684C299.502 20.168 299.12 20.5567 298.71 20.85C298.314 21.158 297.874 21.4 297.39 21.576C296.906 21.752 296.378 21.8913 295.806 21.994ZM317.586 17.198C316.5 17.198 315.672 16.89 315.1 16.274C314.528 15.6433 314.242 14.6973 314.242 13.436V7.342H312.086V5.956H314.242V2.942L316.024 2.436V5.956H319.192V7.342H316.024V13.238C316.024 14.118 316.17 14.7487 316.464 15.13C316.772 15.4967 317.226 15.68 317.828 15.68C318.106 15.68 318.356 15.658 318.576 15.614C318.796 15.5553 318.994 15.4893 319.17 15.416V16.912C318.964 17 318.715 17.066 318.422 17.11C318.143 17.1687 317.864 17.198 317.586 17.198ZM326.16 17.198C324.429 17.198 323.065 16.6993 322.068 15.702C321.07 14.69 320.572 13.2893 320.572 11.5C320.572 10.3413 320.792 9.33667 321.232 8.486C321.672 7.62067 322.288 6.95333 323.08 6.484C323.872 6 324.781 5.758 325.808 5.758C326.82 5.758 327.67 5.97067 328.36 6.396C329.049 6.82133 329.577 7.43 329.944 8.222C330.31 8.99933 330.494 9.92333 330.494 10.994V11.654H321.936V10.532H329.328L328.954 10.818C328.954 9.64467 328.69 8.728 328.162 8.068C327.634 7.408 326.849 7.078 325.808 7.078C324.708 7.078 323.85 7.46667 323.234 8.244C322.618 9.00667 322.31 10.0407 322.31 11.346V11.544C322.31 12.9227 322.647 13.9713 323.322 14.69C324.011 15.394 324.972 15.746 326.204 15.746C326.864 15.746 327.48 15.6507 328.052 15.46C328.638 15.2547 329.196 14.9247 329.724 14.47L330.34 15.724C329.856 16.1933 329.24 16.56 328.492 16.824C327.758 17.0733 326.981 17.198 326.16 17.198ZM331.638 17L336.588 10.862V11.742L331.902 5.956H334.058L337.6 10.466H336.962L340.482 5.956H342.616L337.996 11.72V10.906L342.902 17H340.724L336.94 12.182H337.6L333.772 17H331.638ZM348.824 17.198C347.739 17.198 346.91 16.89 346.338 16.274C345.766 15.6433 345.48 14.6973 345.48 13.436V7.342H343.324V5.956H345.48V2.942L347.262 2.436V5.956H350.43V7.342H347.262V13.238C347.262 14.118 347.409 14.7487 347.702 15.13C348.01 15.4967 348.465 15.68 349.066 15.68C349.345 15.68 349.594 15.658 349.814 15.614C350.034 15.5553 350.232 15.4893 350.408 15.416V16.912C350.203 17 349.953 17.066 349.66 17.11C349.381 17.1687 349.103 17.198 348.824 17.198ZM362.868 17.198C361.812 17.198 360.888 16.9707 360.096 16.516C359.318 16.0467 358.717 15.3867 358.292 14.536C357.866 13.6707 357.654 12.6513 357.654 11.478C357.654 10.29 357.866 9.27067 358.292 8.42C358.717 7.56933 359.318 6.91667 360.096 6.462C360.888 5.99267 361.812 5.758 362.868 5.758C363.938 5.758 364.862 5.99267 365.64 6.462C366.432 6.91667 367.04 7.56933 367.466 8.42C367.906 9.27067 368.126 10.29 368.126 11.478C368.126 12.6513 367.906 13.6707 367.466 14.536C367.04 15.3867 366.432 16.0467 365.64 16.516C364.862 16.9707 363.938 17.198 362.868 17.198ZM362.868 15.746C363.924 15.746 364.76 15.3867 365.376 14.668C365.992 13.9347 366.3 12.8713 366.3 11.478C366.3 10.07 365.984 9.00667 365.354 8.288C364.738 7.55467 363.909 7.188 362.868 7.188C361.826 7.188 360.998 7.55467 360.382 8.288C359.766 9.00667 359.458 10.07 359.458 11.478C359.458 12.8713 359.766 13.9347 360.382 14.668C360.998 15.3867 361.826 15.746 362.868 15.746ZM371.369 17V7.342H369.213V5.956H371.853L371.369 6.418V4.57C371.369 3.32333 371.684 2.37 372.315 1.71C372.945 1.05 373.847 0.72 375.021 0.72C375.314 0.72 375.615 0.749333 375.923 0.807999C376.245 0.851999 376.509 0.917999 376.715 1.006V2.48C376.539 2.40667 376.319 2.348 376.055 2.304C375.805 2.24533 375.549 2.216 375.285 2.216C374.83 2.216 374.441 2.31133 374.119 2.502C373.796 2.678 373.554 2.94933 373.393 3.316C373.231 3.68267 373.151 4.152 373.151 4.724V6.33L372.865 5.956H376.231V7.342H373.151V17H371.369ZM387.883 17.198C386.797 17.198 385.969 16.89 385.397 16.274C384.825 15.6433 384.539 14.6973 384.539 13.436V7.342H382.383V5.956H384.539V2.942L386.321 2.436V5.956H389.489V7.342H386.321V13.238C386.321 14.118 386.467 14.7487 386.761 15.13C387.069 15.4967 387.523 15.68 388.125 15.68C388.403 15.68 388.653 15.658 388.873 15.614C389.093 15.5553 389.291 15.4893 389.467 15.416V16.912C389.261 17 389.012 17.066 388.719 17.11C388.44 17.1687 388.161 17.198 387.883 17.198ZM391.658 17V0.807999H393.44V8.398H393.154C393.462 7.53267 393.975 6.88 394.694 6.44C395.427 5.98533 396.271 5.758 397.224 5.758C398.544 5.758 399.527 6.11733 400.172 6.836C400.817 7.54 401.14 8.61067 401.14 10.048V17H399.358V10.158C399.358 9.13133 399.153 8.38333 398.742 7.914C398.346 7.44467 397.701 7.21 396.806 7.21C395.779 7.21 394.958 7.52533 394.342 8.156C393.741 8.78667 393.44 9.61533 393.44 10.642V17H391.658ZM409.455 17.198C407.724 17.198 406.36 16.6993 405.363 15.702C404.365 14.69 403.867 13.2893 403.867 11.5C403.867 10.3413 404.087 9.33667 404.527 8.486C404.967 7.62067 405.583 6.95333 406.375 6.484C407.167 6 408.076 5.758 409.103 5.758C410.115 5.758 410.965 5.97067 411.655 6.396C412.344 6.82133 412.872 7.43 413.239 8.222C413.605 8.99933 413.789 9.92333 413.789 10.994V11.654H405.231V10.532H412.623L412.249 10.818C412.249 9.64467 411.985 8.728 411.457 8.068C410.929 7.408 410.144 7.078 409.103 7.078C408.003 7.078 407.145 7.46667 406.529 8.244C405.913 9.00667 405.605 10.0407 405.605 11.346V11.544C405.605 12.9227 405.942 13.9713 406.617 14.69C407.306 15.394 408.267 15.746 409.499 15.746C410.159 15.746 410.775 15.6507 411.347 15.46C411.933 15.2547 412.491 14.9247 413.019 14.47L413.635 15.724C413.151 16.1933 412.535 16.56 411.787 16.824C411.053 17.0733 410.276 17.198 409.455 17.198ZM422.252 21.752V8.508C422.252 8.09733 422.23 7.67933 422.186 7.254C422.156 6.814 422.12 6.38133 422.076 5.956H423.792L424.034 8.574H423.77C424.004 7.70867 424.481 7.02667 425.2 6.528C425.918 6.01467 426.776 5.758 427.774 5.758C428.771 5.758 429.629 5.98533 430.348 6.44C431.081 6.89467 431.653 7.54733 432.064 8.398C432.474 9.24867 432.68 10.2753 432.68 11.478C432.68 12.666 432.474 13.6853 432.064 14.536C431.668 15.3867 431.103 16.0467 430.37 16.516C429.636 16.9707 428.771 17.198 427.774 17.198C426.791 17.198 425.94 16.9487 425.222 16.45C424.503 15.9513 424.026 15.2693 423.792 14.404H424.034V21.752H422.252ZM427.422 15.746C428.478 15.746 429.314 15.3867 429.93 14.668C430.56 13.9347 430.876 12.8713 430.876 11.478C430.876 10.07 430.56 9.00667 429.93 8.288C429.314 7.55467 428.478 7.188 427.422 7.188C426.38 7.188 425.544 7.55467 424.914 8.288C424.298 9.00667 423.99 10.07 423.99 11.478C423.99 12.8713 424.298 13.9347 424.914 14.668C425.544 15.3867 426.38 15.746 427.422 15.746ZM435.399 17V8.618C435.399 8.178 435.384 7.73067 435.355 7.276C435.34 6.82133 435.311 6.38133 435.267 5.956H436.983L437.203 8.64L436.895 8.662C437.042 8.002 437.298 7.45933 437.665 7.034C438.032 6.60867 438.464 6.29333 438.963 6.088C439.462 5.868 439.982 5.758 440.525 5.758C440.745 5.758 440.936 5.76533 441.097 5.78C441.273 5.79467 441.434 5.83133 441.581 5.89L441.559 7.474C441.339 7.40067 441.134 7.35667 440.943 7.342C440.767 7.31267 440.562 7.298 440.327 7.298C439.682 7.298 439.117 7.452 438.633 7.76C438.164 8.068 437.804 8.464 437.555 8.948C437.32 9.432 437.203 9.94533 437.203 10.488V17H435.399ZM443.435 17V5.956H445.217V17H443.435ZM443.215 3.448V1.446H445.415V3.448H443.215ZM448.677 17V8.508C448.677 8.09733 448.655 7.67933 448.611 7.254C448.582 6.814 448.545 6.38133 448.501 5.956H450.217L450.437 8.376H450.173C450.496 7.52533 451.009 6.88 451.713 6.44C452.432 5.98533 453.261 5.758 454.199 5.758C455.505 5.758 456.487 6.11 457.147 6.814C457.822 7.50333 458.159 8.596 458.159 10.092V17H456.377V10.202C456.377 9.16067 456.165 8.40533 455.739 7.936C455.329 7.452 454.683 7.21 453.803 7.21C452.777 7.21 451.963 7.52533 451.361 8.156C450.76 8.78667 450.459 9.63 450.459 10.686V17H448.677ZM465.484 17.198C464.399 17.198 463.57 16.89 462.998 16.274C462.426 15.6433 462.14 14.6973 462.14 13.436V7.342H459.984V5.956H462.14V2.942L463.922 2.436V5.956H467.09V7.342H463.922V13.238C463.922 14.118 464.069 14.7487 464.362 15.13C464.67 15.4967 465.125 15.68 465.726 15.68C466.005 15.68 466.254 15.658 466.474 15.614C466.694 15.5553 466.892 15.4893 467.068 15.416V16.912C466.863 17 466.613 17.066 466.32 17.11C466.041 17.1687 465.763 17.198 465.484 17.198ZM469.259 17V5.956H471.041V17H469.259ZM469.039 3.448V1.446H471.239V3.448H469.039ZM474.502 17V8.508C474.502 8.09733 474.48 7.67933 474.436 7.254C474.406 6.814 474.37 6.38133 474.326 5.956H476.042L476.262 8.376H475.998C476.32 7.52533 476.834 6.88 477.538 6.44C478.256 5.98533 479.085 5.758 480.024 5.758C481.329 5.758 482.312 6.11 482.972 6.814C483.646 7.50333 483.984 8.596 483.984 10.092V17H482.202V10.202C482.202 9.16067 481.989 8.40533 481.564 7.936C481.153 7.452 480.508 7.21 479.628 7.21C478.601 7.21 477.787 7.52533 477.186 8.156C476.584 8.78667 476.284 9.63 476.284 10.686V17H474.502ZM492.254 21.906C491.301 21.906 490.421 21.7887 489.614 21.554C488.808 21.3193 488.082 20.96 487.436 20.476L487.964 19.134C488.419 19.4567 488.866 19.7133 489.306 19.904C489.746 20.0947 490.201 20.234 490.67 20.322C491.14 20.4247 491.638 20.476 492.166 20.476C493.252 20.476 494.073 20.19 494.63 19.618C495.188 19.046 495.466 18.232 495.466 17.176V13.942H495.686C495.452 14.8073 494.968 15.4967 494.234 16.01C493.501 16.5087 492.643 16.758 491.66 16.758C490.648 16.758 489.768 16.538 489.02 16.098C488.287 15.6433 487.715 15.0053 487.304 14.184C486.908 13.348 486.71 12.3653 486.71 11.236C486.71 10.1213 486.908 9.15333 487.304 8.332C487.715 7.51067 488.287 6.88 489.02 6.44C489.768 5.98533 490.648 5.758 491.66 5.758C492.658 5.758 493.516 6.00733 494.234 6.506C494.968 7.00467 495.452 7.694 495.686 8.574L495.466 8.354L495.664 5.956H497.402C497.344 6.38133 497.3 6.814 497.27 7.254C497.241 7.67933 497.226 8.09733 497.226 8.508V16.934C497.226 18.5767 496.801 19.816 495.95 20.652C495.114 21.488 493.882 21.906 492.254 21.906ZM491.99 15.306C493.061 15.306 493.904 14.954 494.52 14.25C495.136 13.5313 495.444 12.5267 495.444 11.236C495.444 9.94533 495.136 8.948 494.52 8.244C493.904 7.54 493.061 7.188 491.99 7.188C490.934 7.188 490.091 7.54 489.46 8.244C488.83 8.948 488.514 9.94533 488.514 11.236C488.514 12.5267 488.83 13.5313 489.46 14.25C490.091 14.954 490.934 15.306 491.99 15.306ZM510.586 17.198C509.604 17.198 508.746 16.9707 508.012 16.516C507.279 16.0467 506.707 15.3867 506.296 14.536C505.9 13.6853 505.702 12.666 505.702 11.478C505.702 10.2753 505.9 9.24867 506.296 8.398C506.707 7.54733 507.279 6.89467 508.012 6.44C508.746 5.98533 509.604 5.758 510.586 5.758C511.584 5.758 512.442 6.01467 513.16 6.528C513.894 7.02667 514.378 7.70867 514.612 8.574H514.348L514.59 5.956H516.306C516.262 6.38133 516.218 6.814 516.174 7.254C516.145 7.67933 516.13 8.09733 516.13 8.508V17H514.348V14.404H514.59C514.356 15.2693 513.872 15.9513 513.138 16.45C512.405 16.9487 511.554 17.198 510.586 17.198ZM510.938 15.746C511.994 15.746 512.83 15.3867 513.446 14.668C514.062 13.9347 514.37 12.8713 514.37 11.478C514.37 10.07 514.062 9.00667 513.446 8.288C512.83 7.55467 511.994 7.188 510.938 7.188C509.897 7.188 509.061 7.55467 508.43 8.288C507.814 9.00667 507.506 10.07 507.506 11.478C507.506 12.8713 507.814 13.9347 508.43 14.668C509.061 15.3867 509.897 15.746 510.938 15.746ZM519.576 17V8.508C519.576 8.09733 519.554 7.67933 519.51 7.254C519.481 6.814 519.444 6.38133 519.4 5.956H521.116L521.336 8.376H521.072C521.395 7.52533 521.908 6.88 522.612 6.44C523.331 5.98533 524.159 5.758 525.098 5.758C526.403 5.758 527.386 6.11 528.046 6.814C528.721 7.50333 529.058 8.596 529.058 10.092V17H527.276V10.202C527.276 9.16067 527.063 8.40533 526.638 7.936C526.227 7.452 525.582 7.21 524.702 7.21C523.675 7.21 522.861 7.52533 522.26 8.156C521.659 8.78667 521.358 9.63 521.358 10.686V17H519.576ZM536.647 17.198C535.679 17.198 534.828 16.9707 534.095 16.516C533.361 16.0467 532.789 15.3867 532.379 14.536C531.983 13.6853 531.785 12.666 531.785 11.478C531.785 10.2753 531.983 9.24867 532.379 8.398C532.789 7.54733 533.361 6.89467 534.095 6.44C534.828 5.98533 535.679 5.758 536.647 5.758C537.644 5.758 538.502 6.00733 539.221 6.506C539.954 7.00467 540.445 7.67933 540.695 8.53H540.431V0.807999H542.213V17H540.453V14.36H540.695C540.46 15.24 539.976 15.9367 539.243 16.45C538.509 16.9487 537.644 17.198 536.647 17.198ZM537.021 15.746C538.062 15.746 538.898 15.3867 539.529 14.668C540.159 13.9347 540.475 12.8713 540.475 11.478C540.475 10.07 540.159 9.00667 539.529 8.288C538.898 7.55467 538.062 7.188 537.021 7.188C535.979 7.188 535.143 7.55467 534.513 8.288C533.897 9.00667 533.589 10.07 533.589 11.478C533.589 12.8713 533.897 13.9347 534.513 14.668C535.143 15.3867 535.979 15.746 537.021 15.746ZM5.654 54.198C4.56867 54.198 3.74 53.89 3.168 53.274C2.596 52.6433 2.31 51.6973 2.31 50.436V44.342H0.154V42.956H2.31V39.942L4.092 39.436V42.956H7.26V44.342H4.092V50.238C4.092 51.118 4.23867 51.7487 4.532 52.13C4.84 52.4967 5.29467 52.68 5.896 52.68C6.17467 52.68 6.424 52.658 6.644 52.614C6.864 52.5553 7.062 52.4893 7.238 52.416V53.912C7.03267 54 6.78333 54.066 6.49 54.11C6.21133 54.1687 5.93267 54.198 5.654 54.198ZM9.11831 58.994L8.70031 57.52C9.38965 57.3587 9.96165 57.168 10.4163 56.948C10.8856 56.7427 11.2743 56.464 11.5823 56.112C11.8903 55.76 12.1543 55.32 12.3743 54.792L12.9463 53.494L12.9023 54.242L8.08431 42.956H10.0203L14.0023 52.658H13.4303L17.3683 42.956H19.2383L14.1343 54.924C13.841 55.628 13.5183 56.2147 13.1663 56.684C12.8143 57.168 12.433 57.5567 12.0223 57.85C11.6263 58.158 11.1863 58.4 10.7023 58.576C10.2183 58.752 9.69031 58.8913 9.11831 58.994ZM21.2458 58.752V45.508C21.2458 45.0973 21.2238 44.6793 21.1798 44.254C21.1505 43.814 21.1138 43.3813 21.0698 42.956H22.7858L23.0278 45.574H22.7638C22.9985 44.7087 23.4751 44.0267 24.1938 43.528C24.9125 43.0147 25.7705 42.758 26.7678 42.758C27.7651 42.758 28.6231 42.9853 29.3418 43.44C30.0751 43.8947 30.6471 44.5473 31.0578 45.398C31.4685 46.2487 31.6738 47.2753 31.6738 48.478C31.6738 49.666 31.4685 50.6853 31.0578 51.536C30.6618 52.3867 30.0971 53.0467 29.3638 53.516C28.6305 53.9707 27.7651 54.198 26.7678 54.198C25.7851 54.198 24.9345 53.9487 24.2158 53.45C23.4971 52.9513 23.0205 52.2693 22.7858 51.404H23.0278V58.752H21.2458ZM26.4158 52.746C27.4718 52.746 28.3078 52.3867 28.9238 51.668C29.5545 50.9347 29.8698 49.8713 29.8698 48.478C29.8698 47.07 29.5545 46.0067 28.9238 45.288C28.3078 44.5547 27.4718 44.188 26.4158 44.188C25.3745 44.188 24.5385 44.5547 23.9078 45.288C23.2918 46.0067 22.9838 47.07 22.9838 48.478C22.9838 49.8713 23.2918 50.9347 23.9078 51.668C24.5385 52.3867 25.3745 52.746 26.4158 52.746ZM39.3432 54.198C37.6126 54.198 36.2486 53.6993 35.2512 52.702C34.2539 51.69 33.7552 50.2893 33.7552 48.5C33.7552 47.3413 33.9752 46.3367 34.4152 45.486C34.8552 44.6207 35.4712 43.9533 36.2632 43.484C37.0552 43 37.9646 42.758 38.9912 42.758C40.0032 42.758 40.8539 42.9707 41.5432 43.396C42.2326 43.8213 42.7606 44.43 43.1272 45.222C43.4939 45.9993 43.6772 46.9233 43.6772 47.994V48.654H35.1192V47.532H42.5112L42.1372 47.818C42.1372 46.6447 41.8732 45.728 41.3452 45.068C40.8172 44.408 40.0326 44.078 38.9912 44.078C37.8912 44.078 37.0332 44.4667 36.4172 45.244C35.8012 46.0067 35.4932 47.0407 35.4932 48.346V48.544C35.4932 49.9227 35.8306 50.9713 36.5052 51.69C37.1946 52.394 38.1552 52.746 39.3872 52.746C40.0472 52.746 40.6632 52.6507 41.2352 52.46C41.8219 52.2547 42.3792 51.9247 42.9072 51.47L43.5232 52.724C43.0392 53.1933 42.4232 53.56 41.6752 53.824C40.9419 54.0733 40.1646 54.198 39.3432 54.198ZM50.078 54.198C49.198 54.198 48.3767 54.0807 47.614 53.846C46.8513 53.5967 46.2207 53.252 45.722 52.812L46.338 51.558C46.8807 51.9833 47.4673 52.2987 48.098 52.504C48.7433 52.7093 49.4107 52.812 50.1 52.812C50.98 52.812 51.64 52.658 52.08 52.35C52.5347 52.0273 52.762 51.5873 52.762 51.03C52.762 50.6047 52.6153 50.2673 52.322 50.018C52.0433 49.754 51.5813 49.5487 50.936 49.402L48.89 48.984C47.9513 48.7787 47.2473 48.434 46.778 47.95C46.3087 47.4513 46.074 46.8207 46.074 46.058C46.074 45.4127 46.2427 44.848 46.58 44.364C46.9173 43.8653 47.4087 43.4767 48.054 43.198C48.6993 42.9047 49.4547 42.758 50.32 42.758C51.1267 42.758 51.8673 42.8827 52.542 43.132C53.2313 43.3667 53.8033 43.7113 54.258 44.166L53.62 45.398C53.18 44.9727 52.674 44.6573 52.102 44.452C51.5447 44.232 50.9653 44.122 50.364 44.122C49.4987 44.122 48.846 44.298 48.406 44.65C47.9807 44.9873 47.768 45.4347 47.768 45.992C47.768 46.4173 47.9 46.7693 48.164 47.048C48.4427 47.312 48.868 47.51 49.44 47.642L51.486 48.06C52.4833 48.28 53.224 48.6247 53.708 49.094C54.2067 49.5487 54.456 50.1647 54.456 50.942C54.456 51.602 54.2727 52.1813 53.906 52.68C53.5393 53.164 53.026 53.538 52.366 53.802C51.7207 54.066 50.958 54.198 50.078 54.198ZM62.2241 54.198C60.4934 54.198 59.1294 53.6993 58.1321 52.702C57.1347 51.69 56.6361 50.2893 56.6361 48.5C56.6361 47.3413 56.8561 46.3367 57.2961 45.486C57.7361 44.6207 58.3521 43.9533 59.1441 43.484C59.9361 43 60.8454 42.758 61.8721 42.758C62.8841 42.758 63.7347 42.9707 64.4241 43.396C65.1134 43.8213 65.6414 44.43 66.0081 45.222C66.3747 45.9993 66.5581 46.9233 66.5581 47.994V48.654H58.0001V47.532H65.3921L65.0181 47.818C65.0181 46.6447 64.7541 45.728 64.2261 45.068C63.6981 44.408 62.9134 44.078 61.8721 44.078C60.7721 44.078 59.9141 44.4667 59.2981 45.244C58.6821 46.0067 58.3741 47.0407 58.3741 48.346V48.544C58.3741 49.9227 58.7114 50.9713 59.3861 51.69C60.0754 52.394 61.0361 52.746 62.2681 52.746C62.9281 52.746 63.5441 52.6507 64.1161 52.46C64.7027 52.2547 65.2601 51.9247 65.7881 51.47L66.4041 52.724C65.9201 53.1933 65.3041 53.56 64.5561 53.824C63.8227 54.0733 63.0454 54.198 62.2241 54.198ZM73.2009 54.198C72.1155 54.198 71.2869 53.89 70.7149 53.274C70.1429 52.6433 69.8569 51.6973 69.8569 50.436V44.342H67.7009V42.956H69.8569V39.942L71.6389 39.436V42.956H74.8069V44.342H71.6389V50.238C71.6389 51.118 71.7855 51.7487 72.0789 52.13C72.3869 52.4967 72.8415 52.68 73.4429 52.68C73.7215 52.68 73.9709 52.658 74.1909 52.614C74.4109 52.5553 74.6089 52.4893 74.7849 52.416V53.912C74.5795 54 74.3302 54.066 74.0369 54.11C73.7582 54.1687 73.4795 54.198 73.2009 54.198ZM80.613 54.198C79.5277 54.198 78.699 53.89 78.127 53.274C77.555 52.6433 77.269 51.6973 77.269 50.436V44.342H75.113V42.956H77.269V39.942L79.051 39.436V42.956H82.219V44.342H79.051V50.238C79.051 51.118 79.1977 51.7487 79.491 52.13C79.799 52.4967 80.2537 52.68 80.855 52.68C81.1337 52.68 81.383 52.658 81.603 52.614C81.823 52.5553 82.021 52.4893 82.197 52.416V53.912C81.9917 54 81.7423 54.066 81.449 54.11C81.1703 54.1687 80.8917 54.198 80.613 54.198ZM84.3884 54V42.956H86.1704V54H84.3884ZM84.1684 40.448V38.446H86.3684V40.448H84.1684ZM89.6306 54V45.508C89.6306 45.0973 89.6086 44.6793 89.5646 44.254C89.5352 43.814 89.4986 43.3813 89.4546 42.956H91.1706L91.3906 45.376H91.1266C91.4492 44.5253 91.9626 43.88 92.6666 43.44C93.3852 42.9853 94.2139 42.758 95.1526 42.758C96.4579 42.758 97.4406 43.11 98.1006 43.814C98.7752 44.5033 99.1126 45.596 99.1126 47.092V54H97.3306V47.202C97.3306 46.1607 97.1179 45.4053 96.6926 44.936C96.2819 44.452 95.6366 44.21 94.7566 44.21C93.7299 44.21 92.9159 44.5253 92.3146 45.156C91.7132 45.7867 91.4126 46.63 91.4126 47.686V54H89.6306ZM107.383 58.906C106.43 58.906 105.55 58.7887 104.743 58.554C103.937 58.3193 103.211 57.96 102.565 57.476L103.093 56.134C103.548 56.4567 103.995 56.7133 104.435 56.904C104.875 57.0947 105.33 57.234 105.799 57.322C106.269 57.4247 106.767 57.476 107.295 57.476C108.381 57.476 109.202 57.19 109.759 56.618C110.317 56.046 110.595 55.232 110.595 54.176V50.942H110.815C110.581 51.8073 110.097 52.4967 109.363 53.01C108.63 53.5087 107.772 53.758 106.789 53.758C105.777 53.758 104.897 53.538 104.149 53.098C103.416 52.6433 102.844 52.0053 102.433 51.184C102.037 50.348 101.839 49.3653 101.839 48.236C101.839 47.1213 102.037 46.1533 102.433 45.332C102.844 44.5107 103.416 43.88 104.149 43.44C104.897 42.9853 105.777 42.758 106.789 42.758C107.787 42.758 108.645 43.0073 109.363 43.506C110.097 44.0047 110.581 44.694 110.815 45.574L110.595 45.354L110.793 42.956H112.531C112.473 43.3813 112.429 43.814 112.399 44.254C112.37 44.6793 112.355 45.0973 112.355 45.508V53.934C112.355 55.5767 111.93 56.816 111.079 57.652C110.243 58.488 109.011 58.906 107.383 58.906ZM107.119 52.306C108.19 52.306 109.033 51.954 109.649 51.25C110.265 50.5313 110.573 49.5267 110.573 48.236C110.573 46.9453 110.265 45.948 109.649 45.244C109.033 44.54 108.19 44.188 107.119 44.188C106.063 44.188 105.22 44.54 104.589 45.244C103.959 45.948 103.643 46.9453 103.643 48.236C103.643 49.5267 103.959 50.5313 104.589 51.25C105.22 51.954 106.063 52.306 107.119 52.306ZM121.513 54V42.956H123.295V54H121.513ZM121.293 40.448V38.446H123.493V40.448H121.293ZM126.756 54V45.508C126.756 45.0973 126.734 44.6793 126.69 44.254C126.66 43.814 126.624 43.3813 126.58 42.956H128.296L128.516 45.376H128.252C128.574 44.5253 129.088 43.88 129.792 43.44C130.51 42.9853 131.339 42.758 132.278 42.758C133.583 42.758 134.566 43.11 135.226 43.814C135.9 44.5033 136.238 45.596 136.238 47.092V54H134.456V47.202C134.456 46.1607 134.243 45.4053 133.818 44.936C133.407 44.452 132.762 44.21 131.882 44.21C130.855 44.21 130.041 44.5253 129.44 45.156C128.838 45.7867 128.538 46.63 128.538 47.686V54H126.756ZM143.826 54.198C142.858 54.198 142.008 53.9707 141.274 53.516C140.541 53.0467 139.969 52.3867 139.558 51.536C139.162 50.6853 138.964 49.666 138.964 48.478C138.964 47.2753 139.162 46.2487 139.558 45.398C139.969 44.5473 140.541 43.8947 141.274 43.44C142.008 42.9853 142.858 42.758 143.826 42.758C144.824 42.758 145.682 43.0073 146.4 43.506C147.134 44.0047 147.625 44.6793 147.874 45.53H147.61V37.808H149.392V54H147.632V51.36H147.874C147.64 52.24 147.156 52.9367 146.422 53.45C145.689 53.9487 144.824 54.198 143.826 54.198ZM144.2 52.746C145.242 52.746 146.078 52.3867 146.708 51.668C147.339 50.9347 147.654 49.8713 147.654 48.478C147.654 47.07 147.339 46.0067 146.708 45.288C146.078 44.5547 145.242 44.188 144.2 44.188C143.159 44.188 142.323 44.5547 141.692 45.288C141.076 46.0067 140.768 47.07 140.768 48.478C140.768 49.8713 141.076 50.9347 141.692 51.668C142.323 52.3867 143.159 52.746 144.2 52.746ZM156.732 54.198C155.426 54.198 154.436 53.8387 153.762 53.12C153.102 52.4013 152.772 51.3013 152.772 49.82V42.956H154.554V49.776C154.554 50.788 154.759 51.536 155.17 52.02C155.58 52.4893 156.218 52.724 157.084 52.724C158.052 52.724 158.829 52.4087 159.416 51.778C160.002 51.1473 160.296 50.304 160.296 49.248V42.956H162.078V54H160.34V51.514H160.626C160.318 52.3647 159.819 53.0247 159.13 53.494C158.455 53.9633 157.656 54.198 156.732 54.198ZM169.209 54.198C168.329 54.198 167.508 54.0807 166.745 53.846C165.982 53.5967 165.352 53.252 164.853 52.812L165.469 51.558C166.012 51.9833 166.598 52.2987 167.229 52.504C167.874 52.7093 168.542 52.812 169.231 52.812C170.111 52.812 170.771 52.658 171.211 52.35C171.666 52.0273 171.893 51.5873 171.893 51.03C171.893 50.6047 171.746 50.2673 171.453 50.018C171.174 49.754 170.712 49.5487 170.067 49.402L168.021 48.984C167.082 48.7787 166.378 48.434 165.909 47.95C165.44 47.4513 165.205 46.8207 165.205 46.058C165.205 45.4127 165.374 44.848 165.711 44.364C166.048 43.8653 166.54 43.4767 167.185 43.198C167.83 42.9047 168.586 42.758 169.451 42.758C170.258 42.758 170.998 42.8827 171.673 43.132C172.362 43.3667 172.934 43.7113 173.389 44.166L172.751 45.398C172.311 44.9727 171.805 44.6573 171.233 44.452C170.676 44.232 170.096 44.122 169.495 44.122C168.63 44.122 167.977 44.298 167.537 44.65C167.112 44.9873 166.899 45.4347 166.899 45.992C166.899 46.4173 167.031 46.7693 167.295 47.048C167.574 47.312 167.999 47.51 168.571 47.642L170.617 48.06C171.614 48.28 172.355 48.6247 172.839 49.094C173.338 49.5487 173.587 50.1647 173.587 50.942C173.587 51.602 173.404 52.1813 173.037 52.68C172.67 53.164 172.157 53.538 171.497 53.802C170.852 54.066 170.089 54.198 169.209 54.198ZM180.258 54.198C179.172 54.198 178.344 53.89 177.772 53.274C177.2 52.6433 176.914 51.6973 176.914 50.436V44.342H174.758V42.956H176.914V39.942L178.696 39.436V42.956H181.864V44.342H178.696V50.238C178.696 51.118 178.842 51.7487 179.136 52.13C179.444 52.4967 179.898 52.68 180.5 52.68C180.778 52.68 181.028 52.658 181.248 52.614C181.468 52.5553 181.666 52.4893 181.842 52.416V53.912C181.636 54 181.387 54.066 181.094 54.11C180.815 54.1687 180.536 54.198 180.258 54.198ZM183.989 54V45.618C183.989 45.178 183.974 44.7307 183.945 44.276C183.93 43.8213 183.901 43.3813 183.857 42.956H185.573L185.793 45.64L185.485 45.662C185.632 45.002 185.888 44.4593 186.255 44.034C186.622 43.6087 187.054 43.2933 187.553 43.088C188.052 42.868 188.572 42.758 189.115 42.758C189.335 42.758 189.526 42.7653 189.687 42.78C189.863 42.7947 190.024 42.8313 190.171 42.89L190.149 44.474C189.929 44.4007 189.724 44.3567 189.533 44.342C189.357 44.3127 189.152 44.298 188.917 44.298C188.272 44.298 187.707 44.452 187.223 44.76C186.754 45.068 186.394 45.464 186.145 45.948C185.91 46.432 185.793 46.9453 185.793 47.488V54H183.989ZM192.251 58.994L191.833 57.52C192.522 57.3587 193.094 57.168 193.549 56.948C194.018 56.7427 194.407 56.464 194.715 56.112C195.023 55.76 195.287 55.32 195.507 54.792L196.079 53.494L196.035 54.242L191.217 42.956H193.153L197.135 52.658H196.563L200.501 42.956H202.371L197.267 54.924C196.974 55.628 196.651 56.2147 196.299 56.684C195.947 57.168 195.566 57.5567 195.155 57.85C194.759 58.158 194.319 58.4 193.835 58.576C193.351 58.752 192.823 58.8913 192.251 58.994ZM202.952 54V51.756H205.196V54H202.952ZM214.245 54V38.49H216.071V52.416H223.903V54H214.245ZM230.459 54.198C229.403 54.198 228.479 53.9707 227.687 53.516C226.91 53.0467 226.309 52.3867 225.883 51.536C225.458 50.6707 225.245 49.6513 225.245 48.478C225.245 47.29 225.458 46.2707 225.883 45.42C226.309 44.5693 226.91 43.9167 227.687 43.462C228.479 42.9927 229.403 42.758 230.459 42.758C231.53 42.758 232.454 42.9927 233.231 43.462C234.023 43.9167 234.632 44.5693 235.057 45.42C235.497 46.2707 235.717 47.29 235.717 48.478C235.717 49.6513 235.497 50.6707 235.057 51.536C234.632 52.3867 234.023 53.0467 233.231 53.516C232.454 53.9707 231.53 54.198 230.459 54.198ZM230.459 52.746C231.515 52.746 232.351 52.3867 232.967 51.668C233.583 50.9347 233.891 49.8713 233.891 48.478C233.891 47.07 233.576 46.0067 232.945 45.288C232.329 44.5547 231.501 44.188 230.459 44.188C229.418 44.188 228.589 44.5547 227.973 45.288C227.357 46.0067 227.049 47.07 227.049 48.478C227.049 49.8713 227.357 50.9347 227.973 51.668C228.589 52.3867 229.418 52.746 230.459 52.746ZM238.452 54V45.618C238.452 45.178 238.437 44.7307 238.408 44.276C238.393 43.8213 238.364 43.3813 238.32 42.956H240.036L240.256 45.64L239.948 45.662C240.094 45.002 240.351 44.4593 240.718 44.034C241.084 43.6087 241.517 43.2933 242.016 43.088C242.514 42.868 243.035 42.758 243.578 42.758C243.798 42.758 243.988 42.7653 244.15 42.78C244.326 42.7947 244.487 42.8313 244.634 42.89L244.612 44.474C244.392 44.4007 244.186 44.3567 243.996 44.342C243.82 44.3127 243.614 44.298 243.38 44.298C242.734 44.298 242.17 44.452 241.686 44.76C241.216 45.068 240.857 45.464 240.608 45.948C240.373 46.432 240.256 46.9453 240.256 47.488V54H238.452ZM251.265 54.198C249.534 54.198 248.17 53.6993 247.173 52.702C246.176 51.69 245.677 50.2893 245.677 48.5C245.677 47.3413 245.897 46.3367 246.337 45.486C246.777 44.6207 247.393 43.9533 248.185 43.484C248.977 43 249.886 42.758 250.913 42.758C251.925 42.758 252.776 42.9707 253.465 43.396C254.154 43.8213 254.682 44.43 255.049 45.222C255.416 45.9993 255.599 46.9233 255.599 47.994V48.654H247.041V47.532H254.433L254.059 47.818C254.059 46.6447 253.795 45.728 253.267 45.068C252.739 44.408 251.954 44.078 250.913 44.078C249.813 44.078 248.955 44.4667 248.339 45.244C247.723 46.0067 247.415 47.0407 247.415 48.346V48.544C247.415 49.9227 247.752 50.9713 248.427 51.69C249.116 52.394 250.077 52.746 251.309 52.746C251.969 52.746 252.585 52.6507 253.157 52.46C253.744 52.2547 254.301 51.9247 254.829 51.47L255.445 52.724C254.961 53.1933 254.345 53.56 253.597 53.824C252.864 54.0733 252.086 54.198 251.265 54.198ZM258.326 54V45.508C258.326 45.0973 258.304 44.6793 258.26 44.254C258.231 43.814 258.194 43.3813 258.15 42.956H259.866L260.086 45.376H259.822C260.115 44.54 260.577 43.8947 261.208 43.44C261.853 42.9853 262.631 42.758 263.54 42.758C264.464 42.758 265.212 42.978 265.784 43.418C266.371 43.858 266.767 44.54 266.972 45.464H266.642C266.921 44.628 267.412 43.968 268.116 43.484C268.82 43 269.641 42.758 270.58 42.758C271.797 42.758 272.714 43.11 273.33 43.814C273.946 44.5033 274.254 45.596 274.254 47.092V54H272.472V47.202C272.472 46.1607 272.289 45.4053 271.922 44.936C271.555 44.452 270.969 44.21 270.162 44.21C269.238 44.21 268.505 44.5327 267.962 45.178C267.434 45.8087 267.17 46.6593 267.17 47.73V54H265.388V47.202C265.388 46.1607 265.205 45.4053 264.838 44.936C264.471 44.452 263.885 44.21 263.078 44.21C262.154 44.21 261.428 44.5327 260.9 45.178C260.372 45.8087 260.108 46.6593 260.108 47.73V54H258.326ZM283.575 54V38.49H285.401V54H283.575ZM289.07 58.752V45.508C289.07 45.0973 289.048 44.6793 289.004 44.254C288.975 43.814 288.938 43.3813 288.894 42.956H290.61L290.852 45.574H290.588C290.823 44.7087 291.299 44.0267 292.018 43.528C292.737 43.0147 293.595 42.758 294.592 42.758C295.589 42.758 296.447 42.9853 297.166 43.44C297.899 43.8947 298.471 44.5473 298.882 45.398C299.293 46.2487 299.498 47.2753 299.498 48.478C299.498 49.666 299.293 50.6853 298.882 51.536C298.486 52.3867 297.921 53.0467 297.188 53.516C296.455 53.9707 295.589 54.198 294.592 54.198C293.609 54.198 292.759 53.9487 292.04 53.45C291.321 52.9513 290.845 52.2693 290.61 51.404H290.852V58.752H289.07ZM294.24 52.746C295.296 52.746 296.132 52.3867 296.748 51.668C297.379 50.9347 297.694 49.8713 297.694 48.478C297.694 47.07 297.379 46.0067 296.748 45.288C296.132 44.5547 295.296 44.188 294.24 44.188C293.199 44.188 292.363 44.5547 291.732 45.288C291.116 46.0067 290.808 47.07 290.808 48.478C290.808 49.8713 291.116 50.9347 291.732 51.668C292.363 52.3867 293.199 52.746 294.24 52.746ZM305.935 54.198C305.055 54.198 304.234 54.0807 303.471 53.846C302.709 53.5967 302.078 53.252 301.579 52.812L302.195 51.558C302.738 51.9833 303.325 52.2987 303.955 52.504C304.601 52.7093 305.268 52.812 305.957 52.812C306.837 52.812 307.497 52.658 307.937 52.35C308.392 52.0273 308.619 51.5873 308.619 51.03C308.619 50.6047 308.473 50.2673 308.179 50.018C307.901 49.754 307.439 49.5487 306.793 49.402L304.747 48.984C303.809 48.7787 303.105 48.434 302.635 47.95C302.166 47.4513 301.931 46.8207 301.931 46.058C301.931 45.4127 302.1 44.848 302.437 44.364C302.775 43.8653 303.266 43.4767 303.911 43.198C304.557 42.9047 305.312 42.758 306.177 42.758C306.984 42.758 307.725 42.8827 308.399 43.132C309.089 43.3667 309.661 43.7113 310.115 44.166L309.477 45.398C309.037 44.9727 308.531 44.6573 307.959 44.452C307.402 44.232 306.823 44.122 306.221 44.122C305.356 44.122 304.703 44.298 304.263 44.65C303.838 44.9873 303.625 45.4347 303.625 45.992C303.625 46.4173 303.757 46.7693 304.021 47.048C304.3 47.312 304.725 47.51 305.297 47.642L307.343 48.06C308.341 48.28 309.081 48.6247 309.565 49.094C310.064 49.5487 310.313 50.1647 310.313 50.942C310.313 51.602 310.13 52.1813 309.763 52.68C309.397 53.164 308.883 53.538 308.223 53.802C307.578 54.066 306.815 54.198 305.935 54.198ZM317.07 54.198C315.764 54.198 314.774 53.8387 314.1 53.12C313.44 52.4013 313.11 51.3013 313.11 49.82V42.956H314.892V49.776C314.892 50.788 315.097 51.536 315.508 52.02C315.918 52.4893 316.556 52.724 317.422 52.724C318.39 52.724 319.167 52.4087 319.754 51.778C320.34 51.1473 320.634 50.304 320.634 49.248V42.956H322.416V54H320.678V51.514H320.964C320.656 52.3647 320.157 53.0247 319.468 53.494C318.793 53.9633 317.994 54.198 317.07 54.198ZM325.873 54V45.508C325.873 45.0973 325.851 44.6793 325.807 44.254C325.777 43.814 325.741 43.3813 325.697 42.956H327.413L327.633 45.376H327.369C327.662 44.54 328.124 43.8947 328.755 43.44C329.4 42.9853 330.177 42.758 331.087 42.758C332.011 42.758 332.759 42.978 333.331 43.418C333.917 43.858 334.313 44.54 334.519 45.464H334.189C334.467 44.628 334.959 43.968 335.663 43.484C336.367 43 337.188 42.758 338.127 42.758C339.344 42.758 340.261 43.11 340.877 43.814C341.493 44.5033 341.801 45.596 341.801 47.092V54H340.019V47.202C340.019 46.1607 339.835 45.4053 339.469 44.936C339.102 44.452 338.515 44.21 337.709 44.21C336.785 44.21 336.051 44.5327 335.509 45.178C334.981 45.8087 334.717 46.6593 334.717 47.73V54H332.935V47.202C332.935 46.1607 332.751 45.4053 332.385 44.936C332.018 44.452 331.431 44.21 330.625 44.21C329.701 44.21 328.975 44.5327 328.447 45.178C327.919 45.8087 327.655 46.6593 327.655 47.73V54H325.873ZM350.924 54V37.808H352.706V45.398H352.42C352.728 44.5327 353.241 43.88 353.96 43.44C354.693 42.9853 355.536 42.758 356.49 42.758C357.81 42.758 358.792 43.1173 359.438 43.836C360.083 44.54 360.406 45.6107 360.406 47.048V54H358.624V47.158C358.624 46.1313 358.418 45.3833 358.008 44.914C357.612 44.4447 356.966 44.21 356.072 44.21C355.045 44.21 354.224 44.5253 353.608 45.156C353.006 45.7867 352.706 46.6153 352.706 47.642V54H350.924ZM368.016 54.198C367.034 54.198 366.176 53.9707 365.442 53.516C364.709 53.0467 364.137 52.3867 363.726 51.536C363.33 50.6853 363.132 49.666 363.132 48.478C363.132 47.2753 363.33 46.2487 363.726 45.398C364.137 44.5473 364.709 43.8947 365.442 43.44C366.176 42.9853 367.034 42.758 368.016 42.758C369.014 42.758 369.872 43.0147 370.59 43.528C371.324 44.0267 371.808 44.7087 372.042 45.574H371.778L372.02 42.956H373.736C373.692 43.3813 373.648 43.814 373.604 44.254C373.575 44.6793 373.56 45.0973 373.56 45.508V54H371.778V51.404H372.02C371.786 52.2693 371.302 52.9513 370.568 53.45C369.835 53.9487 368.984 54.198 368.016 54.198ZM368.368 52.746C369.424 52.746 370.26 52.3867 370.876 51.668C371.492 50.9347 371.8 49.8713 371.8 48.478C371.8 47.07 371.492 46.0067 370.876 45.288C370.26 44.5547 369.424 44.188 368.368 44.188C367.327 44.188 366.491 44.5547 365.86 45.288C365.244 46.0067 364.936 47.07 364.936 48.478C364.936 49.8713 365.244 50.9347 365.86 51.668C366.491 52.3867 367.327 52.746 368.368 52.746ZM380.68 54.198C379.8 54.198 378.978 54.0807 378.216 53.846C377.453 53.5967 376.822 53.252 376.324 52.812L376.94 51.558C377.482 51.9833 378.069 52.2987 378.7 52.504C379.345 52.7093 380.012 52.812 380.702 52.812C381.582 52.812 382.242 52.658 382.682 52.35C383.136 52.0273 383.364 51.5873 383.364 51.03C383.364 50.6047 383.217 50.2673 382.924 50.018C382.645 49.754 382.183 49.5487 381.538 49.402L379.492 48.984C378.553 48.7787 377.849 48.434 377.38 47.95C376.91 47.4513 376.676 46.8207 376.676 46.058C376.676 45.4127 376.844 44.848 377.182 44.364C377.519 43.8653 378.01 43.4767 378.656 43.198C379.301 42.9047 380.056 42.758 380.922 42.758C381.728 42.758 382.469 42.8827 383.144 43.132C383.833 43.3667 384.405 43.7113 384.86 44.166L384.222 45.398C383.782 44.9727 383.276 44.6573 382.704 44.452C382.146 44.232 381.567 44.122 380.966 44.122C380.1 44.122 379.448 44.298 379.008 44.65C378.582 44.9873 378.37 45.4347 378.37 45.992C378.37 46.4173 378.502 46.7693 378.766 47.048C379.044 47.312 379.47 47.51 380.042 47.642L382.088 48.06C383.085 48.28 383.826 48.6247 384.31 49.094C384.808 49.5487 385.058 50.1647 385.058 50.942C385.058 51.602 384.874 52.1813 384.508 52.68C384.141 53.164 383.628 53.538 382.968 53.802C382.322 54.066 381.56 54.198 380.68 54.198ZM399.2 54.198C398.203 54.198 397.345 53.9487 396.626 53.45C395.907 52.9367 395.423 52.24 395.174 51.36H395.416V54H393.656V37.808H395.438V45.53H395.174C395.423 44.6793 395.907 44.0047 396.626 43.506C397.345 43.0073 398.203 42.758 399.2 42.758C400.197 42.758 401.055 42.9927 401.774 43.462C402.507 43.9167 403.072 44.5693 403.468 45.42C403.879 46.2707 404.084 47.29 404.084 48.478C404.084 49.666 403.879 50.6853 403.468 51.536C403.057 52.3867 402.485 53.0467 401.752 53.516C401.033 53.9707 400.183 54.198 399.2 54.198ZM398.826 52.746C399.867 52.746 400.703 52.3867 401.334 51.668C401.965 50.9493 402.28 49.886 402.28 48.478C402.28 47.07 401.965 46.0067 401.334 45.288C400.703 44.5547 399.867 44.188 398.826 44.188C397.785 44.188 396.949 44.5547 396.318 45.288C395.702 46.0067 395.394 47.07 395.394 48.478C395.394 49.8713 395.702 50.9347 396.318 51.668C396.949 52.3867 397.785 52.746 398.826 52.746ZM411.753 54.198C410.023 54.198 408.659 53.6993 407.661 52.702C406.664 51.69 406.165 50.2893 406.165 48.5C406.165 47.3413 406.385 46.3367 406.825 45.486C407.265 44.6207 407.881 43.9533 408.673 43.484C409.465 43 410.375 42.758 411.401 42.758C412.413 42.758 413.264 42.9707 413.953 43.396C414.643 43.8213 415.171 44.43 415.537 45.222C415.904 45.9993 416.087 46.9233 416.087 47.994V48.654H407.529V47.532H414.921L414.547 47.818C414.547 46.6447 414.283 45.728 413.755 45.068C413.227 44.408 412.443 44.078 411.401 44.078C410.301 44.078 409.443 44.4667 408.827 45.244C408.211 46.0067 407.903 47.0407 407.903 48.346V48.544C407.903 49.9227 408.241 50.9713 408.915 51.69C409.605 52.394 410.565 52.746 411.797 52.746C412.457 52.746 413.073 52.6507 413.645 52.46C414.232 52.2547 414.789 51.9247 415.317 51.47L415.933 52.724C415.449 53.1933 414.833 53.56 414.085 53.824C413.352 54.0733 412.575 54.198 411.753 54.198ZM423.72 54.198C421.99 54.198 420.626 53.6993 419.628 52.702C418.631 51.69 418.132 50.2893 418.132 48.5C418.132 47.3413 418.352 46.3367 418.792 45.486C419.232 44.6207 419.848 43.9533 420.64 43.484C421.432 43 422.342 42.758 423.368 42.758C424.38 42.758 425.231 42.9707 425.92 43.396C426.61 43.8213 427.138 44.43 427.504 45.222C427.871 45.9993 428.054 46.9233 428.054 47.994V48.654H419.496V47.532H426.888L426.514 47.818C426.514 46.6447 426.25 45.728 425.722 45.068C425.194 44.408 424.41 44.078 423.368 44.078C422.268 44.078 421.41 44.4667 420.794 45.244C420.178 46.0067 419.87 47.0407 419.87 48.346V48.544C419.87 49.9227 420.208 50.9713 420.882 51.69C421.572 52.394 422.532 52.746 423.764 52.746C424.424 52.746 425.04 52.6507 425.612 52.46C426.199 52.2547 426.756 51.9247 427.284 51.47L427.9 52.724C427.416 53.1933 426.8 53.56 426.052 53.824C425.319 54.0733 424.542 54.198 423.72 54.198ZM430.781 54V45.508C430.781 45.0973 430.759 44.6793 430.715 44.254C430.686 43.814 430.649 43.3813 430.605 42.956H432.321L432.541 45.376H432.277C432.6 44.5253 433.113 43.88 433.817 43.44C434.536 42.9853 435.364 42.758 436.303 42.758C437.608 42.758 438.591 43.11 439.251 43.814C439.926 44.5033 440.263 45.596 440.263 47.092V54H438.481V47.202C438.481 46.1607 438.268 45.4053 437.843 44.936C437.432 44.452 436.787 44.21 435.907 44.21C434.88 44.21 434.066 44.5253 433.465 45.156C432.864 45.7867 432.563 46.63 432.563 47.686V54H430.781ZM453.324 54.198C452.239 54.198 451.41 53.89 450.838 53.274C450.266 52.6433 449.98 51.6973 449.98 50.436V44.342H447.824V42.956H449.98V39.942L451.762 39.436V42.956H454.93V44.342H451.762V50.238C451.762 51.118 451.909 51.7487 452.202 52.13C452.51 52.4967 452.965 52.68 453.566 52.68C453.845 52.68 454.094 52.658 454.314 52.614C454.534 52.5553 454.732 52.4893 454.908 52.416V53.912C454.703 54 454.453 54.066 454.16 54.11C453.881 54.1687 453.603 54.198 453.324 54.198ZM457.099 54V37.808H458.881V45.398H458.595C458.903 44.5327 459.417 43.88 460.135 43.44C460.869 42.9853 461.712 42.758 462.665 42.758C463.985 42.758 464.968 43.1173 465.613 43.836C466.259 44.54 466.581 45.6107 466.581 47.048V54H464.799V47.158C464.799 46.1313 464.594 45.3833 464.183 44.914C463.787 44.4447 463.142 44.21 462.247 44.21C461.221 44.21 460.399 44.5253 459.783 45.156C459.182 45.7867 458.881 46.6153 458.881 47.642V54H457.099ZM474.896 54.198C473.165 54.198 471.801 53.6993 470.804 52.702C469.807 51.69 469.308 50.2893 469.308 48.5C469.308 47.3413 469.528 46.3367 469.968 45.486C470.408 44.6207 471.024 43.9533 471.816 43.484C472.608 43 473.517 42.758 474.544 42.758C475.556 42.758 476.407 42.9707 477.096 43.396C477.785 43.8213 478.313 44.43 478.68 45.222C479.047 45.9993 479.23 46.9233 479.23 47.994V48.654H470.672V47.532H478.064L477.69 47.818C477.69 46.6447 477.426 45.728 476.898 45.068C476.37 44.408 475.585 44.078 474.544 44.078C473.444 44.078 472.586 44.4667 471.97 45.244C471.354 46.0067 471.046 47.0407 471.046 48.346V48.544C471.046 49.9227 471.383 50.9713 472.058 51.69C472.747 52.394 473.708 52.746 474.94 52.746C475.6 52.746 476.216 52.6507 476.788 52.46C477.375 52.2547 477.932 51.9247 478.46 51.47L479.076 52.724C478.592 53.1933 477.976 53.56 477.228 53.824C476.495 54.0733 475.717 54.198 474.896 54.198ZM487.693 54V42.956H489.475V54H487.693ZM487.473 40.448V38.446H489.673V40.448H487.473ZM492.935 54V45.508C492.935 45.0973 492.913 44.6793 492.869 44.254C492.84 43.814 492.803 43.3813 492.759 42.956H494.475L494.695 45.376H494.431C494.754 44.5253 495.267 43.88 495.971 43.44C496.69 42.9853 497.519 42.758 498.457 42.758C499.763 42.758 500.745 43.11 501.405 43.814C502.08 44.5033 502.417 45.596 502.417 47.092V54H500.635V47.202C500.635 46.1607 500.423 45.4053 499.997 44.936C499.587 44.452 498.941 44.21 498.061 44.21C497.035 44.21 496.221 44.5253 495.619 45.156C495.018 45.7867 494.717 46.63 494.717 47.686V54H492.935ZM510.006 54.198C509.038 54.198 508.187 53.9707 507.454 53.516C506.721 53.0467 506.149 52.3867 505.738 51.536C505.342 50.6853 505.144 49.666 505.144 48.478C505.144 47.2753 505.342 46.2487 505.738 45.398C506.149 44.5473 506.721 43.8947 507.454 43.44C508.187 42.9853 509.038 42.758 510.006 42.758C511.003 42.758 511.861 43.0073 512.58 43.506C513.313 44.0047 513.805 44.6793 514.054 45.53H513.79V37.808H515.572V54H513.812V51.36H514.054C513.819 52.24 513.335 52.9367 512.602 53.45C511.869 53.9487 511.003 54.198 510.006 54.198ZM510.38 52.746C511.421 52.746 512.257 52.3867 512.888 51.668C513.519 50.9347 513.834 49.8713 513.834 48.478C513.834 47.07 513.519 46.0067 512.888 45.288C512.257 44.5547 511.421 44.188 510.38 44.188C509.339 44.188 508.503 44.5547 507.872 45.288C507.256 46.0067 506.948 47.07 506.948 48.478C506.948 49.8713 507.256 50.9347 507.872 51.668C508.503 52.3867 509.339 52.746 510.38 52.746ZM522.911 54.198C521.606 54.198 520.616 53.8387 519.941 53.12C519.281 52.4013 518.951 51.3013 518.951 49.82V42.956H520.733V49.776C520.733 50.788 520.939 51.536 521.349 52.02C521.76 52.4893 522.398 52.724 523.263 52.724C524.231 52.724 525.009 52.4087 525.595 51.778C526.182 51.1473 526.475 50.304 526.475 49.248V42.956H528.257V54H526.519V51.514H526.805C526.497 52.3647 525.999 53.0247 525.309 53.494C524.635 53.9633 523.835 54.198 522.911 54.198ZM535.389 54.198C534.509 54.198 533.687 54.0807 532.925 53.846C532.162 53.5967 531.531 53.252 531.033 52.812L531.649 51.558C532.191 51.9833 532.778 52.2987 533.409 52.504C534.054 52.7093 534.721 52.812 535.411 52.812C536.291 52.812 536.951 52.658 537.391 52.35C537.845 52.0273 538.073 51.5873 538.073 51.03C538.073 50.6047 537.926 50.2673 537.633 50.018C537.354 49.754 536.892 49.5487 536.247 49.402L534.201 48.984C533.262 48.7787 532.558 48.434 532.089 47.95C531.619 47.4513 531.385 46.8207 531.385 46.058C531.385 45.4127 531.553 44.848 531.891 44.364C532.228 43.8653 532.719 43.4767 533.365 43.198C534.01 42.9047 534.765 42.758 535.631 42.758C536.437 42.758 537.178 42.8827 537.853 43.132C538.542 43.3667 539.114 43.7113 539.569 44.166L538.931 45.398C538.491 44.9727 537.985 44.6573 537.413 44.452C536.855 44.232 536.276 44.122 535.675 44.122C534.809 44.122 534.157 44.298 533.717 44.65C533.291 44.9873 533.079 45.4347 533.079 45.992C533.079 46.4173 533.211 46.7693 533.475 47.048C533.753 47.312 534.179 47.51 534.751 47.642L536.797 48.06C537.794 48.28 538.535 48.6247 539.019 49.094C539.517 49.5487 539.767 50.1647 539.767 50.942C539.767 51.602 539.583 52.1813 539.217 52.68C538.85 53.164 538.337 53.538 537.677 53.802C537.031 54.066 536.269 54.198 535.389 54.198ZM546.437 54.198C545.352 54.198 544.523 53.89 543.951 53.274C543.379 52.6433 543.093 51.6973 543.093 50.436V44.342H540.937V42.956H543.093V39.942L544.875 39.436V42.956H548.043V44.342H544.875V50.238C544.875 51.118 545.022 51.7487 545.315 52.13C545.623 52.4967 546.078 52.68 546.679 52.68C546.958 52.68 547.207 52.658 547.427 52.614C547.647 52.5553 547.845 52.4893 548.021 52.416V53.912C547.816 54 547.567 54.066 547.273 54.11C546.995 54.1687 546.716 54.198 546.437 54.198ZM550.169 54V45.618C550.169 45.178 550.154 44.7307 550.125 44.276C550.11 43.8213 550.081 43.3813 550.037 42.956H551.753L551.973 45.64L551.665 45.662C551.811 45.002 552.068 44.4593 552.435 44.034C552.801 43.6087 553.234 43.2933 553.733 43.088C554.231 42.868 554.752 42.758 555.295 42.758C555.515 42.758 555.705 42.7653 555.867 42.78C556.043 42.7947 556.204 42.8313 556.351 42.89L556.329 44.474C556.109 44.4007 555.903 44.3567 555.713 44.342C555.537 44.3127 555.331 44.298 555.097 44.298C554.451 44.298 553.887 44.452 553.403 44.76C552.933 45.068 552.574 45.464 552.325 45.948C552.09 46.432 551.973 46.9453 551.973 47.488V54H550.169ZM558.431 58.994L558.013 57.52C558.702 57.3587 559.274 57.168 559.729 56.948C560.198 56.7427 560.587 56.464 560.895 56.112C561.203 55.76 561.467 55.32 561.687 54.792L562.259 53.494L562.215 54.242L557.397 42.956H559.333L563.315 52.658H562.743L566.681 42.956H568.551L563.447 54.924C563.153 55.628 562.831 56.2147 562.479 56.684C562.127 57.168 561.745 57.5567 561.335 57.85C560.939 58.158 560.499 58.4 560.015 58.576C559.531 58.752 559.003 58.8913 558.431 58.994ZM570.668 44.584L570.206 38.49H572.296L571.878 44.584H570.668ZM579.088 54.198C578.208 54.198 577.386 54.0807 576.624 53.846C575.861 53.5967 575.23 53.252 574.732 52.812L575.348 51.558C575.89 51.9833 576.477 52.2987 577.108 52.504C577.753 52.7093 578.42 52.812 579.11 52.812C579.99 52.812 580.65 52.658 581.09 52.35C581.544 52.0273 581.772 51.5873 581.772 51.03C581.772 50.6047 581.625 50.2673 581.332 50.018C581.053 49.754 580.591 49.5487 579.946 49.402L577.9 48.984C576.961 48.7787 576.257 48.434 575.788 47.95C575.318 47.4513 575.084 46.8207 575.084 46.058C575.084 45.4127 575.252 44.848 575.59 44.364C575.927 43.8653 576.418 43.4767 577.064 43.198C577.709 42.9047 578.464 42.758 579.33 42.758C580.136 42.758 580.877 42.8827 581.552 43.132C582.241 43.3667 582.813 43.7113 583.268 44.166L582.63 45.398C582.19 44.9727 581.684 44.6573 581.112 44.452C580.554 44.232 579.975 44.122 579.374 44.122C578.508 44.122 577.856 44.298 577.416 44.65C576.99 44.9873 576.778 45.4347 576.778 45.992C576.778 46.4173 576.91 46.7693 577.174 47.048C577.452 47.312 577.878 47.51 578.45 47.642L580.496 48.06C581.493 48.28 582.234 48.6247 582.718 49.094C583.216 49.5487 583.466 50.1647 583.466 50.942C583.466 51.602 583.282 52.1813 582.916 52.68C582.549 53.164 582.036 53.538 581.376 53.802C580.73 54.066 579.968 54.198 579.088 54.198ZM5.412 91.198C4.532 91.198 3.71067 91.0807 2.948 90.846C2.18533 90.5967 1.55467 90.252 1.056 89.812L1.672 88.558C2.21467 88.9833 2.80133 89.2987 3.432 89.504C4.07733 89.7093 4.74467 89.812 5.434 89.812C6.314 89.812 6.974 89.658 7.414 89.35C7.86867 89.0273 8.096 88.5873 8.096 88.03C8.096 87.6047 7.94933 87.2673 7.656 87.018C7.37733 86.754 6.91533 86.5487 6.27 86.402L4.224 85.984C3.28533 85.7787 2.58133 85.434 2.112 84.95C1.64267 84.4513 1.408 83.8207 1.408 83.058C1.408 82.4127 1.57667 81.848 1.914 81.364C2.25133 80.8653 2.74267 80.4767 3.388 80.198C4.03333 79.9047 4.78867 79.758 5.654 79.758C6.46067 79.758 7.20133 79.8827 7.876 80.132C8.56533 80.3667 9.13733 80.7113 9.592 81.166L8.954 82.398C8.514 81.9727 8.008 81.6573 7.436 81.452C6.87867 81.232 6.29933 81.122 5.698 81.122C4.83267 81.122 4.18 81.298 3.74 81.65C3.31467 81.9873 3.102 82.4347 3.102 82.992C3.102 83.4173 3.234 83.7693 3.498 84.048C3.77667 84.312 4.202 84.51 4.774 84.642L6.82 85.06C7.81733 85.28 8.558 85.6247 9.042 86.094C9.54067 86.5487 9.79 87.1647 9.79 87.942C9.79 88.602 9.60667 89.1813 9.24 89.68C8.87333 90.164 8.36 90.538 7.7 90.802C7.05467 91.066 6.292 91.198 5.412 91.198ZM16.4606 91.198C15.3753 91.198 14.5466 90.89 13.9746 90.274C13.4026 89.6433 13.1166 88.6973 13.1166 87.436V81.342H10.9606V79.956H13.1166V76.942L14.8986 76.436V79.956H18.0666V81.342H14.8986V87.238C14.8986 88.118 15.0453 88.7487 15.3386 89.13C15.6466 89.4967 16.1013 89.68 16.7026 89.68C16.9813 89.68 17.2306 89.658 17.4506 89.614C17.6706 89.5553 17.8686 89.4893 18.0446 89.416V90.912C17.8393 91 17.59 91.066 17.2966 91.11C17.018 91.1687 16.7393 91.198 16.4606 91.198ZM24.438 91.198C23.4554 91.198 22.5974 90.9707 21.864 90.516C21.1307 90.0467 20.5587 89.3867 20.148 88.536C19.752 87.6853 19.554 86.666 19.554 85.478C19.554 84.2753 19.752 83.2487 20.148 82.398C20.5587 81.5473 21.1307 80.8947 21.864 80.44C22.5974 79.9853 23.4554 79.758 24.438 79.758C25.4354 79.758 26.2934 80.0147 27.012 80.528C27.7454 81.0267 28.2294 81.7087 28.464 82.574H28.2L28.442 79.956H30.158C30.114 80.3813 30.07 80.814 30.026 81.254C29.9967 81.6793 29.982 82.0973 29.982 82.508V91H28.2V88.404H28.442C28.2074 89.2693 27.7234 89.9513 26.99 90.45C26.2567 90.9487 25.406 91.198 24.438 91.198ZM24.79 89.746C25.846 89.746 26.682 89.3867 27.298 88.668C27.914 87.9347 28.222 86.8713 28.222 85.478C28.222 84.07 27.914 83.0067 27.298 82.288C26.682 81.5547 25.846 81.188 24.79 81.188C23.7487 81.188 22.9127 81.5547 22.282 82.288C21.666 83.0067 21.358 84.07 21.358 85.478C21.358 86.8713 21.666 87.9347 22.282 88.668C22.9127 89.3867 23.7487 89.746 24.79 89.746ZM33.4275 91V82.508C33.4275 82.0973 33.4055 81.6793 33.3615 81.254C33.3321 80.814 33.2955 80.3813 33.2515 79.956H34.9675L35.1875 82.376H34.9235C35.2461 81.5253 35.7595 80.88 36.4635 80.44C37.1821 79.9853 38.0108 79.758 38.9495 79.758C40.2548 79.758 41.2375 80.11 41.8975 80.814C42.5721 81.5033 42.9095 82.596 42.9095 84.092V91H41.1275V84.202C41.1275 83.1607 40.9148 82.4053 40.4895 81.936C40.0788 81.452 39.4335 81.21 38.5535 81.21C37.5268 81.21 36.7128 81.5253 36.1115 82.156C35.5101 82.7867 35.2095 83.63 35.2095 84.686V91H33.4275ZM50.4981 91.198C49.5301 91.198 48.6794 90.9707 47.9461 90.516C47.2127 90.0467 46.6407 89.3867 46.2301 88.536C45.8341 87.6853 45.6361 86.666 45.6361 85.478C45.6361 84.2753 45.8341 83.2487 46.2301 82.398C46.6407 81.5473 47.2127 80.8947 47.9461 80.44C48.6794 79.9853 49.5301 79.758 50.4981 79.758C51.4954 79.758 52.3534 80.0073 53.0721 80.506C53.8054 81.0047 54.2967 81.6793 54.5461 82.53H54.2821V74.808H56.0641V91H54.3041V88.36H54.5461C54.3114 89.24 53.8274 89.9367 53.0941 90.45C52.3607 90.9487 51.4954 91.198 50.4981 91.198ZM50.8721 89.746C51.9134 89.746 52.7494 89.3867 53.3801 88.668C54.0107 87.9347 54.3261 86.8713 54.3261 85.478C54.3261 84.07 54.0107 83.0067 53.3801 82.288C52.7494 81.5547 51.9134 81.188 50.8721 81.188C49.8307 81.188 48.9947 81.5547 48.3641 82.288C47.7481 83.0067 47.4401 84.07 47.4401 85.478C47.4401 86.8713 47.7481 87.9347 48.3641 88.668C48.9947 89.3867 49.8307 89.746 50.8721 89.746ZM63.7115 91.198C62.7288 91.198 61.8708 90.9707 61.1375 90.516C60.4042 90.0467 59.8322 89.3867 59.4215 88.536C59.0255 87.6853 58.8275 86.666 58.8275 85.478C58.8275 84.2753 59.0255 83.2487 59.4215 82.398C59.8322 81.5473 60.4042 80.8947 61.1375 80.44C61.8708 79.9853 62.7288 79.758 63.7115 79.758C64.7088 79.758 65.5668 80.0147 66.2855 80.528C67.0188 81.0267 67.5028 81.7087 67.7375 82.574H67.4735L67.7155 79.956H69.4315C69.3875 80.3813 69.3435 80.814 69.2995 81.254C69.2702 81.6793 69.2555 82.0973 69.2555 82.508V91H67.4735V88.404H67.7155C67.4808 89.2693 66.9968 89.9513 66.2635 90.45C65.5302 90.9487 64.6795 91.198 63.7115 91.198ZM64.0635 89.746C65.1195 89.746 65.9555 89.3867 66.5715 88.668C67.1875 87.9347 67.4955 86.8713 67.4955 85.478C67.4955 84.07 67.1875 83.0067 66.5715 82.288C65.9555 81.5547 65.1195 81.188 64.0635 81.188C63.0222 81.188 62.1862 81.5547 61.5555 82.288C60.9395 83.0067 60.6315 84.07 60.6315 85.478C60.6315 86.8713 60.9395 87.9347 61.5555 88.668C62.1862 89.3867 63.0222 89.746 64.0635 89.746ZM72.6569 91V82.618C72.6569 82.178 72.6422 81.7307 72.6129 81.276C72.5982 80.8213 72.5689 80.3813 72.5249 79.956H74.2409L74.4609 82.64L74.1529 82.662C74.2996 82.002 74.5562 81.4593 74.9229 81.034C75.2896 80.6087 75.7222 80.2933 76.2209 80.088C76.7196 79.868 77.2402 79.758 77.7829 79.758C78.0029 79.758 78.1936 79.7653 78.3549 79.78C78.5309 79.7947 78.6922 79.8313 78.8389 79.89L78.8169 81.474C78.5969 81.4007 78.3916 81.3567 78.2009 81.342C78.0249 81.3127 77.8196 81.298 77.5849 81.298C76.9396 81.298 76.3749 81.452 75.8909 81.76C75.4216 82.068 75.0622 82.464 74.8129 82.948C74.5782 83.432 74.4609 83.9453 74.4609 84.488V91H72.6569ZM84.7442 91.198C83.7762 91.198 82.9255 90.9707 82.1922 90.516C81.4588 90.0467 80.8868 89.3867 80.4762 88.536C80.0802 87.6853 79.8822 86.666 79.8822 85.478C79.8822 84.2753 80.0802 83.2487 80.4762 82.398C80.8868 81.5473 81.4588 80.8947 82.1922 80.44C82.9255 79.9853 83.7762 79.758 84.7442 79.758C85.7415 79.758 86.5995 80.0073 87.3182 80.506C88.0515 81.0047 88.5428 81.6793 88.7922 82.53H88.5282V74.808H90.3102V91H88.5502V88.36H88.7922C88.5575 89.24 88.0735 89.9367 87.3402 90.45C86.6068 90.9487 85.7415 91.198 84.7442 91.198ZM85.1182 89.746C86.1595 89.746 86.9955 89.3867 87.6262 88.668C88.2568 87.9347 88.5722 86.8713 88.5722 85.478C88.5722 84.07 88.2568 83.0067 87.6262 82.288C86.9955 81.5547 86.1595 81.188 85.1182 81.188C84.0768 81.188 83.2408 81.5547 82.6102 82.288C81.9942 83.0067 81.6862 84.07 81.6862 85.478C81.6862 86.8713 81.9942 87.9347 82.6102 88.668C83.2408 89.3867 84.0768 89.746 85.1182 89.746ZM103.672 91.198C102.704 91.198 101.853 90.9707 101.12 90.516C100.387 90.0467 99.8146 89.3867 99.4039 88.536C99.0079 87.6853 98.8099 86.666 98.8099 85.478C98.8099 84.2753 99.0079 83.2487 99.4039 82.398C99.8146 81.5473 100.387 80.8947 101.12 80.44C101.853 79.9853 102.704 79.758 103.672 79.758C104.669 79.758 105.527 80.0073 106.246 80.506C106.979 81.0047 107.471 81.6793 107.72 82.53H107.456V74.808H109.238V91H107.478V88.36H107.72C107.485 89.24 107.001 89.9367 106.268 90.45C105.535 90.9487 104.669 91.198 103.672 91.198ZM104.046 89.746C105.087 89.746 105.923 89.3867 106.554 88.668C107.185 87.9347 107.5 86.8713 107.5 85.478C107.5 84.07 107.185 83.0067 106.554 82.288C105.923 81.5547 105.087 81.188 104.046 81.188C103.005 81.188 102.169 81.5547 101.538 82.288C100.922 83.0067 100.614 84.07 100.614 85.478C100.614 86.8713 100.922 87.9347 101.538 88.668C102.169 89.3867 103.005 89.746 104.046 89.746ZM116.577 91.198C115.272 91.198 114.282 90.8387 113.607 90.12C112.947 89.4013 112.617 88.3013 112.617 86.82V79.956H114.399V86.776C114.399 87.788 114.605 88.536 115.015 89.02C115.426 89.4893 116.064 89.724 116.929 89.724C117.897 89.724 118.675 89.4087 119.261 88.778C119.848 88.1473 120.141 87.304 120.141 86.248V79.956H121.923V91H120.185V88.514H120.471C120.163 89.3647 119.665 90.0247 118.975 90.494C118.301 90.9633 117.501 91.198 116.577 91.198ZM125.381 91V82.508C125.381 82.0973 125.359 81.6793 125.315 81.254C125.285 80.814 125.249 80.3813 125.205 79.956H126.921L127.141 82.376H126.877C127.17 81.54 127.632 80.8947 128.263 80.44C128.908 79.9853 129.685 79.758 130.595 79.758C131.519 79.758 132.267 79.978 132.839 80.418C133.425 80.858 133.821 81.54 134.027 82.464H133.697C133.975 81.628 134.467 80.968 135.171 80.484C135.875 80 136.696 79.758 137.635 79.758C138.852 79.758 139.769 80.11 140.385 80.814C141.001 81.5033 141.309 82.596 141.309 84.092V91H139.527V84.202C139.527 83.1607 139.343 82.4053 138.977 81.936C138.61 81.452 138.023 81.21 137.217 81.21C136.293 81.21 135.559 81.5327 135.017 82.178C134.489 82.8087 134.225 83.6593 134.225 84.73V91H132.443V84.202C132.443 83.1607 132.259 82.4053 131.893 81.936C131.526 81.452 130.939 81.21 130.133 81.21C129.209 81.21 128.483 81.5327 127.955 82.178C127.427 82.8087 127.163 83.6593 127.163 84.73V91H125.381ZM144.695 91V82.508C144.695 82.0973 144.673 81.6793 144.629 81.254C144.6 80.814 144.563 80.3813 144.519 79.956H146.235L146.455 82.376H146.191C146.484 81.54 146.946 80.8947 147.577 80.44C148.222 79.9853 149 79.758 149.909 79.758C150.833 79.758 151.581 79.978 152.153 80.418C152.74 80.858 153.136 81.54 153.341 82.464H153.011C153.29 81.628 153.781 80.968 154.485 80.484C155.189 80 156.01 79.758 156.949 79.758C158.166 79.758 159.083 80.11 159.699 80.814C160.315 81.5033 160.623 82.596 160.623 84.092V91H158.841V84.202C158.841 83.1607 158.658 82.4053 158.291 81.936C157.924 81.452 157.338 81.21 156.531 81.21C155.607 81.21 154.874 81.5327 154.331 82.178C153.803 82.8087 153.539 83.6593 153.539 84.73V91H151.757V84.202C151.757 83.1607 151.574 82.4053 151.207 81.936C150.84 81.452 150.254 81.21 149.447 81.21C148.523 81.21 147.797 81.5327 147.269 82.178C146.741 82.8087 146.477 83.6593 146.477 84.73V91H144.695ZM163.462 95.994L163.044 94.52C163.733 94.3587 164.305 94.168 164.76 93.948C165.229 93.7427 165.618 93.464 165.926 93.112C166.234 92.76 166.498 92.32 166.718 91.792L167.29 90.494L167.246 91.242L162.428 79.956H164.364L168.346 89.658H167.774L171.712 79.956H173.582L168.478 91.924C168.185 92.628 167.862 93.2147 167.51 93.684C167.158 94.168 166.777 94.5567 166.366 94.85C165.97 95.158 165.53 95.4 165.046 95.576C164.562 95.752 164.034 95.8913 163.462 95.994ZM185.242 91.198C184.157 91.198 183.328 90.89 182.756 90.274C182.184 89.6433 181.898 88.6973 181.898 87.436V81.342H179.742V79.956H181.898V76.942L183.68 76.436V79.956H186.848V81.342H183.68V87.238C183.68 88.118 183.827 88.7487 184.12 89.13C184.428 89.4967 184.883 89.68 185.484 89.68C185.763 89.68 186.012 89.658 186.232 89.614C186.452 89.5553 186.65 89.4893 186.826 89.416V90.912C186.621 91 186.371 91.066 186.078 91.11C185.799 91.1687 185.521 91.198 185.242 91.198ZM193.816 91.198C192.085 91.198 190.721 90.6993 189.724 89.702C188.727 88.69 188.228 87.2893 188.228 85.5C188.228 84.3413 188.448 83.3367 188.888 82.486C189.328 81.6207 189.944 80.9533 190.736 80.484C191.528 80 192.437 79.758 193.464 79.758C194.476 79.758 195.327 79.9707 196.016 80.396C196.705 80.8213 197.233 81.43 197.6 82.222C197.967 82.9993 198.15 83.9233 198.15 84.994V85.654H189.592V84.532H196.984L196.61 84.818C196.61 83.6447 196.346 82.728 195.818 82.068C195.29 81.408 194.505 81.078 193.464 81.078C192.364 81.078 191.506 81.4667 190.89 82.244C190.274 83.0067 189.966 84.0407 189.966 85.346V85.544C189.966 86.9227 190.303 87.9713 190.978 88.69C191.667 89.394 192.628 89.746 193.86 89.746C194.52 89.746 195.136 89.6507 195.708 89.46C196.295 89.2547 196.852 88.9247 197.38 88.47L197.996 89.724C197.512 90.1933 196.896 90.56 196.148 90.824C195.415 91.0733 194.637 91.198 193.816 91.198ZM199.295 91L204.245 84.862V85.742L199.559 79.956H201.715L205.257 84.466H204.619L208.139 79.956H210.273L205.653 85.72V84.906L210.559 91H208.381L204.597 86.182H205.257L201.429 91H199.295ZM216.48 91.198C215.395 91.198 214.566 90.89 213.994 90.274C213.422 89.6433 213.136 88.6973 213.136 87.436V81.342H210.98V79.956H213.136V76.942L214.918 76.436V79.956H218.086V81.342H214.918V87.238C214.918 88.118 215.065 88.7487 215.358 89.13C215.666 89.4967 216.121 89.68 216.722 89.68C217.001 89.68 217.25 89.658 217.47 89.614C217.69 89.5553 217.888 89.4893 218.064 89.416V90.912C217.859 91 217.61 91.066 217.316 91.11C217.038 91.1687 216.759 91.198 216.48 91.198ZM230.898 91.198C229.167 91.198 227.803 90.6993 226.806 89.702C225.809 88.69 225.31 87.2893 225.31 85.5C225.31 84.3413 225.53 83.3367 225.97 82.486C226.41 81.6207 227.026 80.9533 227.818 80.484C228.61 80 229.519 79.758 230.546 79.758C231.558 79.758 232.409 79.9707 233.098 80.396C233.787 80.8213 234.315 81.43 234.682 82.222C235.049 82.9993 235.232 83.9233 235.232 84.994V85.654H226.674V84.532H234.066L233.692 84.818C233.692 83.6447 233.428 82.728 232.9 82.068C232.372 81.408 231.587 81.078 230.546 81.078C229.446 81.078 228.588 81.4667 227.972 82.244C227.356 83.0067 227.048 84.0407 227.048 85.346V85.544C227.048 86.9227 227.385 87.9713 228.06 88.69C228.749 89.394 229.71 89.746 230.942 89.746C231.602 89.746 232.218 89.6507 232.79 89.46C233.377 89.2547 233.934 88.9247 234.462 88.47L235.078 89.724C234.594 90.1933 233.978 90.56 233.23 90.824C232.497 91.0733 231.719 91.198 230.898 91.198ZM241.086 91L236.356 79.956H238.292L242.252 89.68H241.658L245.662 79.956H247.51L242.78 91H241.086ZM254.273 91.198C252.542 91.198 251.178 90.6993 250.181 89.702C249.184 88.69 248.685 87.2893 248.685 85.5C248.685 84.3413 248.905 83.3367 249.345 82.486C249.785 81.6207 250.401 80.9533 251.193 80.484C251.985 80 252.894 79.758 253.921 79.758C254.933 79.758 255.784 79.9707 256.473 80.396C257.162 80.8213 257.69 81.43 258.057 82.222C258.424 82.9993 258.607 83.9233 258.607 84.994V85.654H250.049V84.532H257.441L257.067 84.818C257.067 83.6447 256.803 82.728 256.275 82.068C255.747 81.408 254.962 81.078 253.921 81.078C252.821 81.078 251.963 81.4667 251.347 82.244C250.731 83.0067 250.423 84.0407 250.423 85.346V85.544C250.423 86.9227 250.76 87.9713 251.435 88.69C252.124 89.394 253.085 89.746 254.317 89.746C254.977 89.746 255.593 89.6507 256.165 89.46C256.752 89.2547 257.309 88.9247 257.837 88.47L258.453 89.724C257.969 90.1933 257.353 90.56 256.605 90.824C255.872 91.0733 255.094 91.198 254.273 91.198ZM261.29 91V82.618C261.29 82.178 261.275 81.7307 261.246 81.276C261.231 80.8213 261.202 80.3813 261.158 79.956H262.874L263.094 82.64L262.786 82.662C262.932 82.002 263.189 81.4593 263.556 81.034C263.922 80.6087 264.355 80.2933 264.854 80.088C265.352 79.868 265.873 79.758 266.416 79.758C266.636 79.758 266.826 79.7653 266.988 79.78C267.164 79.7947 267.325 79.8313 267.472 79.89L267.45 81.474C267.23 81.4007 267.024 81.3567 266.834 81.342C266.658 81.3127 266.452 81.298 266.218 81.298C265.572 81.298 265.008 81.452 264.524 81.76C264.054 82.068 263.695 82.464 263.446 82.948C263.211 83.432 263.094 83.9453 263.094 84.488V91H261.29ZM278.736 91.198C277.856 91.198 277.035 91.0807 276.272 90.846C275.51 90.5967 274.879 90.252 274.38 89.812L274.996 88.558C275.539 88.9833 276.126 89.2987 276.756 89.504C277.402 89.7093 278.069 89.812 278.758 89.812C279.638 89.812 280.298 89.658 280.738 89.35C281.193 89.0273 281.42 88.5873 281.42 88.03C281.42 87.6047 281.274 87.2673 280.98 87.018C280.702 86.754 280.24 86.5487 279.594 86.402L277.548 85.984C276.61 85.7787 275.906 85.434 275.436 84.95C274.967 84.4513 274.732 83.8207 274.732 83.058C274.732 82.4127 274.901 81.848 275.238 81.364C275.576 80.8653 276.067 80.4767 276.712 80.198C277.358 79.9047 278.113 79.758 278.978 79.758C279.785 79.758 280.526 79.8827 281.2 80.132C281.89 80.3667 282.462 80.7113 282.916 81.166L282.278 82.398C281.838 81.9727 281.332 81.6573 280.76 81.452C280.203 81.232 279.624 81.122 279.022 81.122C278.157 81.122 277.504 81.298 277.064 81.65C276.639 81.9873 276.426 82.4347 276.426 82.992C276.426 83.4173 276.558 83.7693 276.822 84.048C277.101 84.312 277.526 84.51 278.098 84.642L280.144 85.06C281.142 85.28 281.882 85.6247 282.366 86.094C282.865 86.5487 283.114 87.1647 283.114 87.942C283.114 88.602 282.931 89.1813 282.564 89.68C282.198 90.164 281.684 90.538 281.024 90.802C280.379 91.066 279.616 91.198 278.736 91.198ZM285.976 91V79.956H287.758V91H285.976ZM285.756 77.448V75.446H287.956V77.448H285.756ZM291.218 91V82.508C291.218 82.0973 291.196 81.6793 291.152 81.254C291.123 80.814 291.086 80.3813 291.042 79.956H292.758L292.978 82.376H292.714C293.037 81.5253 293.55 80.88 294.254 80.44C294.973 79.9853 295.802 79.758 296.74 79.758C298.046 79.758 299.028 80.11 299.688 80.814C300.363 81.5033 300.7 82.596 300.7 84.092V91H298.918V84.202C298.918 83.1607 298.706 82.4053 298.28 81.936C297.87 81.452 297.224 81.21 296.344 81.21C295.318 81.21 294.504 81.5253 293.902 82.156C293.301 82.7867 293 83.63 293 84.686V91H291.218ZM308.751 91.198C307.666 91.198 306.72 90.9633 305.913 90.494C305.121 90.0247 304.505 89.3573 304.065 88.492C303.64 87.6267 303.427 86.6 303.427 85.412C303.427 84.2093 303.647 83.19 304.087 82.354C304.527 81.5033 305.143 80.858 305.935 80.418C306.742 79.978 307.68 79.758 308.751 79.758C309.455 79.758 310.137 79.8827 310.797 80.132C311.472 80.3813 312.029 80.7333 312.469 81.188L311.831 82.464C311.391 82.0387 310.907 81.7233 310.379 81.518C309.866 81.3127 309.36 81.21 308.861 81.21C307.717 81.21 306.83 81.5693 306.199 82.288C305.568 83.0067 305.253 84.0553 305.253 85.434C305.253 86.798 305.568 87.854 306.199 88.602C306.83 89.35 307.717 89.724 308.861 89.724C309.345 89.724 309.844 89.6287 310.357 89.438C310.885 89.2473 311.376 88.932 311.831 88.492L312.469 89.746C312.014 90.2153 311.45 90.5747 310.775 90.824C310.1 91.0733 309.426 91.198 308.751 91.198ZM319.693 91.198C317.962 91.198 316.598 90.6993 315.601 89.702C314.603 88.69 314.105 87.2893 314.105 85.5C314.105 84.3413 314.325 83.3367 314.765 82.486C315.205 81.6207 315.821 80.9533 316.613 80.484C317.405 80 318.314 79.758 319.341 79.758C320.353 79.758 321.203 79.9707 321.893 80.396C322.582 80.8213 323.11 81.43 323.477 82.222C323.843 82.9993 324.027 83.9233 324.027 84.994V85.654H315.469V84.532H322.861L322.487 84.818C322.487 83.6447 322.223 82.728 321.695 82.068C321.167 81.408 320.382 81.078 319.341 81.078C318.241 81.078 317.383 81.4667 316.767 82.244C316.151 83.0067 315.843 84.0407 315.843 85.346V85.544C315.843 86.9227 316.18 87.9713 316.855 88.69C317.544 89.394 318.505 89.746 319.737 89.746C320.397 89.746 321.013 89.6507 321.585 89.46C322.171 89.2547 322.729 88.9247 323.257 88.47L323.873 89.724C323.389 90.1933 322.773 90.56 322.025 90.824C321.291 91.0733 320.514 91.198 319.693 91.198ZM336.406 91.198C335.321 91.198 334.492 90.89 333.92 90.274C333.348 89.6433 333.062 88.6973 333.062 87.436V81.342H330.906V79.956H333.062V76.942L334.844 76.436V79.956H338.012V81.342H334.844V87.238C334.844 88.118 334.991 88.7487 335.284 89.13C335.592 89.4967 336.047 89.68 336.648 89.68C336.927 89.68 337.176 89.658 337.396 89.614C337.616 89.5553 337.814 89.4893 337.99 89.416V90.912C337.785 91 337.535 91.066 337.242 91.11C336.963 91.1687 336.685 91.198 336.406 91.198ZM340.181 91V74.808H341.963V82.398H341.677C341.985 81.5327 342.499 80.88 343.217 80.44C343.951 79.9853 344.794 79.758 345.747 79.758C347.067 79.758 348.05 80.1173 348.695 80.836C349.341 81.54 349.663 82.6107 349.663 84.048V91H347.881V84.158C347.881 83.1313 347.676 82.3833 347.265 81.914C346.869 81.4447 346.224 81.21 345.329 81.21C344.303 81.21 343.481 81.5253 342.865 82.156C342.264 82.7867 341.963 83.6153 341.963 84.642V91H340.181ZM357.978 91.198C356.247 91.198 354.883 90.6993 353.886 89.702C352.889 88.69 352.39 87.2893 352.39 85.5C352.39 84.3413 352.61 83.3367 353.05 82.486C353.49 81.6207 354.106 80.9533 354.898 80.484C355.69 80 356.599 79.758 357.626 79.758C358.638 79.758 359.489 79.9707 360.178 80.396C360.867 80.8213 361.395 81.43 361.762 82.222C362.129 82.9993 362.312 83.9233 362.312 84.994V85.654H353.754V84.532H361.146L360.772 84.818C360.772 83.6447 360.508 82.728 359.98 82.068C359.452 81.408 358.667 81.078 357.626 81.078C356.526 81.078 355.668 81.4667 355.052 82.244C354.436 83.0067 354.128 84.0407 354.128 85.346V85.544C354.128 86.9227 354.465 87.9713 355.14 88.69C355.829 89.394 356.79 89.746 358.022 89.746C358.682 89.746 359.298 89.6507 359.87 89.46C360.457 89.2547 361.014 88.9247 361.542 88.47L362.158 89.724C361.674 90.1933 361.058 90.56 360.31 90.824C359.577 91.0733 358.799 91.198 357.978 91.198ZM371.831 91V89.438H375.483V77.052H376.451L372.183 79.714V77.888L375.989 75.49H377.309V89.438H380.741V91H371.831ZM389.115 91.198C388.44 91.198 387.78 91.1247 387.135 90.978C386.489 90.8313 385.881 90.6187 385.309 90.34C384.751 90.0613 384.26 89.724 383.835 89.328L384.517 87.92C385.235 88.492 385.969 88.9173 386.717 89.196C387.465 89.46 388.264 89.592 389.115 89.592C390.229 89.592 391.102 89.2913 391.733 88.69C392.363 88.0887 392.679 87.2967 392.679 86.314C392.679 85.302 392.378 84.4733 391.777 83.828C391.175 83.1827 390.339 82.86 389.269 82.86C388.506 82.86 387.824 83.014 387.223 83.322C386.621 83.6153 386.101 84.0773 385.661 84.708H384.341V75.49H393.537V77.03H386.101V83.212H385.617C386.013 82.596 386.555 82.1267 387.245 81.804C387.949 81.4667 388.741 81.298 389.621 81.298C390.618 81.298 391.476 81.5033 392.195 81.914C392.928 82.3247 393.493 82.8967 393.889 83.63C394.285 84.3633 394.483 85.2213 394.483 86.204C394.483 87.1867 394.263 88.0593 393.823 88.822C393.397 89.57 392.781 90.1567 391.975 90.582C391.183 90.9927 390.229 91.198 389.115 91.198ZM402.02 91.198C400.26 91.198 398.911 90.516 397.972 89.152C397.033 87.788 396.564 85.8153 396.564 83.234C396.564 80.638 397.033 78.6653 397.972 77.316C398.911 75.9667 400.26 75.292 402.02 75.292C403.795 75.292 405.144 75.9667 406.068 77.316C407.007 78.6653 407.476 80.6307 407.476 83.212C407.476 85.808 407.007 87.788 406.068 89.152C405.129 90.516 403.78 91.198 402.02 91.198ZM402.02 89.614C403.252 89.614 404.169 89.0933 404.77 88.052C405.371 87.0107 405.672 85.3973 405.672 83.212C405.672 81.012 405.371 79.406 404.77 78.394C404.169 77.3673 403.252 76.854 402.02 76.854C400.803 76.854 399.886 77.3673 399.27 78.394C398.669 79.4207 398.368 81.0267 398.368 83.212C398.368 85.3973 398.669 87.0107 399.27 88.052C399.886 89.0933 400.803 89.614 402.02 89.614ZM415.211 91.198C413.451 91.198 412.102 90.516 411.163 89.152C410.225 87.788 409.755 85.8153 409.755 83.234C409.755 80.638 410.225 78.6653 411.163 77.316C412.102 75.9667 413.451 75.292 415.211 75.292C416.986 75.292 418.335 75.9667 419.259 77.316C420.198 78.6653 420.667 80.6307 420.667 83.212C420.667 85.808 420.198 87.788 419.259 89.152C418.321 90.516 416.971 91.198 415.211 91.198ZM415.211 89.614C416.443 89.614 417.36 89.0933 417.961 88.052C418.563 87.0107 418.863 85.3973 418.863 83.212C418.863 81.012 418.563 79.406 417.961 78.394C417.36 77.3673 416.443 76.854 415.211 76.854C413.994 76.854 413.077 77.3673 412.461 78.394C411.86 79.4207 411.559 81.0267 411.559 83.212C411.559 85.3973 411.86 87.0107 412.461 88.052C413.077 89.0933 413.994 89.614 415.211 89.614ZM427.215 91.198C426.335 91.198 425.513 91.0807 424.751 90.846C423.988 90.5967 423.357 90.252 422.859 89.812L423.475 88.558C424.017 88.9833 424.604 89.2987 425.235 89.504C425.88 89.7093 426.547 89.812 427.237 89.812C428.117 89.812 428.777 89.658 429.217 89.35C429.671 89.0273 429.899 88.5873 429.899 88.03C429.899 87.6047 429.752 87.2673 429.459 87.018C429.18 86.754 428.718 86.5487 428.073 86.402L426.027 85.984C425.088 85.7787 424.384 85.434 423.915 84.95C423.445 84.4513 423.211 83.8207 423.211 83.058C423.211 82.4127 423.379 81.848 423.717 81.364C424.054 80.8653 424.545 80.4767 425.191 80.198C425.836 79.9047 426.591 79.758 427.457 79.758C428.263 79.758 429.004 79.8827 429.679 80.132C430.368 80.3667 430.94 80.7113 431.395 81.166L430.757 82.398C430.317 81.9727 429.811 81.6573 429.239 81.452C428.681 81.232 428.102 81.122 427.501 81.122C426.635 81.122 425.983 81.298 425.543 81.65C425.117 81.9873 424.905 82.4347 424.905 82.992C424.905 83.4173 425.037 83.7693 425.301 84.048C425.579 84.312 426.005 84.51 426.577 84.642L428.623 85.06C429.62 85.28 430.361 85.6247 430.845 86.094C431.343 86.5487 431.593 87.1647 431.593 87.942C431.593 88.602 431.409 89.1813 431.043 89.68C430.676 90.164 430.163 90.538 429.503 90.802C428.857 91.066 428.095 91.198 427.215 91.198Z" fill="#878787"/>
</svg>
