<svg width="100" height="100" viewBox="0 0 100 100" fill="none" xmlns="http://www.w3.org/2000/svg">
<circle opacity="0.1" cx="50" cy="50" r="50" fill="#6882A0"/>
<g clip-path="url(#clip0_130_1114)">
<path d="M58.1764 41.8209L60.1313 32.9708C56.207 30.5917 51.5981 29.5975 47.042 30.1472C42.4859 30.697 38.2459 32.759 35.0001 36.0033C34.7676 36.2359 34.5409 36.4744 34.323 36.7187C41.4478 31.1514 51.7493 32.3261 58.1764 41.8209Z" fill="#252947"/>
<path d="M58.1764 41.8208C61.6946 52.1253 55.9594 65.8685 43.9238 70.2317C47.2722 71.1777 50.8063 71.256 54.1934 70.4592C57.5804 69.6624 60.709 68.0167 63.2844 65.6771C68.8489 58.5523 67.6741 48.2478 58.1764 41.8208Z" fill="white"/>
<path d="M67.0294 39.8687L58.1764 41.8206C67.6741 48.2477 68.8488 58.5521 63.2844 65.6681C63.5229 65.4473 63.7614 65.2235 63.9969 64.9909C67.2387 61.7456 69.299 57.5072 69.8487 52.9531C70.3984 48.3991 69.4058 43.7922 67.0294 39.8687Z" fill="#252947"/>
<path d="M58.1764 41.8205C51.7493 32.3256 41.4478 31.1509 34.3289 36.7183C31.989 39.293 30.3432 42.4211 29.5464 45.8077C28.7495 49.1943 28.828 52.728 29.7743 56.076C34.1316 44.0404 47.8719 38.3052 58.1764 41.8205Z" fill="white"/>
<path d="M58.1764 41.8207C47.8719 38.3054 34.1316 44.0435 29.7684 56.0762C30.7189 59.4513 32.5194 62.5262 34.9977 65.0066C37.4761 67.487 40.5495 69.2901 43.9238 70.2434C55.9594 65.8684 61.6946 52.1281 58.1764 41.8207Z" fill="#252947"/>
<path d="M67.0294 39.8688C65.319 37.0475 62.9526 34.681 60.1313 32.9707L58.1764 41.8208L67.0294 39.8688Z" fill="white"/>
<path d="M60.8438 45.6187C59.2804 47.182 56.5689 47.0024 54.7847 45.2153C53.0006 43.4282 52.818 40.7167 54.3784 39.1563C55.9388 37.5959 58.6533 37.7726 60.4404 39.5596C62.2275 41.3467 62.4071 44.0583 60.8438 45.6187Z" fill="#252947"/>
</g>
<defs>
<clipPath id="clip0_130_1114">
<rect width="41" height="41" fill="white" transform="translate(29 30)"/>
</clipPath>
</defs>
</svg>
