<svg width="37" height="37" viewBox="0 0 37 37" fill="none" xmlns="http://www.w3.org/2000/svg">
<path d="M7.65059 16.9497V20.8487C7.65059 23.6965 7.65059 25.1204 8.02501 26.2727C8.78173 28.6017 10.6077 30.4276 12.9366 31.1843C14.089 31.5587 15.5128 31.5587 18.3606 31.5587C21.2084 31.5587 22.6322 31.5587 23.7846 31.1843C26.1135 30.4276 27.9395 28.6017 28.6962 26.2727C29.0706 25.1204 29.0706 23.6965 29.0706 20.8487V16.9547M29.0706 16.9547C27.606 17.5483 25.7966 18.1931 23.6435 18.9621L20.4192 20.1137C19.4002 20.4776 18.8908 20.6595 18.3608 20.6595C17.8307 20.6595 17.3213 20.4776 16.3023 20.1137L13.078 18.9621C6.34502 16.5574 2.97852 15.3551 2.97852 13.1987C2.97852 11.0422 6.34502 9.83988 13.078 7.4352L16.3023 6.28364C17.3213 5.91974 17.8307 5.73779 18.3608 5.73779C18.8908 5.73779 19.4002 5.91974 20.4192 6.28364L23.6435 7.4352C30.3765 9.83988 33.743 11.0422 33.743 13.1987C33.743 14.6655 32.1859 15.6921 29.0706 16.9547Z" stroke="#101010" stroke-width="2"/>
<path d="M16.0655 5.14937L12.5955 6.38877C9.30972 7.56223 6.72735 8.4845 4.97523 9.39085C3.28178 10.2668 1.83008 11.3928 1.83008 13.1987V23.9266C1.83008 24.5604 2.42591 25.0562 3.05965 25.0562C3.6934 25.0562 4.20715 24.5424 4.20715 23.9087V16.5781C3.76611 16.3104 3.35819 16.0184 3.00928 15.6928C2.29662 15.0277 1.83008 14.2224 1.83008 13.1987C1.83008 12.5649 2.42591 12.0512 3.05965 12.0512C3.17212 12.0512 3.27822 12.0674 3.37668 12.0975L3.05976 12.2401L3.29941 13.1988H4.12517C4.12517 13.5494 4.35672 14.1028 6.02977 14.9682C7.62719 15.7945 10.0614 16.6667 13.4631 17.8816L16.6875 19.0331C17.7815 19.4239 18.0746 19.5121 18.3599 19.5121C18.6452 19.5121 18.9383 19.4239 20.0324 19.0331L23.3645 17.8431C25.4779 17.0883 27.2256 16.4641 28.6387 15.8914C30.185 15.2647 31.2285 14.7399 31.8754 14.2432C32.4966 13.7663 32.5946 13.4427 32.5946 13.1988H34.8896C34.8896 13.1987 34.8896 13.1988 34.8896 13.1988C34.8896 11.3929 33.4378 10.2668 31.7444 9.39085C29.9923 8.4845 27.4099 7.56223 24.1242 6.38876L20.6542 5.14937C19.7824 4.83719 19.093 4.59033 18.3598 4.59033C17.6266 4.59033 16.9372 4.83719 16.0655 5.14937Z" fill="#252947"/>
<path d="M34.8846 13.3796C34.8375 14.2203 34.4632 14.9145 33.9101 15.4957C34.4694 14.9111 34.8383 14.2214 34.8846 13.3796Z" fill="#252947"/>
</svg>
