<svg width="180" height="62" viewBox="0 0 180 62" fill="none" xmlns="http://www.w3.org/2000/svg">
<rect width="179.258" height="61.5364" rx="18" fill="black"/>
<path d="M155.905 53.5099H24.2448C21.2023 53.5099 18.7285 50.9774 18.7285 47.841V14.5872C18.7285 11.4606 21.2023 8.91832 24.2448 8.91832H155.905C158.948 8.91832 161.422 11.4606 161.422 14.5872V47.8508C161.422 50.9774 158.957 53.5099 155.905 53.5099Z" fill="black"/>
<path d="M30.1539 26.3443C27.8412 30.4743 29.3104 36.7373 31.8695 40.5361C33.149 42.4355 34.438 44.1401 36.2104 44.1401C36.2483 44.1401 36.2768 44.1401 36.3147 44.1401C37.1488 44.1108 37.7459 43.8381 38.3335 43.5849C38.9875 43.3024 39.6605 43.0004 40.722 43.0004C41.7267 43.0004 42.3712 43.2829 42.9968 43.5654C43.6128 43.8381 44.2384 44.1206 45.1767 44.1011C47.1766 44.0621 48.3993 42.2212 49.4798 40.6043C50.6077 38.9095 51.1764 37.2633 51.366 36.6399L51.3754 36.6107C51.4133 36.5036 51.3565 36.3769 51.2522 36.3282C51.2522 36.3282 51.2427 36.3185 51.2333 36.3185C50.8826 36.1724 47.8022 34.7698 47.7643 30.9321C47.7358 27.8151 50.0769 26.169 50.5508 25.8768L50.5698 25.867C50.6172 25.8378 50.6551 25.7794 50.6646 25.7209C50.674 25.6625 50.6646 25.5943 50.6267 25.5456C49.0059 23.1105 46.5321 22.7501 45.5369 22.7014C45.3947 22.6819 45.2431 22.6819 45.0914 22.6819C43.9161 22.6819 42.7977 23.1397 41.8973 23.5001C41.2718 23.7534 40.741 23.9677 40.3618 23.9677C39.9448 23.9677 39.4046 23.7436 38.779 23.4904C37.9449 23.1495 36.9876 22.7599 35.983 22.7599C35.9545 22.7599 35.9356 22.7599 35.9166 22.7599C33.585 22.7988 31.3766 24.1722 30.1539 26.3443Z" fill="white"/>
<path d="M45.5376 16C44.1254 16.0584 42.4288 16.9546 41.4146 18.1721C40.5521 19.1949 39.7086 20.9092 39.936 22.6332C39.9455 22.7404 40.0403 22.828 40.1446 22.8378C40.2393 22.8475 40.3341 22.8475 40.4384 22.8475C41.8222 22.8475 43.3103 22.0585 44.3339 20.7923C45.4049 19.4579 45.9452 17.7338 45.784 16.2045C45.7651 16.0877 45.6608 16 45.5376 16Z" fill="white"/>
<path d="M67.3672 15.4286H70.0495C70.7509 15.4286 71.3764 15.5747 71.9262 15.8766C72.4759 16.1786 72.8929 16.5877 73.1962 17.1137C73.4995 17.6397 73.6512 18.2436 73.6512 18.9059C73.6512 19.578 73.4995 20.1722 73.1962 20.6981C72.8929 21.2241 72.4664 21.643 71.9262 21.9352C71.3764 22.2371 70.7509 22.3832 70.0495 22.3832H67.3672V15.4286ZM70.0116 21.9449C70.6371 21.9449 71.1869 21.8183 71.6703 21.565C72.1442 21.3118 72.5138 20.9514 72.7792 20.4936C73.0351 20.0358 73.1678 19.5098 73.1678 18.9254C73.1678 18.3312 73.0351 17.815 72.7792 17.3572C72.5233 16.8994 72.1536 16.539 71.6703 16.2857C71.1963 16.0325 70.6371 15.9059 70.0116 15.9059H67.8601V21.9547H70.0116V21.9449Z" fill="white"/>
<path d="M75.8979 22.1008C75.5093 21.8767 75.2155 21.565 74.988 21.1559C74.77 20.7566 74.6562 20.2988 74.6562 19.7923C74.6562 19.2858 74.77 18.8377 74.988 18.4286C75.206 18.0293 75.5093 17.7176 75.8979 17.4838C76.2865 17.2598 76.713 17.1429 77.1869 17.1429C77.6608 17.1429 78.0968 17.2598 78.4759 17.4838C78.8645 17.7078 79.1584 18.0195 79.3858 18.4286C79.6038 18.828 79.7176 19.2858 79.7176 19.7923C79.7176 20.2988 79.6038 20.7468 79.3858 21.1559C79.1678 21.5553 78.8645 21.867 78.4759 22.1008C78.0873 22.3248 77.6608 22.4417 77.1869 22.4417C76.713 22.4417 76.2865 22.3248 75.8979 22.1008ZM78.239 21.7111C78.5423 21.5261 78.7887 21.2631 78.9688 20.9319C79.1489 20.6007 79.2342 20.2209 79.2342 19.7923C79.2342 19.3637 79.1489 18.9936 78.9688 18.6527C78.7887 18.3215 78.5518 18.0585 78.239 17.8734C77.9357 17.6883 77.585 17.5909 77.1964 17.5909C76.8078 17.5909 76.4571 17.6883 76.1538 17.8734C75.8505 18.0585 75.6041 18.3215 75.424 18.6527C75.2439 18.9838 75.1586 19.3637 75.1586 19.7923C75.1586 20.2209 75.2439 20.591 75.424 20.9319C75.6041 21.2631 75.841 21.5261 76.1538 21.7111C76.4571 21.8962 76.8078 21.9936 77.1964 21.9936C77.585 21.9936 77.9262 21.8962 78.239 21.7111Z" fill="white"/>
<path d="M88.3035 17.2013L86.3889 22.4027H85.934L84.2279 17.8929L82.5124 22.4027H82.0669L80.1523 17.2013H80.6168L82.3039 21.8378L84.0289 17.2013H84.4459L86.1615 21.828L87.8675 17.2013H88.3035Z" fill="white"/>
<path d="M93.4033 17.7273C93.7729 18.1072 93.953 18.6526 93.953 19.3637V22.4027H93.4696V19.4027C93.4696 18.8182 93.3274 18.3702 93.0431 18.0682C92.7587 17.7663 92.3512 17.6104 91.8394 17.6104C91.2422 17.6104 90.7778 17.7955 90.4366 18.1559C90.0954 18.5163 89.9248 19.013 89.9248 19.6267V22.393H89.4414V17.1916H89.9058V18.3117C90.0764 17.9513 90.3418 17.6591 90.683 17.4546C91.0243 17.25 91.4413 17.1429 91.9057 17.1429C92.5313 17.1624 93.0336 17.3474 93.4033 17.7273Z" fill="white"/>
<path d="M95.9434 15.0097H96.4267V22.393H95.9434V15.0097Z" fill="white"/>
<path d="M99.1576 22.1008C98.769 21.8767 98.4752 21.565 98.2478 21.1559C98.0298 20.7566 97.916 20.2988 97.916 19.7923C97.916 19.2858 98.0298 18.8377 98.2478 18.4286C98.4657 18.0293 98.769 17.7176 99.1576 17.4838C99.5463 17.2598 99.9728 17.1429 100.447 17.1429C100.921 17.1429 101.357 17.2598 101.736 17.4838C102.124 17.7078 102.418 18.0195 102.646 18.4286C102.864 18.828 102.977 19.2858 102.977 19.7923C102.977 20.2988 102.864 20.7468 102.646 21.1559C102.428 21.5553 102.124 21.867 101.736 22.1008C101.347 22.3248 100.921 22.4417 100.447 22.4417C99.9728 22.4417 99.5463 22.3248 99.1576 22.1008ZM101.499 21.7111C101.802 21.5261 102.048 21.2631 102.229 20.9319C102.409 20.6007 102.494 20.2209 102.494 19.7923C102.494 19.3637 102.409 18.9936 102.229 18.6527C102.048 18.3215 101.812 18.0585 101.499 17.8734C101.195 17.6884 100.845 17.5909 100.456 17.5909C100.068 17.5909 99.7169 17.6884 99.4136 17.8734C99.1103 18.0585 98.8638 18.3215 98.6837 18.6527C98.5037 18.9838 98.4184 19.3637 98.4184 19.7923C98.4184 20.2209 98.5037 20.591 98.6837 20.9319C98.8638 21.2631 99.1008 21.5261 99.4136 21.7111C99.7169 21.8962 100.068 21.9936 100.456 21.9936C100.845 21.9936 101.186 21.8962 101.499 21.7111Z" fill="white"/>
<path d="M107.611 17.6591C107.943 17.9903 108.113 18.4676 108.113 19.1105V22.4027H107.649V21.4774C107.488 21.7793 107.251 22.0228 106.938 22.1884C106.625 22.354 106.256 22.4417 105.82 22.4417C105.26 22.4417 104.815 22.3053 104.483 22.0326C104.161 21.7598 103.99 21.3995 103.99 20.9611C103.99 20.5326 104.142 20.1819 104.445 19.9092C104.748 19.6364 105.222 19.5098 105.886 19.5098H107.62V19.091C107.62 18.604 107.497 18.2338 107.241 17.9903C106.985 17.7371 106.616 17.6104 106.123 17.6104C105.791 17.6104 105.469 17.6689 105.156 17.7858C104.853 17.9026 104.587 18.0682 104.379 18.263L104.132 17.9026C104.388 17.6689 104.692 17.4935 105.042 17.3572C105.393 17.2306 105.772 17.1624 106.161 17.1624C106.796 17.1624 107.279 17.328 107.611 17.6591ZM106.966 21.7306C107.26 21.5358 107.478 21.2436 107.63 20.8637V19.8897H105.905C105.412 19.8897 105.052 19.9871 104.824 20.1722C104.597 20.3572 104.493 20.6105 104.493 20.9417C104.493 21.2826 104.616 21.5456 104.862 21.7404C105.109 21.9352 105.45 22.0326 105.895 22.0326C106.312 22.0326 106.673 21.9352 106.966 21.7306Z" fill="white"/>
<path d="M114.614 15.0097V22.393H114.14V21.1657C113.941 21.5748 113.657 21.8865 113.297 22.1008C112.937 22.3151 112.529 22.4319 112.065 22.4319C111.591 22.4319 111.164 22.3151 110.785 22.091C110.406 21.867 110.103 21.5553 109.885 21.1559C109.667 20.7566 109.562 20.2988 109.562 19.7923C109.562 19.2858 109.667 18.828 109.885 18.4189C110.103 18.0195 110.397 17.7078 110.785 17.4838C111.164 17.2598 111.591 17.1526 112.065 17.1526C112.52 17.1526 112.918 17.2598 113.278 17.4838C113.638 17.6981 113.922 18.0098 114.121 18.3994V15H114.614V15.0097ZM113.136 21.7111C113.439 21.5261 113.685 21.2631 113.866 20.9319C114.046 20.6007 114.131 20.2209 114.131 19.7923C114.131 19.3637 114.046 18.9936 113.866 18.6527C113.685 18.3215 113.449 18.0585 113.136 17.8734C112.832 17.6884 112.482 17.591 112.093 17.591C111.705 17.591 111.354 17.6884 111.051 17.8734C110.747 18.0585 110.501 18.3215 110.321 18.6527C110.141 18.9838 110.055 19.3637 110.055 19.7923C110.055 20.2209 110.141 20.591 110.321 20.9319C110.501 21.2631 110.738 21.5261 111.051 21.7111C111.354 21.8962 111.705 21.9936 112.093 21.9936C112.482 21.9936 112.832 21.8962 113.136 21.7111Z" fill="white"/>
<path d="M119.83 22.1008C119.441 21.8767 119.147 21.565 118.92 21.1559C118.702 20.7566 118.588 20.2988 118.588 19.7923C118.588 19.2858 118.702 18.8377 118.92 18.4286C119.138 18.0293 119.441 17.7176 119.83 17.4838C120.218 17.2598 120.645 17.1429 121.119 17.1429C121.592 17.1429 122.028 17.2598 122.408 17.4838C122.796 17.7078 123.09 18.0195 123.317 18.4286C123.535 18.828 123.649 19.2858 123.649 19.7923C123.649 20.2988 123.535 20.7468 123.317 21.1559C123.099 21.5553 122.796 21.867 122.408 22.1008C122.019 22.3248 121.592 22.4417 121.119 22.4417C120.645 22.4417 120.218 22.3248 119.83 22.1008ZM122.171 21.7111C122.474 21.5261 122.72 21.2631 122.9 20.9319C123.081 20.6007 123.166 20.2209 123.166 19.7923C123.166 19.3637 123.081 18.9936 122.9 18.6527C122.72 18.3215 122.483 18.0585 122.171 17.8734C121.867 17.6884 121.517 17.5909 121.128 17.5909C120.739 17.5909 120.389 17.6884 120.085 17.8734C119.782 18.0585 119.536 18.3215 119.356 18.6527C119.176 18.9838 119.09 19.3637 119.09 19.7923C119.09 20.2209 119.176 20.591 119.356 20.9319C119.536 21.2631 119.773 21.5261 120.085 21.7111C120.389 21.8962 120.739 21.9936 121.128 21.9936C121.517 21.9936 121.858 21.8962 122.171 21.7111Z" fill="white"/>
<path d="M129.126 17.7273C129.496 18.1072 129.676 18.6526 129.676 19.3637V22.4027H129.192V19.4027C129.192 18.8182 129.05 18.3702 128.766 18.0682C128.481 17.7663 128.074 17.6104 127.562 17.6104C126.965 17.6104 126.5 17.7955 126.159 18.1559C125.818 18.5163 125.647 19.013 125.647 19.6267V22.393H125.164V17.1916H125.628V18.3117C125.799 17.9513 126.064 17.6591 126.406 17.4546C126.747 17.25 127.164 17.1429 127.628 17.1429C128.254 17.1624 128.756 17.3474 129.126 17.7273Z" fill="white"/>
<path d="M136.67 22.0715C136.547 22.1884 136.395 22.2858 136.206 22.3443C136.025 22.4027 135.826 22.4417 135.627 22.4417C135.191 22.4417 134.85 22.3151 134.613 22.0715C134.376 21.8183 134.253 21.4774 134.253 21.0293V17.6299H133.324V17.2013H134.253V16.0617H134.736V17.2013H136.348V17.6299H134.736V20.9709C134.736 21.3118 134.812 21.565 134.973 21.7404C135.135 21.9157 135.362 22.0034 135.675 22.0034C135.988 22.0034 136.253 21.906 136.461 21.7111L136.67 22.0715Z" fill="white"/>
<path d="M141.989 17.7273C142.359 18.1072 142.539 18.6527 142.539 19.3637V22.4027H142.056V19.4027C142.056 18.8182 141.913 18.3702 141.629 18.0682C141.345 17.7663 140.937 17.6104 140.425 17.6104C139.828 17.6104 139.364 17.7955 139.023 18.1559C138.681 18.5163 138.511 19.0131 138.511 19.6267V22.393H138.027V15.0097H138.511V18.2825C138.681 17.9221 138.947 17.6494 139.288 17.4546C139.629 17.2598 140.037 17.1624 140.501 17.1624C141.127 17.1624 141.629 17.3474 141.989 17.7273Z" fill="white"/>
<path d="M148.823 19.9189H144.472C144.482 20.328 144.586 20.6884 144.776 21.0001C144.965 21.3118 145.221 21.5553 145.534 21.7306C145.856 21.9059 146.216 21.9936 146.614 21.9936C146.946 21.9936 147.249 21.9352 147.534 21.8085C147.818 21.6819 148.045 21.5066 148.235 21.2631L148.519 21.5943C148.301 21.867 148.027 22.0715 147.695 22.2176C147.363 22.3637 147.003 22.4319 146.614 22.4319C146.112 22.4319 145.657 22.315 145.268 22.091C144.87 21.867 144.567 21.5553 144.34 21.1559C144.112 20.7566 144.008 20.2988 144.008 19.7923C144.008 19.2858 144.112 18.8377 144.321 18.4286C144.529 18.0293 144.823 17.7176 145.183 17.4838C145.553 17.2598 145.96 17.1429 146.425 17.1429C146.88 17.1429 147.297 17.25 147.657 17.4741C148.017 17.6981 148.311 18.0098 148.519 18.4091C148.728 18.8085 148.832 19.2566 148.832 19.7631L148.823 19.9189ZM145.458 17.8442C145.174 18.0098 144.946 18.2338 144.776 18.5358C144.605 18.828 144.51 19.1689 144.482 19.539H148.358C148.339 19.1689 148.245 18.8377 148.064 18.5455C147.894 18.2533 147.657 18.0293 147.373 17.8539C147.088 17.6883 146.766 17.6007 146.415 17.6007C146.065 17.6007 145.742 17.6786 145.458 17.8442Z" fill="white"/>
<path d="M74.5426 39.7535H68.7515L67.6046 42.5101H65.3867L70.5997 30.5975H72.7228L77.9547 42.5101H75.6989L74.5426 39.7535ZM73.8317 38.0197L71.6423 32.8183L69.4718 38.0197H73.8317Z" fill="white"/>
<path d="M86.4375 33.8995C87.1199 34.2891 87.6507 34.8249 88.0393 35.5359C88.4279 36.2372 88.6174 37.0457 88.6174 37.971C88.6174 38.8866 88.4279 39.7048 88.0393 40.4159C87.6507 41.1269 87.1199 41.6724 86.4375 42.062C85.755 42.4516 84.9873 42.6367 84.1248 42.6367C82.9306 42.6367 81.9922 42.2276 81.2908 41.4094V45.8121H79.2246V33.4222H81.1961V34.6106C81.5373 34.182 81.9638 33.8606 82.4661 33.6365C82.9685 33.4222 83.5182 33.3151 84.1343 33.3151C84.9873 33.3248 85.755 33.5197 86.4375 33.8995ZM85.774 40.0262C86.2669 39.5003 86.5133 38.8184 86.5133 37.971C86.5133 37.1236 86.2669 36.432 85.774 35.9158C85.2811 35.3898 84.6556 35.1366 83.8973 35.1366C83.4045 35.1366 82.9495 35.2534 82.5609 35.4872C82.1628 35.721 81.8501 36.0522 81.6131 36.4807C81.3856 36.9093 81.2624 37.4061 81.2624 37.9808C81.2624 38.5457 81.3761 39.0425 81.6131 39.4808C81.8406 39.9094 82.1628 40.2405 82.5609 40.4743C82.959 40.7081 83.4045 40.825 83.8973 40.825C84.6556 40.8152 85.2811 40.5522 85.774 40.0262Z" fill="white"/>
<path d="M97.791 33.8995C98.4734 34.2892 99.0042 34.8249 99.3928 35.5359C99.7814 36.2372 99.9709 37.0457 99.9709 37.971C99.9709 38.8866 99.7814 39.7048 99.3928 40.4159C99.0042 41.1269 98.4734 41.6724 97.791 42.062C97.1086 42.4516 96.3408 42.6367 95.4783 42.6367C94.2841 42.6367 93.3457 42.2276 92.6444 41.4094V45.8121H90.5781V33.4223H92.5496V34.6106C92.8908 34.182 93.3173 33.8606 93.8196 33.6365C94.322 33.4223 94.8717 33.3151 95.4878 33.3151C96.3408 33.3249 97.118 33.5197 97.791 33.8995ZM97.1275 40.0263C97.6204 39.5003 97.8668 38.8184 97.8668 37.971C97.8668 37.1236 97.6204 36.432 97.1275 35.9158C96.6346 35.3898 96.0091 35.1366 95.2508 35.1366C94.758 35.1366 94.303 35.2535 93.9144 35.4872C93.5163 35.721 93.2036 36.0522 92.9666 36.4807C92.7391 36.9093 92.6159 37.4061 92.6159 37.9808C92.6159 38.5457 92.7297 39.0425 92.9666 39.4808C93.1941 39.9094 93.5163 40.2405 93.9144 40.4743C94.3125 40.7081 94.758 40.825 95.2508 40.825C96.0091 40.8152 96.6441 40.5522 97.1275 40.0263Z" fill="white"/>
<path d="M107.707 42.286C106.873 42.023 106.219 41.6821 105.727 41.2438L106.475 39.5295C106.949 39.9191 107.527 40.2308 108.219 40.4743C108.911 40.7178 109.603 40.8444 110.295 40.8444C111.158 40.8444 111.802 40.6983 112.219 40.4159C112.646 40.1334 112.854 39.7535 112.854 39.2957C112.854 38.9548 112.731 38.6723 112.494 38.458C112.257 38.234 111.954 38.0684 111.594 37.9418C111.233 37.8152 110.731 37.6788 110.105 37.5132C109.224 37.2989 108.504 37.0846 107.963 36.8704C107.414 36.6561 106.949 36.3152 106.561 35.8574C106.172 35.3996 105.973 34.7762 105.973 33.9969C105.973 33.3346 106.144 32.7404 106.494 32.2047C106.845 31.669 107.366 31.2404 108.068 30.919C108.769 30.5975 109.622 30.4417 110.646 30.4417C111.357 30.4417 112.048 30.5293 112.731 30.7144C113.413 30.8995 114.001 31.1527 114.503 31.4936L113.821 33.208C113.309 32.906 112.788 32.6722 112.229 32.5067C111.679 32.3508 111.139 32.2729 110.627 32.2729C109.774 32.2729 109.148 32.419 108.731 32.7112C108.314 33.0034 108.115 33.393 108.115 33.8898C108.115 34.2307 108.229 34.5034 108.475 34.7275C108.712 34.9418 109.015 35.1171 109.376 35.234C109.736 35.3606 110.238 35.497 110.864 35.6625C111.726 35.8671 112.428 36.0814 112.987 36.2957C113.537 36.5197 114.01 36.8509 114.399 37.3087C114.788 37.7665 114.987 38.3704 114.987 39.1496C114.987 39.812 114.816 40.4061 114.465 40.9321C114.115 41.4678 113.593 41.8867 112.883 42.2081C112.172 42.5295 111.319 42.6854 110.305 42.6854C109.404 42.6854 108.542 42.549 107.707 42.286Z" fill="white"/>
<path d="M122.237 42.023C121.99 42.2276 121.696 42.3834 121.355 42.4808C121.005 42.5782 120.644 42.6367 120.256 42.6367C119.289 42.6367 118.531 42.3737 118 41.8574C117.469 41.3315 117.204 40.5717 117.204 39.5782V35.2047H115.744V33.4904H117.204V31.4157H119.27V33.4904H121.64V35.195H119.27V39.5198C119.27 39.9581 119.374 40.299 119.583 40.5327C119.791 40.7665 120.095 40.8834 120.493 40.8834C120.957 40.8834 121.346 40.7568 121.649 40.5133L122.237 42.023Z" fill="white"/>
<path d="M125.202 42.0328C124.482 41.6334 123.923 41.0782 123.525 40.3769C123.117 39.6659 122.918 38.8671 122.918 37.971C122.918 37.0749 123.117 36.2762 123.525 35.5749C123.923 34.8736 124.491 34.3184 125.202 33.9287C125.923 33.5294 126.728 33.3346 127.619 33.3346C128.52 33.3346 129.335 33.5294 130.055 33.9287C130.775 34.3281 131.335 34.8736 131.733 35.5749C132.131 36.2762 132.339 37.0749 132.339 37.971C132.339 38.8671 132.14 39.6659 131.733 40.3769C131.325 41.088 130.766 41.6432 130.055 42.0328C129.335 42.4321 128.529 42.6269 127.619 42.6269C126.719 42.6269 125.913 42.4321 125.202 42.0328ZM129.505 40.0262C129.998 39.5003 130.254 38.8184 130.254 37.971C130.254 37.1236 130.008 36.432 129.505 35.9158C129.012 35.3898 128.377 35.1366 127.619 35.1366C126.861 35.1366 126.235 35.3996 125.742 35.9158C125.25 36.4418 125.003 37.1236 125.003 37.971C125.003 38.8184 125.25 39.51 125.742 40.0262C126.235 40.5522 126.861 40.8055 127.619 40.8055C128.377 40.8152 129.012 40.5522 129.505 40.0262Z" fill="white"/>
<path d="M139.438 33.3248V35.3508C139.258 35.3216 139.097 35.3021 138.955 35.3021C138.149 35.3021 137.524 35.5457 137.069 36.0229C136.614 36.51 136.387 37.2015 136.387 38.1074V42.5101H134.32V33.4222H136.292V34.7567C136.889 33.8021 137.941 33.3248 139.438 33.3248Z" fill="white"/>
<path d="M149.39 38.6528H142.452C142.576 39.3249 142.888 39.8509 143.4 40.2405C143.912 40.6302 144.547 40.825 145.315 40.825C146.282 40.825 147.087 40.4938 147.713 39.8412L148.822 41.1464C148.424 41.6334 147.921 42.0036 147.315 42.2568C146.708 42.5101 146.026 42.6269 145.258 42.6269C144.291 42.6269 143.429 42.4321 142.689 42.0328C141.95 41.6334 141.381 41.0782 140.974 40.3769C140.566 39.6659 140.367 38.8671 140.367 37.971C140.367 37.0846 140.566 36.2859 140.955 35.5846C141.343 34.8736 141.893 34.3184 142.585 33.9287C143.277 33.5294 144.064 33.3346 144.936 33.3346C145.798 33.3346 146.566 33.5294 147.248 33.919C147.931 34.3086 148.462 34.8638 148.841 35.5651C149.22 36.2762 149.409 37.0944 149.409 38.0197C149.419 38.1658 149.409 38.3801 149.39 38.6528ZM143.267 35.6333C142.813 36.0327 142.528 36.5684 142.433 37.2405H147.447C147.362 36.5781 147.087 36.0522 146.632 35.6431C146.177 35.234 145.618 35.0294 144.945 35.0294C144.291 35.0294 143.732 35.2242 143.267 35.6333Z" fill="white"/>
</svg>
