<svg width="180" height="62" viewBox="0 0 180 62" fill="none" xmlns="http://www.w3.org/2000/svg">
<rect x="0.5" y="0.5" width="178.258" height="60.5364" rx="17.5" fill="white" stroke="#46475C"/>
<path d="M156.163 53.5099H24.5026C21.4601 53.5099 18.9863 50.9774 18.9863 47.841V14.5872C18.9863 11.4606 21.4601 8.91832 24.5026 8.91832H156.163C159.206 8.91832 161.679 11.4606 161.679 14.5872V47.8507C161.679 50.9774 159.215 53.5099 156.163 53.5099Z" fill="white"/>
<path d="M46.3497 29.2307L40.9092 26.0067L36.4355 30.4483L40.5206 34.51L46.3402 31.0522C46.6624 30.8671 46.852 30.5165 46.852 30.1366C46.8615 29.7567 46.6624 29.4158 46.3497 29.2307Z" fill="#FFD109"/>
<path d="M39.989 25.4612L33.9989 21.906L20.8906 15L35.7049 29.7178L39.989 25.4612Z" fill="#06EF79"/>
<path d="M21.1094 45.6726L34.0281 38.3575L39.6012 35.0555L35.7057 31.1788L21.1094 45.6726Z" fill="#F93646"/>
<path d="M20.019 15.5942L20 45.3122L34.966 30.4483L20.019 15.5942Z" fill="#05D5FB"/>
<path d="M69.3914 36.6755H71.3818V41.312C70.8036 41.7893 70.1212 42.1497 69.344 42.4126C68.5668 42.6659 67.7706 42.7925 66.946 42.7925C65.7897 42.7925 64.7471 42.5393 63.8277 42.023C62.8988 41.5068 62.169 40.7957 61.6477 39.8899C61.117 38.984 60.8516 37.9515 60.8516 36.8119C60.8516 35.6723 61.117 34.6495 61.6477 33.7339C62.1785 32.8281 62.9083 32.117 63.8372 31.6008C64.766 31.0845 65.8181 30.8313 66.9839 30.8313C67.9317 30.8313 68.7942 30.9969 69.5714 31.3183C70.3486 31.6397 71.0026 32.1073 71.5334 32.7307L70.2065 34.0651C69.344 33.1787 68.3014 32.7307 67.0882 32.7307C66.292 32.7307 65.5811 32.906 64.9651 33.2469C64.349 33.5878 63.8561 34.0748 63.5054 34.6982C63.1547 35.3216 62.9841 36.0327 62.9841 36.8216C62.9841 37.6009 63.1547 38.2924 63.5054 38.9158C63.8561 39.5392 64.3395 40.0262 64.9651 40.3769C65.5811 40.7276 66.292 40.9126 67.0787 40.9126C67.9602 40.9126 68.7374 40.7178 69.4103 40.3185V36.6755H69.3914Z" fill="#46475C"/>
<path d="M75.4754 42.1594C74.774 41.7698 74.2243 41.2341 73.8357 40.5425C73.4376 39.8509 73.248 39.0619 73.248 38.1853C73.248 37.3087 73.4471 36.5294 73.8357 35.8379C74.2338 35.1463 74.774 34.6106 75.4754 34.221C76.1768 33.8313 76.9635 33.6365 77.8355 33.6365C78.7169 33.6365 79.5131 33.8313 80.2145 34.221C80.9158 34.6106 81.4656 35.1463 81.8542 35.8379C82.2523 36.5294 82.4418 37.3087 82.4418 38.1853C82.4418 39.0619 82.2428 39.8412 81.8542 40.5425C81.4561 41.2341 80.9158 41.7795 80.2145 42.1594C79.5131 42.549 78.7169 42.7438 77.8355 42.7438C76.9635 42.7438 76.1768 42.549 75.4754 42.1594ZM79.6837 40.2016C80.1671 39.6951 80.4135 39.023 80.4135 38.1853C80.4135 37.3574 80.1671 36.6853 79.6837 36.169C79.2003 35.6625 78.5842 35.3995 77.8355 35.3995C77.0867 35.3995 76.4801 35.6528 75.9967 36.169C75.5133 36.6755 75.2764 37.3476 75.2764 38.1853C75.2764 39.0132 75.5133 39.6853 75.9967 40.2016C76.4801 40.7081 77.0867 40.9711 77.8355 40.9711C78.5842 40.9613 79.1908 40.7081 79.6837 40.2016Z" fill="#46475C"/>
<path d="M85.911 42.1594C85.2096 41.7698 84.6598 41.2341 84.2712 40.5425C83.8732 39.8509 83.6836 39.0619 83.6836 38.1853C83.6836 37.3087 83.8826 36.5294 84.2712 35.8379C84.6693 35.1463 85.2096 34.6106 85.911 34.221C86.6123 33.8313 87.399 33.6365 88.271 33.6365C89.1525 33.6365 89.9486 33.8313 90.65 34.221C91.3514 34.6106 91.9011 35.1463 92.2897 35.8379C92.6878 36.5294 92.8774 37.3087 92.8774 38.1853C92.8774 39.0619 92.6783 39.8412 92.2897 40.5425C91.8917 41.2341 91.3514 41.7795 90.65 42.1594C89.9486 42.549 89.1525 42.7438 88.271 42.7438C87.399 42.7438 86.6123 42.549 85.911 42.1594ZM90.1192 40.2016C90.6026 39.6951 90.8491 39.023 90.8491 38.1853C90.8491 37.3574 90.6026 36.6853 90.1192 36.169C89.6359 35.6625 89.0198 35.3995 88.271 35.3995C87.5222 35.3995 86.9156 35.6528 86.4323 36.169C85.9489 36.6755 85.7119 37.3476 85.7119 38.1853C85.7119 39.0132 85.9489 39.6853 86.4323 40.2016C86.9156 40.7081 87.5222 40.9711 88.271 40.9711C89.0198 40.9613 89.6264 40.7081 90.1192 40.2016Z" fill="#46475C"/>
<path d="M103.4 33.7437V41.273C103.4 44.3997 101.845 45.9582 98.7364 45.9582C97.9023 45.9582 97.1156 45.851 96.3763 45.6367C95.6275 45.4224 95.0209 45.1107 94.5281 44.7016L95.438 43.1432C95.8171 43.4646 96.291 43.7179 96.8692 43.9127C97.4473 44.1075 98.035 44.2049 98.6226 44.2049C99.5704 44.2049 100.272 43.9809 100.708 43.5425C101.153 43.0945 101.371 42.4224 101.371 41.5165V41.049C101.03 41.4386 100.604 41.7308 100.111 41.9256C99.6178 42.1204 99.0681 42.2276 98.4805 42.2276C97.6653 42.2276 96.9166 42.0523 96.2531 41.6919C95.5896 41.3315 95.0683 40.825 94.6797 40.1724C94.3006 39.5197 94.1016 38.7697 94.1016 37.9321C94.1016 37.0944 94.2911 36.3444 94.6797 35.6918C95.0589 35.0392 95.5896 34.5424 96.2531 34.1917C96.9166 33.8411 97.6559 33.656 98.4805 33.656C99.106 33.656 99.6747 33.7632 100.187 33.9677C100.698 34.182 101.125 34.5034 101.476 34.932V33.7534H103.4V33.7437ZM100.67 39.7535C101.163 39.286 101.409 38.6723 101.409 37.9126C101.409 37.1723 101.163 36.5684 100.67 36.1009C100.177 35.6333 99.5515 35.3995 98.7838 35.3995C98.0066 35.3995 97.3715 35.6333 96.8787 36.1009C96.3858 36.5684 96.1394 37.1723 96.1394 37.9126C96.1394 38.6626 96.3858 39.2762 96.8787 39.7535C97.3715 40.2211 98.0066 40.4646 98.7838 40.4646C99.5515 40.4646 100.187 40.2308 100.67 39.7535Z" fill="#46475C"/>
<path d="M106.053 30.2858H108.072V42.6269H106.053V30.2858Z" fill="#46475C"/>
<path d="M118.819 38.8477H112.042C112.165 39.5003 112.469 40.0165 112.971 40.4061C113.473 40.786 114.099 40.9808 114.838 40.9808C115.786 40.9808 116.573 40.6594 117.189 40.0165L118.269 41.2925C117.881 41.7698 117.388 42.1302 116.8 42.3737C116.203 42.6172 115.539 42.7438 114.791 42.7438C113.843 42.7438 113.009 42.549 112.279 42.1594C111.559 41.7698 110.999 41.2341 110.601 40.5425C110.203 39.8509 110.014 39.0619 110.014 38.1853C110.014 37.3184 110.203 36.5392 110.592 35.8476C110.971 35.156 111.502 34.6106 112.184 34.2307C112.867 33.8411 113.625 33.6463 114.478 33.6463C115.321 33.6463 116.07 33.8411 116.734 34.221C117.397 34.6008 117.918 35.1366 118.288 35.8379C118.658 36.5294 118.847 37.3281 118.847 38.2437C118.847 38.3801 118.838 38.5847 118.819 38.8477ZM112.838 35.8963C112.393 36.2859 112.118 36.8119 112.023 37.4645H116.923C116.838 36.8216 116.573 36.3054 116.127 35.906C115.682 35.5067 115.132 35.3119 114.478 35.3119C113.833 35.3119 113.284 35.5067 112.838 35.8963Z" fill="#46475C"/>
<path d="M132.677 31.4839C133.407 31.8151 133.966 32.2924 134.355 32.9157C134.743 33.5391 134.933 34.2697 134.933 35.1268C134.933 35.9645 134.743 36.7048 134.355 37.3281C133.966 37.9515 133.407 38.4386 132.677 38.7697C131.947 39.1009 131.094 39.2665 130.109 39.2665H127.549V42.6269H125.445V30.9871H130.109C131.094 30.9871 131.947 31.1527 132.677 31.4839ZM132.099 36.8411C132.573 36.4418 132.81 35.8671 132.81 35.1268C132.81 34.3865 132.573 33.8119 132.099 33.4125C131.625 33.0131 130.933 32.8183 130.014 32.8183H127.559V37.445H130.014C130.933 37.4353 131.625 37.2405 132.099 36.8411Z" fill="#46475C"/>
<path d="M136.998 30.2858H139.017V42.6269H136.998V30.2858Z" fill="#46475C"/>
<path d="M147.898 34.5814C148.571 35.2047 148.912 36.1496 148.912 37.4158V42.6172H147.007V41.536C146.761 41.9256 146.41 42.2178 145.946 42.4224C145.491 42.6269 144.932 42.7341 144.287 42.7341C143.643 42.7341 143.074 42.6172 142.59 42.3932C142.107 42.1691 141.728 41.8477 141.463 41.4483C141.197 41.0392 141.064 40.5912 141.064 40.0749C141.064 39.2762 141.349 38.6334 141.927 38.1561C142.505 37.6691 143.415 37.4353 144.657 37.4353H146.894V37.2989C146.894 36.6755 146.713 36.1983 146.353 35.8671C145.993 35.5359 145.453 35.3703 144.742 35.3703C144.259 35.3703 143.775 35.4482 143.311 35.6041C142.837 35.7599 142.448 35.9742 142.126 36.2567L141.33 34.7469C141.785 34.3963 142.325 34.1236 142.96 33.9287C143.595 33.7437 144.268 33.6463 144.979 33.6463C146.249 33.6463 147.225 33.958 147.898 34.5814ZM146.05 40.8737C146.448 40.6399 146.723 40.299 146.884 39.8509V38.8184H144.799C143.633 38.8184 143.055 39.208 143.055 39.997C143.055 40.3769 143.197 40.6691 143.491 40.8931C143.785 41.1172 144.183 41.2243 144.704 41.2243C145.206 41.2243 145.661 41.1074 146.05 40.8737Z" fill="#46475C"/>
<path d="M159.423 33.7437L155.376 43.338C154.996 44.3023 154.541 44.9841 154.001 45.3737C153.461 45.7633 152.807 45.9679 152.039 45.9679C151.603 45.9679 151.186 45.8997 150.76 45.7536C150.343 45.6075 149.992 45.4127 149.727 45.1594L150.532 43.6302C150.722 43.8153 150.959 43.9711 151.224 44.0782C151.489 44.1854 151.755 44.2438 152.02 44.2438C152.38 44.2438 152.674 44.1464 152.902 43.9614C153.129 43.7763 153.347 43.4549 153.537 43.0165L153.679 42.6659L149.907 33.7534H152.011L154.731 40.3184L157.461 33.7534H159.423V33.7437Z" fill="#46475C"/>
<path d="M64.472 22.286C64.017 22.286 63.5905 22.1886 63.1924 21.984C62.7944 21.7795 62.4531 21.5067 62.1593 21.1561C61.8655 20.8152 61.638 20.4255 61.4769 19.9872C61.3158 19.5586 61.2305 19.1106 61.2305 18.643C61.2305 18.156 61.3158 17.6982 61.4769 17.2696C61.638 16.8411 61.8655 16.4514 62.1593 16.1203C62.4531 15.7891 62.7944 15.5261 63.183 15.3313C63.581 15.1365 64.0076 15.0488 64.472 15.0488C65.1449 15.0488 65.6947 15.1949 66.1401 15.4774C66.5761 15.7696 66.9079 16.1398 67.1259 16.6073L66.4529 17.0943C66.2539 16.6755 65.9695 16.3735 65.6188 16.169C65.2682 15.9644 64.8795 15.867 64.453 15.867C64.1023 15.867 63.7801 15.9449 63.4957 16.1008C63.2114 16.2566 62.965 16.4612 62.7564 16.7339C62.5479 16.9969 62.3963 17.2989 62.2825 17.63C62.1783 17.9612 62.1214 18.3119 62.1214 18.6723C62.1214 19.0521 62.1783 19.4125 62.3015 19.7534C62.4247 20.0944 62.5953 20.3866 62.8133 20.6496C63.0313 20.9126 63.2967 21.1074 63.5905 21.2535C63.8843 21.3996 64.1971 21.4775 64.5383 21.4775C64.9364 21.4775 65.3155 21.3704 65.6757 21.1658C66.0359 20.9613 66.3771 20.6398 66.6899 20.2112V21.1463C66.0643 21.9061 65.325 22.286 64.472 22.286ZM66.5856 19.3638H65.0881V18.682H67.3249V22.247H66.5856V19.3638Z" fill="#46475C"/>
<path d="M73.3822 21.4384V22.2469H68.6621V15.0974H73.2874V15.9059H69.5436V18.2143H72.8041V18.9643H69.5436V21.4287H73.3822V21.4384Z" fill="#46475C"/>
<path d="M79.5993 15.9059H77.2013V22.2469H76.3198V15.9059H73.9219V15.0974H79.5993V15.9059Z" fill="#46475C"/>
<path d="M82.7852 22.2371V15.0974H83.6666V22.2371H82.7852Z" fill="#46475C"/>
<path d="M86.2057 16.7727V22.2469H85.3242V15.0974H86.0635L90.3097 20.6787V15.1071H91.1912V22.2371H90.395L86.2057 16.7727Z" fill="#46475C"/>
<path d="M98.1567 22.2858C97.6638 22.2858 97.2278 22.1884 96.8297 21.9839C96.4317 21.7793 96.0904 21.5066 95.7966 21.1657C95.5028 20.8248 95.2848 20.4351 95.1237 19.9968C94.9625 19.5682 94.8867 19.1202 94.8867 18.6624C94.8867 18.1851 94.972 17.7273 95.1331 17.2987C95.3038 16.8702 95.5312 16.4805 95.825 16.1396C96.1189 15.7987 96.4696 15.5357 96.8676 15.3312C97.2657 15.1364 97.7017 15.039 98.1661 15.039C98.659 15.039 99.095 15.1461 99.4931 15.3506C99.8912 15.5552 100.232 15.8377 100.517 16.1883C100.801 16.539 101.029 16.9286 101.18 17.3572C101.341 17.7858 101.417 18.2241 101.417 18.6721C101.417 19.1494 101.332 19.6072 101.171 20.0358C101.01 20.4644 100.782 20.854 100.479 21.1949C100.185 21.5358 99.8343 21.7988 99.4362 21.9936C99.0571 22.1982 98.6211 22.2858 98.1567 22.2858ZM95.7777 18.6721C95.7777 19.0325 95.8345 19.3832 95.9483 19.7241C96.062 20.065 96.2231 20.367 96.4317 20.6202C96.6402 20.8832 96.8961 21.0878 97.1899 21.2436C97.4837 21.3994 97.806 21.4774 98.1661 21.4774C98.5358 21.4774 98.8675 21.3994 99.1614 21.2339C99.4552 21.0683 99.7016 20.854 99.9101 20.591C100.119 20.3183 100.27 20.0163 100.384 19.6851C100.488 19.354 100.545 19.013 100.545 18.6721C100.545 18.3117 100.488 17.9611 100.375 17.6299C100.261 17.2987 100.1 16.9968 99.8817 16.7338C99.6732 16.4708 99.4173 16.2565 99.1234 16.1104C98.8296 15.9643 98.5074 15.8864 98.1567 15.8864C97.787 15.8864 97.4553 15.9643 97.1615 16.1201C96.8676 16.276 96.6212 16.4903 96.4127 16.763C96.2042 17.0357 96.0525 17.328 95.9388 17.6591C95.8345 17.9806 95.7777 18.3215 95.7777 18.6721Z" fill="#46475C"/>
<path d="M103.542 16.7727V22.2469H102.66V15.0974H103.399L107.646 20.6787V15.1071H108.527V22.2371H107.721L103.542 16.7727Z" fill="#46475C"/>
</svg>
