<svg width="100" height="100" viewBox="0 0 100 100" fill="none" xmlns="http://www.w3.org/2000/svg">
<circle opacity="0.1" cx="50" cy="50" r="50" fill="#7C8DEA"/>
<g clip-path="url(#clip0_1_861)">
<path d="M65.3675 38.9373C65.3675 38.8318 65.3752 38.7273 65.3752 38.6208C65.3752 34.3695 61.7732 30.6838 57.3299 30.6838C54.0832 30.6838 51.2843 32.7658 50.0133 35.4181C48.7423 32.7658 45.9453 30.6838 42.6967 30.6838C38.2534 30.6838 34.6514 34.3695 34.6514 38.6208C34.6514 38.7273 34.6514 38.8318 34.6591 38.9373C34.6591 38.9373 34.2055 43.9881 39.851 49.5019C42.4188 52.0629 45.2893 54.4966 50.0152 58.3201C54.7402 54.4966 57.6116 52.0629 60.1785 49.5019C65.8221 43.9881 65.3675 38.9373 65.3675 38.9373Z" fill="#7C8DEA" stroke="#7C8DEA" stroke-width="2" stroke-linecap="round" stroke-linejoin="round"/>
<path d="M30.3925 58.6139C30.3925 58.6139 28.7491 55.3408 27.692 54.4643C26.6349 53.5878 27.1047 52.3605 29.0423 52.6581C30.9798 52.9557 33.6202 56.3932 34.9122 57.9703C36.2042 59.5474 37.671 59.6653 37.671 59.6653C42.4246 60.3669 43.8207 60.7015 46.4228 64.7921C49.7651 70.0502 47.245 72.5057 43.7233 72.2718C40.2015 72.038 38.3232 70.285 38.3232 70.285C38.3232 70.285 33.327 67.1478 31.3904 66.2685C29.4538 65.3892 25.172 56.4512 24.1702 54.0556C23.1685 51.6599 23.9353 43.1288 25.3438 43.1868C26.7524 43.2448 27.5163 44.0633 27.5163 47.1605C27.5163 50.2577 27.8095 51.7179 27.8095 51.7179" stroke="#7C8DEA" stroke-width="2" stroke-linecap="round" stroke-linejoin="round"/>
<path d="M69.6074 58.6139C69.6074 58.6139 71.2517 55.3408 72.3079 54.4643C73.364 53.5878 72.8952 52.3605 70.9576 52.6581C69.0201 52.9557 66.3797 56.3932 65.0867 57.9703C63.7938 59.5474 62.328 59.6653 62.328 59.6653C57.5744 60.3669 56.1783 60.7015 53.5761 64.7921C50.2339 70.0502 52.7539 72.5057 56.2757 72.2718C59.7974 72.038 61.6758 70.285 61.6758 70.285C61.6758 70.285 66.6719 67.1478 68.6085 66.2685C70.5451 65.3892 74.8308 56.4512 75.8287 54.0556C76.8266 51.6599 76.0684 43.1288 74.656 43.1868C73.2437 43.2448 72.4836 44.0633 72.4836 47.1605C72.4836 50.2577 72.1904 51.7179 72.1904 51.7179" stroke="#7C8DEA" stroke-width="2" stroke-linecap="round" stroke-linejoin="round"/>
</g>
<defs>
<clipPath id="clip0_1_861">
<rect width="54" height="45" fill="white" transform="translate(23 28)"/>
</clipPath>
</defs>
</svg>
