<svg width="72" height="72" viewBox="0 0 72 72" fill="none" xmlns="http://www.w3.org/2000/svg">
<circle opacity="0.1" cx="36" cy="36" r="36" fill="#6882A0"/>
<path fill-rule="evenodd" clip-rule="evenodd" d="M51.1548 47.233C51.1548 51.2782 47.7184 54.5575 43.4794 54.5575H28.1286C23.8896 54.5575 20.4532 51.2782 20.4532 47.233V38.2772C20.4532 36.9768 19.9119 35.7297 18.9484 34.8102C16.7159 32.6799 17.0061 29.1501 19.5594 27.3781L31.2896 19.2371C33.9809 17.3692 37.6271 17.3692 40.3185 19.2371L52.0486 27.3781C54.6019 29.1501 54.8921 32.6799 52.6597 34.8102C51.6961 35.7297 51.1548 36.9768 51.1548 38.2772V47.233ZM35.804 47.2132C37.8321 47.2132 39.4761 45.5692 39.4761 43.5411C39.4761 41.513 37.8321 39.869 35.804 39.869C33.776 39.869 32.1319 41.513 32.1319 43.5411C32.1319 45.5692 33.776 47.2132 35.804 47.2132Z" fill="#252947"/>
</svg>
