<svg width="100" height="100" viewBox="0 0 100 100" fill="none" xmlns="http://www.w3.org/2000/svg">
<circle opacity="0.1" cx="50" cy="50" r="50" fill="#7CEAC9"/>
<path d="M42.5006 35.9375C36.7072 35.9375 31.7715 40.2694 31.7715 45.8954C31.7715 49.7766 33.5889 53.0441 35.9975 55.7509C38.3979 58.4483 41.4947 60.7125 44.2943 62.6076L49.1248 65.8773C49.6538 66.2354 50.3475 66.2354 50.8765 65.8773L55.7069 62.6076C58.5066 60.7125 61.6034 58.4483 64.0038 55.7509C66.4124 53.0441 68.2298 49.7766 68.2298 45.8954C68.2298 40.2694 63.2941 35.9375 57.5006 35.9375C54.5142 35.9375 51.8864 37.3378 50.0007 39.1497C48.1149 37.3378 45.487 35.9375 42.5006 35.9375Z" fill="#7CEAC9"/>
</svg>
