<svg width="33" height="39" viewBox="0 0 33 39" fill="none" xmlns="http://www.w3.org/2000/svg">
<path d="M31.4307 10.4549C31.4121 9.4635 31.3943 8.52691 31.3943 7.62094C31.3943 6.91107 30.8262 6.33567 30.1251 6.33567C24.6968 6.33567 20.564 4.75587 17.119 1.36415C16.6263 0.878788 15.842 0.879017 15.3494 1.36415C11.9048 4.75587 7.77264 6.33567 2.3448 6.33567C1.64377 6.33567 1.07545 6.91107 1.07545 7.62094C1.07545 8.52713 1.05792 9.46403 1.03911 10.4556C0.865172 19.6816 0.626905 32.317 15.8185 37.6492C15.9532 37.6965 16.0937 37.7202 16.2341 37.7202C16.3746 37.7202 16.5152 37.6965 16.6498 37.6492C31.8426 32.3168 31.6047 19.681 31.4307 10.4549Z" fill="#252947" stroke="#252947" stroke-width="2" stroke-miterlimit="10"/>
<path d="M18.4871 16.6963V11.8762H13.9831V16.6963H9.22266V21.2571H13.9831V26.0771H18.4871V21.2571H23.2468V16.6963H18.4871Z" fill="white"/>
</svg>
