<svg width="100" height="100" viewBox="0 0 100 100" fill="none" xmlns="http://www.w3.org/2000/svg">
<circle opacity="0.1" cx="50" cy="50" r="50" fill="#EA7CBE"/>
<g clip-path="url(#clip0_1_881)">
<path d="M59.1756 41.8207L61.1305 32.9706C57.2063 30.5914 52.5974 29.5972 48.0413 30.147C43.4852 30.6968 39.2451 32.7587 35.9994 36.003C35.7668 36.2356 35.5401 36.4741 35.3223 36.7185C42.4471 31.1511 52.7486 32.3258 59.1756 41.8207Z" fill="#EA7CBE"/>
<path d="M59.1764 41.8208C62.6946 52.1253 56.9594 65.8685 44.9238 70.2317C48.2723 71.1777 51.8064 71.256 55.1934 70.4592C58.5804 69.6624 61.709 68.0167 64.2845 65.6771C69.8489 58.5523 68.6742 48.2478 59.1764 41.8208Z" fill="white"/>
<path d="M68.0288 39.8687L59.1758 41.8206C68.6736 48.2477 69.8483 58.5521 64.2839 65.6681C64.5223 65.4473 64.7608 65.2235 64.9963 64.9909C68.2381 61.7456 70.2984 57.5072 70.8482 52.9531C71.3979 48.3991 70.4052 43.7922 68.0288 39.8687Z" fill="#EA7CBE"/>
<path d="M59.1767 41.8207C52.7497 32.3259 42.4482 31.1512 35.3292 36.7185C32.9894 39.2933 31.3435 42.4213 30.5467 45.8079C29.7499 49.1946 29.8283 52.7283 30.7747 56.0762C35.132 44.0406 48.8723 38.3054 59.1767 41.8207Z" fill="white"/>
<path d="M59.1755 41.8207C48.8711 38.3054 35.1308 44.0435 30.7676 56.0762C31.718 59.4513 33.5185 62.5262 35.9969 65.0066C38.4753 67.487 41.5486 69.2901 44.923 70.2434C56.9586 65.8684 62.6938 52.1281 59.1755 41.8207Z" fill="#EA7CBE"/>
<path d="M68.0288 39.8688C66.3184 37.0475 63.952 34.681 61.1307 32.9707L59.1758 41.8208L68.0288 39.8688Z" fill="white"/>
<path d="M61.8444 45.6187C60.2811 47.182 57.5696 47.0024 55.7854 45.2153C54.0013 43.4282 53.8187 40.7167 55.3791 39.1563C56.9395 37.5959 59.654 37.7726 61.4411 39.5596C63.2282 41.3467 63.4078 44.0583 61.8444 45.6187Z" fill="#EA7CBE"/>
</g>
<defs>
<clipPath id="clip0_1_881">
<rect width="41" height="41" fill="white" transform="translate(30 30)"/>
</clipPath>
</defs>
</svg>
