<svg width="72" height="72" viewBox="0 0 72 72" fill="none" xmlns="http://www.w3.org/2000/svg">
<circle opacity="0.1" cx="36" cy="36" r="36" fill="#6882A0"/>
<path d="M27.7714 20C21.4152 20 16 24.7322 16 30.8782C16 35.118 17.9939 38.6875 20.6365 41.6444C23.2701 44.5912 26.6678 47.0646 29.7394 49.1348L35.0391 52.7066C35.6195 53.0978 36.3805 53.0978 36.9609 52.7066L42.2606 49.1348C45.3322 47.0646 48.7299 44.5912 51.3634 41.6444C54.0061 38.6875 56 35.118 56 30.8782C56 24.7322 50.5848 20 44.2286 20C40.9521 20 38.0689 21.5297 36 23.509C33.9311 21.5297 31.0479 20 27.7714 20Z" fill="#252947"/>
</svg>
