<svg width="40" height="33" viewBox="0 0 40 33" fill="none" xmlns="http://www.w3.org/2000/svg">
<path d="M11.7714 0C5.41518 0 0 4.7322 0 10.8782C0 15.118 1.99393 18.6875 4.63655 21.6444C7.27009 24.5912 10.6678 27.0646 13.7394 29.1348L19.0391 32.7066C19.6195 33.0978 20.3805 33.0978 20.9609 32.7066L26.2606 29.1348C29.3322 27.0646 32.7299 24.5912 35.3634 21.6444C38.0061 18.6875 40 15.118 40 10.8782C40 4.7322 34.5848 0 28.2286 0C24.9521 0 22.0689 1.52969 20 3.509C17.9311 1.5297 15.0479 0 11.7714 0Z" fill="#252947"/>
</svg>
